<svg id="Layer_1" height="512" viewBox="0 0 512 512" width="512" xmlns="http://www.w3.org/2000/svg" data-name="Layer 1"><path d="m188.59 130.134a9.232 9.232 0 0 1 11.73-1.19 10.905 10.905 0 0 1 -11.73 18.37l-.11-.08v-16.99z" fill="#cea697"/><path d="m79.31 147.314a10.905 10.905 0 0 1 -11.73-18.37 9.232 9.232 0 0 1 11.73 1.19h.21v17.04z" fill="#cea697"/><path d="m178 222h-.13c-1.79-3-5.18-8.753-7.45-11.433l-.01.074-72.285-.387-.068.01a61.1 61.1 0 0 0 -7.218 10.13c-7.57 13.59-8.835 27.67-5.545 42.77l60.906 75.136.01.05a53.357 53.357 0 0 1 10.58-2.34l.12-.19 21.145-51.64z" fill="#6994fe"/><path d="m413.05 279.384a19.179 19.179 0 0 1 19.16 19.15v20.51h-13.6v-20.51a5.561 5.561 0 0 0 -5.56-5.56h-.04v-13.59z" fill="#bc5e51"/><path d="m364.62 279.384v13.59h-.05a5.567 5.567 0 0 0 -5.56 5.56v20.51h-13.59v-20.51a19.171 19.171 0 0 1 19.15-19.15z" fill="#bc5e51"/><path d="m485.45 319h-156.61l-.14.012-.7 169.988h157.45a20.452 20.452 0 0 0 20.55-20.436v-128.97a20.587 20.587 0 0 0 -20.55-20.594z" fill="#7f3d32"/><path d="m364 277h50v18h-50z" fill="#313960"/><path d="m458.18 319.044h20.56v170.07h-20.56z" fill="#bc5e51"/><path d="m400.991 362.472h29.679v42.845h-29.679z" fill="#ffa4c2" transform="matrix(.529 -.848 .848 .529 -129.984 533.483)"/><path d="m372.11 422.734h42.85v29.67h-42.85z" fill="#e75163"/><path d="m357.56 489.114h-54.54a53.743 53.743 0 0 0 -6.25-69.05l37-36.99a37 37 0 0 0 3.41-3.94 35.75 35.75 0 0 1 20.38 32.29z" fill="#ff5a81"/><path d="m225.71 368.254-31.37-22.52a54.106 54.106 0 0 0 -12.66-6.75 77.418 77.418 0 0 1 -3.98-24.52v-86.73c0-1.82.06-3.62.19-5.4a70.905 70.905 0 0 1 .84-7.19 76.359 76.359 0 0 1 6.53-20.79c.2-.43.42-.86.63-1.29a77.563 77.563 0 0 1 146.95 34.67v86.73c0 1.54-.05 3.06-.14 4.57a76.6 76.6 0 0 1 -1.41 10.9l.17.04 2.31 2.52a35.791 35.791 0 0 1 3.41 46.64 37 37 0 0 1 -3.41 3.94l-37 36.99a53.624 53.624 0 0 0 -6.43-5.41l-23.29-16.72z" fill="#313960"/><path d="m269.52 448.744a147.958 147.958 0 0 0 -2.47-50.81l23.29 16.72a53.642 53.642 0 0 1 12.68 74.46h-44.52a147.453 147.453 0 0 0 11.01-40.37z" fill="#d2cfff"/><path d="m225.71 368.254 41.34 29.68a147.958 147.958 0 0 1 2.47 50.81h-.01a96.209 96.209 0 0 1 -44.25 20.05v-.01c11.71-31.33 12.45-69.3.45-100.53z" fill="#99f"/><path d="m193.02 468.834a96.072 96.072 0 0 0 76.49-20.09 147.453 147.453 0 0 1 -11.01 40.37h-48.67l-18.72-13.44-13.02-9.35z" fill="#7d7dff"/><path d="m156.79 336.014a54.655 54.655 0 0 1 6.27-.36 53.243 53.243 0 0 1 10.2.98 53.162 53.162 0 0 1 21.08 9.1l31.37 22.52c12 31.23 11.26 69.2-.45 100.53v.01a96.38 96.38 0 0 1 -32.24.04l-14.93-2.51-24.9-17.87-.14-.1-11.13-7.99-10.24-7.35a53.729 53.729 0 0 1 -6.18-82.1v-.01a53.919 53.919 0 0 1 31.29-14.89z" fill="#d2cfff"/><path d="m152.98 448.454.07-.1.14.1 24.9 17.87 13.02 9.35-.21.29a45.932 45.932 0 0 0 3.24 11.24v1.91h-41.16z" fill="#ff5a81"/><path d="m194.14 487.2a45.932 45.932 0 0 1 -3.24-11.24l.21-.29 18.72 13.44h-15.69z" fill="#ff5a81"/><path d="m173.26 336.634a53.243 53.243 0 0 0 -10.2-.98 54.655 54.655 0 0 0 -6.27.36l-.03-.19 20.94-51.64v30.28a77.407 77.407 0 0 0 1.56 15.48l-.17.03-2.31 2.52a35.386 35.386 0 0 0 -3.51 4.08z" fill="#7f3d32"/><path d="m159.47 230.4a27.317 27.317 0 0 0 .6-5.73l3.34 4.58a34.738 34.738 0 0 1 5.35 30 33.894 33.894 0 0 1 -2.72 6.76 34.585 34.585 0 0 1 -4.06 6.05l-5.53 6.61a4.745 4.745 0 0 1 -7.61-.47l-.49-.75-14.25-22 11.68-6.49a27.757 27.757 0 0 0 13.69-18.56z" fill="#80aaff"/><path d="m153.05 448.354-.07.1v40.66h-11.06v-48.75z" fill="#7f3d32"/><path d="m125.5 350.9v-37.45a51.762 51.762 0 0 0 -1.01-10.18l1.62-19.89.02-.29a11.048 11.048 0 0 1 15.48-.15l.06.22 4.53 55.14.01.05a53.283 53.283 0 0 0 -20.71 12.55z" fill="#de3c44"/><path d="m134.1 255.454 14.25 22-.28.18-6.46 5.31a11.048 11.048 0 0 0 -15.48.15l-6.37-5.46-.15-.1 14.31-22.08z" fill="#e75163"/><path d="m107.95 224.674a27.764 27.764 0 0 0 14.29 24.29l11.68 6.49-14.31 22.08-.43.67a4.742 4.742 0 0 1 -6.2 1.61 51.742 51.742 0 0 0 -3.62-3.78l-3.32-3.97a34.743 34.743 0 0 1 -1.43-42.81z" fill="#80aaff"/><path d="m108.54 230.334v-13.6l27 14.5 23.93-13.59v12.756a27.757 27.757 0 0 1 -13.69 18.56l-11.68 6.49h-.18l-11.68-6.49a27.8 27.8 0 0 1 -13.71-18.63z" fill="#cea697"/><path d="m110.74 65.694-17.09-21.41h-6.94a23.338 23.338 0 0 0 -23.33 23.34v43.83a13.845 13.845 0 0 0 13.84 13.84h1.3l-.01-21.6z" fill="#313960"/><path d="m90.81 220.394c-7.57 13.59-8.82 27.67-5.53 42.77a50.717 50.717 0 0 0 -8.5-1.17v-.01l-9.83-5.06a6.173 6.173 0 0 1 -3.36-5.5 6.014 6.014 0 0 1 .29-1.86c4.31-13.73 15.41-28.58 32.76-40.4l.01-.01c.45.38.9.75 1.36 1.1l-.01.01a60.939 60.939 0 0 0 -7.19 10.13z" fill="#7f3d32"/><path d="m79.07 177.854c-.1-.67-.18-1.33-.25-2a14.868 14.868 0 0 0 13.28 8.17h11.66a10.539 10.539 0 0 0 10.53-10.54v-.28a4.063 4.063 0 0 1 4.06-4.06 14.873 14.873 0 0 0 14.87-14.87h.84a14.867 14.867 0 0 0 14.87 14.87h1.48c2.24 0 2.58 1.82 2.58 4.06v.28a10.533 10.533 0 0 0 10.53 10.54h12.4a14.857 14.857 0 0 0 13.36-8.33c-.03.37-.07.74-.11 1.11a50.55 50.55 0 0 1 -4.4 15.7c-.19.41-.38.81-.58 1.21a50.429 50.429 0 0 1 -12.3 15.8c-.48.42-.98.82-1.48 1.21a50.251 50.251 0 0 1 -6.51 4.41l-4.43 2.51-23.93 13.59-27-14.5-3.4-1.83a50.485 50.485 0 0 1 -7.13-4.65c-.46-.35-.91-.72-1.36-1.1a50.486 50.486 0 0 1 -17.58-31.3z" fill="#313960"/><path d="m189.48 156.315v-40.521c-.49-.4-.96-.84-1.42-1.29a28.513 28.513 0 0 1 -8.34-20.13v-17.3a20.127 20.127 0 0 0 -20.13-20.131h-1.93a20.078 20.078 0 0 0 -13.54 5.23 21.707 21.707 0 0 1 -26.17 2.661l-.57-.351a19.65 19.65 0 0 1 -6.64 1.21h2.78v2.02a9.94 9.94 0 0 1 -9.94 9.94 9.937 9.937 0 0 0 -9.93 9.931v.99a15.129 15.129 0 0 1 -15.13 15.119h-.01l.01 52.641a7 7 0 0 0 -1.3 4.079v2.01a8.072 8.072 0 0 0 8.07 8.07h12.43a10.821 10.821 0 0 0 10.82-10.82 10.823 10.823 0 0 1 10.83-10.82h28.54a10.823 10.823 0 0 1 10.82 10.82 10.823 10.823 0 0 0 10.83 10.82h13.16a8.066 8.066 0 0 0 8.07-8.07v-2.01a7 7 0 0 0 -1.31-4.098z" fill="#e1b7a3"/><path d="m23.34 381.374.11-.02a51.28 51.28 0 0 1 -1.03-10.28v-57.62a51.6 51.6 0 0 1 51.54-51.54c.95 0 1.89.03 2.82.08a50.717 50.717 0 0 1 8.5 1.17 51.471 51.471 0 0 1 24.08 12.87l2.21 2.64a4.6 4.6 0 0 0 1.41 1.14 51.325 51.325 0 0 1 12.52 33.64v37.46a53.747 53.747 0 0 0 -4.99 71.34l-29.75 29.746a23.756 23.756 0 0 1 -33.6 0l-35.35-35.35a23.044 23.044 0 0 1 -2.26-2.62h-.01a23.759 23.759 0 0 1 2.27-30.98z" fill="#4e6dca"/><path d="m21.81 416.654 35.35 35.346a23.756 23.756 0 0 0 33.6 0l29.75-29.75a53.674 53.674 0 0 0 11.17 10.76l10.24 7.35v48.75h-135.92v-53.62a23.8 23.8 0 0 1 13.54-21.46h.01a23.044 23.044 0 0 0 2.26 2.624z" fill="#fe8700"/><path d="m304.32 212.084a60.958 60.958 0 0 1 12.16 36.62v29.45a61.205 61.205 0 0 1 -122.41 0v-29.454a60.9 60.9 0 0 1 12.18-36.64 153.927 153.927 0 0 1 98.06.02z" fill="#ffac83"/><path d="m304.31 212.084a153.927 153.927 0 0 0 -98.06-.02 61.205 61.205 0 0 1 98.06.02z" fill="#c12826"/><path d="m129.95 392.144a7.216 7.216 0 0 0 10.55-7.51l-.97-5.87a7.16 7.16 0 0 0 5.7-7.93l5.87-.96a7.215 7.215 0 0 0 3.57-12.55l.02-.02a36.09 36.09 0 0 1 31.37 4.17 9.029 9.029 0 0 1 12.05 13.33 36.155 36.155 0 0 1 -37.69 52.5 6.754 6.754 0 0 1 -.51.8 9.035 9.035 0 0 1 -15.97-7.94 36.115 36.115 0 0 1 -13.99-28.02z" fill="#ffac83"/><path d="m141.66 350.544a7.2 7.2 0 0 1 8.06 5.01 7.22 7.22 0 0 1 4.41 1.34c.19.14.37.28.54.43a7.215 7.215 0 0 1 -3.57 12.55l-5.87.96a7.177 7.177 0 0 0 -8.55-6.14l-.97-5.87a7.22 7.22 0 0 1 5.95-8.28z" fill="#8dc63f"/><path d="m139.53 378.764a7.16 7.16 0 1 1 4.41-2.84 7.128 7.128 0 0 1 -4.41 2.84z" fill="#e75163"/><path d="m130.98 372.634a7.179 7.179 0 0 0 8.55 6.13l.97 5.87a7.211 7.211 0 0 1 -14.01 3.28 7.21 7.21 0 0 1 -1.38-14.32z" fill="#8dc63f"/><path d="m171.89 209.52c2.13 1.47 4.87 4.07 6.81 5.62h.03q-.585 3.54-.84 7.19h-.02c-1.79-3.02-5.18-8.92-7.45-11.6.49-.39.98-.79 1.46-1.22z" fill="#7f3d32"/><path d="m36.4 431.24-14.586-14.6a17.364 17.364 0 0 1 -2.264-2.64h-.01a24.037 24.037 0 0 0 -13.54 21.494v53.506h30v-53.506a23.851 23.851 0 0 1 .4-4.254z" fill="#d17213"/><path d="m87.16 452-35.35-35.363a17.364 17.364 0 0 1 -2.26-2.637h-.01a23.76 23.76 0 0 1 2.27-30.963l1.53-1.671-.1-.016a51.3 51.3 0 0 1 -1.24-10.276v-57.62a51.814 51.814 0 0 1 36.757-49.309c-1.211-.37-2.335-.7-3.582-.981a50.1 50.1 0 0 0 -8.448-1.17c-.93-.05-2.053-.08-3-.08a51.755 51.755 0 0 0 -51.727 51.54v57.62a51.34 51.34 0 0 0 1.24 10.28v.02l-1.478 1.663a23.754 23.754 0 0 0 -2.222 30.963h.01a17.364 17.364 0 0 0 2.26 2.637l35.35 35.363a23.759 23.759 0 0 0 31.8 1.631 23.989 23.989 0 0 1 -1.8-1.631z" fill="#3e599b"/><path d="m41.38 303.054a102.193 102.193 0 0 1 65.16 0 40.465 40.465 0 0 1 8.08 24.33v19.56a40.66 40.66 0 1 1 -81.32 0v-19.56a40.465 40.465 0 0 1 8.08-24.33z" fill="#e1b7a3"/><path d="m106.54 303.054a102.193 102.193 0 0 0 -65.16 0 41.276 41.276 0 0 1 3.83-4.42 40.661 40.661 0 0 1 61.33 4.42z" fill="#e84d7a"/><path d="m94 83.585v.99c0 8.349-7.13 16.425-15.48 16.425l-.01-1-.1 57.487a6.641 6.641 0 0 0 -1.41 3.927v2.01c0 4.46 3.84 7.576 8.29 7.576h12.43a10.233 10.233 0 0 0 6.151-1.757 7.629 7.629 0 0 1 -2.871-5.819v-2.01a6.641 6.641 0 0 1 1.41-3.927l.077-83.732a9.828 9.828 0 0 0 -8.487 9.83z" fill="#ad8c7f"/><path d="m77.22 162.424a8.072 8.072 0 0 0 8.07 8.07h12.43a10.823 10.823 0 0 0 10.82-10.82 10.823 10.823 0 0 1 10.83-10.82h28.54a10.823 10.823 0 0 1 10.82 10.82 10.823 10.823 0 0 0 10.83 10.82h13.16a8.066 8.066 0 0 0 8.07-8.07v6.72a14.856 14.856 0 0 1 -14.87 14.88h-12.4a10.533 10.533 0 0 1 -10.53-10.54v-.28c0-2.24-.34-4.06-2.58-4.06h-1.48a14.867 14.867 0 0 1 -14.87-14.87h-.84a14.873 14.873 0 0 1 -14.87 14.87 4.063 4.063 0 0 0 -4.06 4.06v.28a10.539 10.539 0 0 1 -10.53 10.54h-11.66a14.868 14.868 0 0 1 -13.28-8.17 14.66 14.66 0 0 1 -1.6-6.71z" fill="#4a5160"/><path d="m93.65 88.574a15.129 15.129 0 0 1 -15.13 15.12h-.01v-19.71a18.294 18.294 0 0 1 18.3-18.29h16.71v2.02a9.94 9.94 0 0 1 -9.94 9.94 9.935 9.935 0 0 0 -9.93 9.93z" fill="#4a5160"/><path d="m167.79 31.524-39.29-8.024a30.076 30.076 0 0 0 -36.13 29.5s6.25 12.69 18.37 12.69a19.65 19.65 0 0 0 6.64-1.21l65.31-14.72a18.617 18.617 0 0 0 -14.9-18.236z" fill="#4a5160"/><path d="m117.38 56.944c0-14.52 13.32-17.85 27.55-14.95l33.36 7.77c.48.11.96.23 1.43.37a34.077 34.077 0 0 1 24.92 32.82l-.16 21.43v16.6h-.77a22.094 22.094 0 0 1 -14.23-5.19c-.49-.4-.96-.84-1.42-1.29a28.513 28.513 0 0 1 -8.34-20.13v-17.3a20.127 20.127 0 0 0 -20.13-20.13h-1.93a20.078 20.078 0 0 0 -13.54 5.23 21.7 21.7 0 0 1 -26.17 2.66l-.57-.35z" fill="#313960"/><g fill="#1e334c"><path d="m485.446 316.044h-50.241v-17.507a22.184 22.184 0 0 0 -19.205-21.953 3 3 0 0 0 -2.991-2.91h-48.39a3 3 0 0 0 -2.991 2.91 22.184 22.184 0 0 0 -19.208 21.953v17.507h-6.613c.011-.527.036-1.051.036-1.58v-86.725a80.522 80.522 0 0 0 -143.8-49.844c.032-.252.079-.5.107-.754.026-.23.047-.462.07-.693a17.738 17.738 0 0 0 1.575-7.3v-8.735a10.008 10.008 0 0 0 -1.314-4.957v-3.889a13.809 13.809 0 0 0 2.614.253 13.909 13.909 0 0 0 13.784-15.863 13.811 13.811 0 0 0 -5.855-9.478 12.02 12.02 0 0 0 -10.543-1.511v-3.624a25.022 25.022 0 0 0 11.234 2.644h.77a3 3 0 0 0 3-3v-16.588l.152-21.439a36.9 36.9 0 0 0 -21.98-33.87 21.683 21.683 0 0 0 -17.264-20.5l-39.293-8.027a33.108 33.108 0 0 0 -37.59 20.726h-4.8a26.363 26.363 0 0 0 -26.33 26.333v43.829a16.816 16.816 0 0 0 7.07 13.69 11.869 11.869 0 0 0 -2.573 1.337 13.817 13.817 0 0 0 -5.856 9.478 13.907 13.907 0 0 0 13.786 15.862 13.813 13.813 0 0 0 2.713-.269v3.933a10 10 0 0 0 -1.3 4.93v8.735a17.743 17.743 0 0 0 1.672 7.5c.065.551.131 1.1.212 1.648a53.735 53.735 0 0 0 15.77 30.564c-15.206 11.151-26.365 25.5-30.86 39.8a9.175 9.175 0 0 0 4.521 10.911 54.621 54.621 0 0 0 -46.114 53.884v57.618a54.649 54.649 0 0 0 .8 9.267l-.586.641a26.774 26.774 0 0 0 -4.335 32.019 26.917 26.917 0 0 0 -12.3 22.5v53.616a3 3 0 0 0 3 3h479.446a23.58 23.58 0 0 0 23.554-23.554v-128.962a23.58 23.58 0 0 0 -23.554-23.556zm-69.44-33.379a16.174 16.174 0 0 1 13.2 15.872v17.507h-7.594v-17.507a8.566 8.566 0 0 0 -5.605-8.024zm-48.387-2.991h42.387v12.5h-42.387zm-5.605 18.863a2.539 2.539 0 0 1 .393-1.349 2.987 2.987 0 0 0 2.212.988h48.387a2.987 2.987 0 0 0 2.212-.988 2.539 2.539 0 0 1 .393 1.349v17.507h-53.6zm-13.594 0a16.174 16.174 0 0 1 13.2-15.872v7.848a8.566 8.566 0 0 0 -5.605 8.024v17.507h-7.595zm-93.147-145.368a74.655 74.655 0 0 1 74.57 74.57v86.725a73.7 73.7 0 0 1 -7.436 32.446 74.935 74.935 0 0 1 -8.36 13.4 3 3 0 0 0 4.727 3.69 80.505 80.505 0 0 0 14.155-28.021 32.8 32.8 0 0 1 -1.285 44.969l-34.951 34.952a56.539 56.539 0 0 0 -4.6-3.682l-96.006-68.918a57.1 57.1 0 0 0 -11.981-6.592 74.284 74.284 0 0 1 -3.4-22.244v-86.725a74.655 74.655 0 0 1 74.567-74.57zm-119.734 81.069a3 3 0 0 0 1.481-.391l19.455-11.047v7.23a24.806 24.806 0 0 1 -12.155 16.315l-10.312 5.728-10.308-5.726a24.8 24.8 0 0 1 -12.154-16.315v-8.278l22.578 12.127a3 3 0 0 0 1.415.357zm-.356-6.6a2.98 2.98 0 0 0 .356.036c.081 0 .158-.018.238-.024l-.278.157zm40.83 101.247-1.4 1.533a39.163 39.163 0 0 0 -2.613 2.942 56.39 56.39 0 0 0 -10.732-.671l13.432-33.126v14.9a80.733 80.733 0 0 0 1.313 14.426zm-1.31-101.15v55.865l-20.163 49.7c-.24.036-.481.061-.721.1-1.668.274-3.309.63-4.928 1.043l-4.123-50.212 3.169-2.608a7.655 7.655 0 0 0 4.4 1.724c.164.009.327.015.49.015a7.659 7.659 0 0 0 5.915-2.769l5.53-6.6a37.765 37.765 0 0 0 1.558-46.508l-3.34-4.579c-.006-.008-.014-.014-.019-.022v-3.484l2.9-1.649c1.529-.868 2.993-1.824 4.415-2.829 1.674 2.458 3.6 5.732 4.888 7.923l.163.277c-.079 1.526-.137 3.065-.137 4.617zm-8.825 30.7a31.559 31.559 0 0 1 -6.2 11.707l-5.53 6.6a1.736 1.736 0 0 1 -2.788-.171l-12.993-20.056 8.869-4.928a30.812 30.812 0 0 0 14.809-19.029 31.541 31.541 0 0 1 3.833 25.878zm-38.372 44.712 1.522-18.6a8.111 8.111 0 0 1 9.74-.078l4.254 51.807a56.028 56.028 0 0 0 -14.526 8.058v-30.876a54.575 54.575 0 0 0 -.99-10.31zm14.056-24.047a14.192 14.192 0 0 0 -15.371.094l-2.625-2.252 10.442-16.117 10.349 15.975zm-20.78-27.513 8.869 4.928-12.993 20.056a1.7 1.7 0 0 1 -1.35.789 1.9 1.9 0 0 1 -.571-.066q-1.471-1.658-3.075-3.19l-3.322-3.965a31.77 31.77 0 0 1 -2.367-37.581 30.812 30.812 0 0 0 14.809 19.033zm-.838 30.153 3.077 2.639-.373 4.551a54.593 54.593 0 0 0 -3.844-6.461 7.6 7.6 0 0 0 1.14-.725zm34.847 57.583a50.391 50.391 0 0 1 37.8 8.848l30.625 21.984c11.021 29.319 10.944 64.974-.176 95.946a93.167 93.167 0 0 1 -29.524-.223l-14.241-2.4-45.839-32.907a50.719 50.719 0 0 1 21.358-91.251zm21.695-130.012c.16-.158.32-.317.478-.476-.059.244-.114.49-.171.736-.102-.084-.205-.171-.307-.256zm55.086 166.849 32.771 23.525a144.28 144.28 0 0 1 2.368 47.456 93.222 93.222 0 0 1 -36.879 17.659c9.492-28.651 10.088-60.8 1.74-88.64zm-81.16-210.012h-1.483a11.886 11.886 0 0 1 -11.873-11.873 2.989 2.989 0 0 0 -1.244-2.422h12.1a7.832 7.832 0 0 1 7.824 7.824 13.84 13.84 0 0 0 13.82 13.823h13.168a10.992 10.992 0 0 0 4.582-1 11.889 11.889 0 0 1 -11.385 8.526h-12.4a7.539 7.539 0 0 1 -7.531-7.531v-.286c-.005-2.64-.729-7.061-5.578-7.061zm49.2-34.734a7.895 7.895 0 0 1 -7.13 13.938v-13.741a6.153 6.153 0 0 1 7.128-.197zm2.026-48.479-.064 8.96a16.089 16.089 0 0 0 -10.256-3.679 3 3 0 0 0 0 6 10.18 10.18 0 0 1 10.168 10.169v13.475a18.989 18.989 0 0 1 -11.3-5.477 25.3 25.3 0 0 1 -7.459-18.008v-17.294a23.163 23.163 0 0 0 -23.137-23.136h-1.922a23.087 23.087 0 0 0 -15.568 6.011 18.665 18.665 0 0 1 -21.723 2.838v-5.849c0-4.248 1.323-7.482 3.933-9.613 4.036-3.3 11.331-4.168 19.931-2.413l33.361 7.771a30.939 30.939 0 0 1 24.034 30.245zm-96.3-50.93a27.006 27.006 0 0 1 22.562-5.563l39.289 8.022a15.683 15.683 0 0 1 12.236 12.5c-.153-.038-.3-.081-.458-.117l-33.442-7.788c-10.609-2.167-19.489-.879-25.006 3.627-4.016 3.278-6.139 8.21-6.139 14.26v5.3c-11.072 2.589-17.527-7.363-19.005-9.97a27.006 27.006 0 0 1 9.958-20.271zm5.102 36.695a6.939 6.939 0 0 1 -6.858 5.955 12.952 12.952 0 0 0 -12.937 12.933v.989a12.134 12.134 0 0 1 -9.131 11.735v-16.321a15.313 15.313 0 0 1 15.3-15.3zm-40.64 76.53a7.9 7.9 0 0 1 -1.508-13.815 6.152 6.152 0 0 1 7.227.278v13.623a7.908 7.908 0 0 1 -5.719-.086zm5.715-61.239v38.155a10.849 10.849 0 0 1 -9.136-10.694v-43.829a20.356 20.356 0 0 1 20.334-20.333h3.151a33.364 33.364 0 0 0 -.5 5.716 3 3 0 0 0 .308 1.325 28.85 28.85 0 0 0 6.479 8.4 21.305 21.305 0 0 0 -20.638 21.26zm4.709 76.422a4.077 4.077 0 0 1 4.072-4.072 3 3 0 0 0 0-6 10.041 10.041 0 0 0 -2.774.4v-44.306a18.137 18.137 0 0 0 15.13-17.855v-.989a6.945 6.945 0 0 1 6.937-6.937 12.945 12.945 0 0 0 12.92-12.754c.159-.043.324-.1.484-.151a24.576 24.576 0 0 0 29.148-3.35 17.1 17.1 0 0 1 11.522-4.451h1.922a17.157 17.157 0 0 1 17.137 17.136v17.291a31.257 31.257 0 0 0 9.216 22.25c.177.177.36.345.542.516v33.593a10.011 10.011 0 0 0 -2.758-.393 3 3 0 1 0 0 6 4.077 4.077 0 0 1 4.072 4.072v2.018a5.075 5.075 0 0 1 -5.07 5.07h-13.168a7.834 7.834 0 0 1 -7.825-7.824 13.839 13.839 0 0 0 -13.824-13.824h-28.54a13.84 13.84 0 0 0 -13.824 13.824 7.833 7.833 0 0 1 -7.825 7.824h-12.426a5.076 5.076 0 0 1 -5.07-5.07zm.486 12.087a11 11 0 0 0 4.582 1h12.426a13.84 13.84 0 0 0 13.825-13.824 7.832 7.832 0 0 1 7.824-7.824h12.1a2.989 2.989 0 0 0 -1.244 2.422 11.886 11.886 0 0 1 -11.873 11.873 7.066 7.066 0 0 0 -7.057 7.057v.286a7.539 7.539 0 0 1 -7.531 7.531h-11.662a11.889 11.889 0 0 1 -11.39-8.521zm3.125 12.487a17.742 17.742 0 0 0 8.26 2.039h11.663a13.546 13.546 0 0 0 13.531-13.531v-.286a1.058 1.058 0 0 1 1.057-1.057 17.878 17.878 0 0 0 15.291-8.627 17.88 17.88 0 0 0 15.292 8.627h1.011a10.2 10.2 0 0 1 .045 1.055v.286a13.546 13.546 0 0 0 13.531 13.531h12.405a17.754 17.754 0 0 0 8.553-2.185 47.683 47.683 0 0 1 -22 27.658v-11.676a3 3 0 0 0 -6 0v15.079l-18.48 10.5a2.982 2.982 0 0 0 .545-1.717v-15.083a3 3 0 1 0 -6 0v15.081a2.976 2.976 0 0 0 .722 1.932l-21.719-11.666v-14.126a3 3 0 0 0 -6 0v10.86a47.759 47.759 0 0 1 -21.707-26.698zm9.593 36.871a54.882 54.882 0 0 1 5.088-7.5 52.885 52.885 0 0 0 5.2 3.2l1.822.978v4.356c-.006.008-.014.014-.019.022l-3.342 4.579a37.637 37.637 0 0 0 -4.251 37 54.122 54.122 0 0 0 -10.083-3.766c-2.774-14.411-.95-27.146 5.585-38.873zm-26.689 28.604c3.316-10.553 10.686-21.193 20.835-30.369-6.389 12.03-8.378 24.962-6.041 39.366q-1.92-.269-3.88-.4l-9.326-4.8a3.191 3.191 0 0 1 -1.588-3.797zm-44.784 137.038a54.632 54.632 0 0 0 52.005 38.112 3 3 0 0 0 0-6 48.592 48.592 0 0 1 -48.537-48.536v-57.618a48.5 48.5 0 0 1 81.829-35.27l2.018 2.41a7.828 7.828 0 0 0 1.693 1.5 48.311 48.311 0 0 1 11.537 31.36v36.213a57.6 57.6 0 0 0 -5.562 6.629c-.174.242-.33.491-.5.735a43.6 43.6 0 0 0 1.189-10.084v-19.561a43.663 43.663 0 0 0 -87.326 0v19.561a43.639 43.639 0 0 0 78.255 26.6 56.987 56.987 0 0 0 8.032 48.394l-27.948 27.941a20.76 20.76 0 0 1 -29.36 0l-35.348-35.348a20.718 20.718 0 0 1 -1.977-27.038zm82.7-81.891a37.441 37.441 0 0 1 6.967 21.781v19.561a37.663 37.663 0 0 1 -75.326 0v-19.561a37.442 37.442 0 0 1 6.968-21.784 99.768 99.768 0 0 1 61.392.003zm-53.155-8.433a37.587 37.587 0 0 1 44.923 0 106.178 106.178 0 0 0 -44.923 0zm87.42 188.94h-129.92v-50.616a20.879 20.879 0 0 1 9.821-17.631q.423.463.869.911l35.347 35.348a26.758 26.758 0 0 0 37.845 0l27.431-27.428a56.651 56.651 0 0 0 9.621 8.756l8.986 6.451zm11.063 0h-5.063v-39.9l5.063 3.635zm6 0v-31.962l32.092 23.037a49 49 0 0 0 2.408 8.925zm40.689 0 .221-.095c-.485-1.122-.9-2.269-1.291-3.426l4.906 3.521zm14.125 0-20.455-14.684 2.175.366a99.165 99.165 0 0 0 72.994-16.321 145.08 145.08 0 0 1 -9.023 30.639zm52.189 0a149.547 149.547 0 0 0 8.479-81.318l17.13 12.3a50.889 50.889 0 0 1 12.814 69.021zm50.667-.1c-.013.031-.018.064-.03.1h-5.18a56.355 56.355 0 0 0 7.211-28.527 43.218 43.218 0 0 1 -2.001 28.431zm40.909.1h-34.483a49.245 49.245 0 0 0 -.919-36.654 3 3 0 0 0 -3.944-1.563 3.111 3.111 0 0 0 -.481.268 56.8 56.8 0 0 0 -13.783-28.04l34.935-34.934c.73-.73 1.415-1.489 2.075-2.262a32.938 32.938 0 0 1 16.6 28.5zm100.62 0h-94.62v-74.684a38.958 38.958 0 0 0 -19.06-33.364 38.824 38.824 0 0 0 -5.567-47.646l-1.386-1.515q.616-3.4.935-6.863h119.7zm20.553 0h-14.553v-164.072h14.553zm27.265-17.554a17.574 17.574 0 0 1 -17.554 17.554h-3.711v-164.072h3.711a17.574 17.574 0 0 1 17.554 17.556z"/><path d="m372.106 455.407h42.85a3 3 0 0 0 3-3v-29.675a3 3 0 0 0 -3-3h-42.85a3 3 0 0 0 -3 3v29.675a3 3 0 0 0 3 3zm3-29.675h36.85v23.675h-36.85z"/><path d="m388.212 387.686 36.354 22.682a3 3 0 0 0 4.133-.957l15.708-25.177a3 3 0 0 0 -.957-4.132l-36.35-22.682a3 3 0 0 0 -4.134.957l-15.708 25.177a3 3 0 0 0 .954 4.132zm18.253-23.586 31.263 19.5-12.528 20.09-31.264-19.5z"/><path d="m302.419 372.2a74.494 74.494 0 0 1 -20.232 11.815 3 3 0 1 0 2.173 5.594 80.568 80.568 0 0 0 21.859-12.764 3 3 0 0 0 -3.8-4.645z"/><path d="m255.273 342.355a64.276 64.276 0 0 0 64.2-64.2v-29.445a64.2 64.2 0 1 0 -128.408 0v29.442a64.276 64.276 0 0 0 64.208 64.203zm0-151.849a57.978 57.978 0 0 1 39.668 15.666 158.1 158.1 0 0 0 -79.331 0 57.977 57.977 0 0 1 39.663-15.666zm-58.2 58.2a57.878 57.878 0 0 1 11.077-34.1 151.747 151.747 0 0 1 94.258.006 57.875 57.875 0 0 1 11.073 34.092v29.442a58.2 58.2 0 0 1 -116.408 0z"/><path d="m272.87 255.344a3 3 0 0 0 3-3 7.558 7.558 0 1 1 15.116 0 3 3 0 0 0 6 0 13.558 13.558 0 1 0 -27.116 0 3 3 0 0 0 3 3z"/><path d="m216.56 255.344a3 3 0 0 0 3-3 7.558 7.558 0 1 1 15.116 0 3 3 0 0 0 6 0 13.558 13.558 0 1 0 -27.116 0 3 3 0 0 0 3 3z"/><path d="m235.55 289.775a3 3 0 0 0 0 4.243 27.925 27.925 0 0 0 39.446 0 3 3 0 1 0 -4.243-4.243 21.919 21.919 0 0 1 -30.961 0 3 3 0 0 0 -4.242 0z"/><path d="m213.27 184.548a2.981 2.981 0 0 0 1.915-.693 66.186 66.186 0 0 1 42.209-15.245 3 3 0 0 0 0-6 72.2 72.2 0 0 0 -46.042 16.63 3 3 0 0 0 1.918 5.308z"/><path d="m116.209 382.363a10.139 10.139 0 0 0 4.12 6.641 10.252 10.252 0 0 0 4.123 1.749 10.171 10.171 0 0 0 2.565 3.017 38.911 38.911 0 0 0 13.611 27.569 12.049 12.049 0 0 0 11.921 13.537 12.208 12.208 0 0 0 1.975-.162 11.943 11.943 0 0 0 7.31-4.188 39.158 39.158 0 0 0 39.773-55.4 12.039 12.039 0 0 0 -15.507-17.163 38.85 38.85 0 0 0 -30.913-3.941 10.257 10.257 0 0 0 -3.427-1.306 10.21 10.21 0 0 0 -19.007 6.6l.564 3.436a10.161 10.161 0 0 0 -5.254 7.319l-3.436.564a10.22 10.22 0 0 0 -8.418 11.728zm42.014-13.65a10.144 10.144 0 0 0 1.777-7.613 10.3 10.3 0 0 0 -.53-1.975 32.889 32.889 0 0 1 24.924 4.85 3 3 0 0 0 3.426-.076 6.037 6.037 0 0 1 8.458 8.4 5.742 5.742 0 0 1 -.4.5 3 3 0 0 0 -.432 3.4 33.158 33.158 0 0 1 -34.556 48.146 3 3 0 0 0 -3.076 1.476 5.853 5.853 0 0 1 -.34.533 6.036 6.036 0 0 1 -10.671-5.3 3 3 0 0 0 -1.029-3.261 32.936 32.936 0 0 1 -12.536-21.79c.051 0 .1.011.151.011a10.117 10.117 0 0 0 1.647-.135 10.221 10.221 0 0 0 8.42-11.729l-.564-3.435a10.167 10.167 0 0 0 5.254-7.32l3.434-.564a10.139 10.139 0 0 0 6.643-4.118zm-16.077-15.205a4.224 4.224 0 0 1 4.708 2.919 2.993 2.993 0 0 0 2.96 2.124 4.1 4.1 0 0 1 2.57.788 4.21 4.21 0 0 1 -1.773 7.574l-3.272.537c0-.01-.012-.02-.017-.031a10.178 10.178 0 0 0 -.55-1.011c-.066-.108-.14-.21-.21-.315-.153-.23-.313-.453-.484-.67-.087-.109-.175-.216-.266-.322-.182-.212-.373-.414-.572-.611-.089-.087-.174-.177-.266-.262a10.259 10.259 0 0 0 -.931-.765 10.031 10.031 0 0 0 -1.027-.639c-.1-.057-.209-.106-.314-.159-.26-.131-.522-.252-.791-.361-.118-.047-.236-.092-.356-.135-.281-.1-.566-.189-.854-.265-.1-.026-.2-.057-.3-.08a10.235 10.235 0 0 0 -1.191-.21l-.537-3.27a4.213 4.213 0 0 1 3.473-4.836zm-7.436 15.792a4.161 4.161 0 0 1 2.564-1.658 4.3 4.3 0 0 1 .856-.086h.046a4.1 4.1 0 0 1 .717.077c.075.015.148.035.222.053a4.136 4.136 0 0 1 .539.176c.07.028.14.054.209.086a4.268 4.268 0 0 1 .679.39 4.211 4.211 0 0 1 .65.575 4.193 4.193 0 0 1 .309 5.261 4.167 4.167 0 0 1 -2.568 1.658 4.212 4.212 0 0 1 -.861.086c-.016 0-.032 0-.048 0a4.133 4.133 0 0 1 -2.359-.781 4.3 4.3 0 0 1 -.649-.574 4.192 4.192 0 0 1 -.308-5.261zm-9.109 7.259 3.272-.536c0 .01.012.02.017.031a10.276 10.276 0 0 0 .55 1.01c.067.108.141.212.212.318.152.228.311.45.481.666.088.111.177.219.269.326.18.21.37.41.568.605.089.089.175.18.269.266a9.082 9.082 0 0 0 1.932 1.389c.068.037.135.076.2.112a10.351 10.351 0 0 0 1.029.469c.066.026.133.048.2.072a9.977 9.977 0 0 0 1.076.333c.018 0 .036.011.054.015a10.184 10.184 0 0 0 1.151.2c.039 0 .078.016.118.021l.537 3.272a4.21 4.21 0 0 1 -8.179 1.917 3 3 0 0 0 -2.869-2.125h-.088a4.083 4.083 0 0 1 -2.571-.788 4.211 4.211 0 0 1 1.773-7.575z"/><path d="m148.527 404.734a4.807 4.807 0 1 0 3.126-1.94 4.813 4.813 0 0 0 -3.126 1.94z"/><path d="m174.032 377.451a4.769 4.769 0 0 0 2.792.9 4.926 4.926 0 0 0 .791-.065 4.807 4.807 0 1 0 -3.583-.838z"/><path d="m166.777 412.027a16.012 16.012 0 0 0 18.675-26.015 3 3 0 1 0 -3.5 4.873 10.012 10.012 0 1 1 -11.677 16.267 3 3 0 0 0 -3.5 4.875z"/><path d="m92.564 422.141a2.985 2.985 0 0 0 1.085-.205 54.525 54.525 0 0 0 14.8-8.638 3 3 0 0 0 -3.8-4.645 48.521 48.521 0 0 1 -13.169 7.69 3 3 0 0 0 1.087 5.8z"/><path d="m85.651 332.805a3 3 0 0 0 3-3 4.015 4.015 0 1 1 8.029 0 3 3 0 0 0 6 0 10.015 10.015 0 1 0 -20.029 0 3 3 0 0 0 3 3z"/><path d="m48.239 332.805a3 3 0 0 0 3-3 4.015 4.015 0 0 1 8.03 0 3 3 0 0 0 6 0 10.015 10.015 0 0 0 -20.03 0 3 3 0 0 0 3 3z"/><path d="m60.144 353.962a3 3 0 0 0 0 4.242 19.56 19.56 0 0 0 27.63 0 3 3 0 1 0 -4.242-4.242 13.556 13.556 0 0 1 -19.146 0 3 3 0 0 0 -4.242 0z"/><path d="m46.054 285.769a2.986 2.986 0 0 0 1.916-.693 42.961 42.961 0 0 1 27.4-9.9 3 3 0 0 0 0-6 48.974 48.974 0 0 0 -31.233 11.281 3 3 0 0 0 1.918 5.308z"/><path d="m149.957 129.881a3 3 0 0 0 3-3 6.57 6.57 0 1 1 13.139 0 3 3 0 0 0 6 0 12.57 12.57 0 1 0 -25.139 0 3 3 0 0 0 3 3z"/><path d="m98.921 129.881a3 3 0 0 0 3-3 6.569 6.569 0 1 1 13.138 0 3 3 0 0 0 6 0 12.569 12.569 0 1 0 -25.138 0 3 3 0 0 0 3 3z"/><path d="m124.774 178.033a25.491 25.491 0 0 0 18.851-.151 3 3 0 0 0 -2.255-5.561 19.517 19.517 0 0 1 -14.43.117 3 3 0 1 0 -2.166 5.595z"/></g></svg>