<svg id="Line" height="512" viewBox="0 0 36 36" width="512" xmlns="http://www.w3.org/2000/svg"><path d="m27.878 3.461c-6.915.129-11.732-3.365-15.064-3.302s-10.297 2.11-10.01 17.44 9.744 17.404 13.41 17.336c17.164-.321 23.911-31.703 11.664-31.474z" fill="#f3efef"/><path d="m28.865 1.93h1v2h-1z" fill="#a4afc1"/><path d="m31.115 5.18h2v1h-2z" fill="#a4afc1"/><path d="m26 10.75c-5.059.023-10.47.706-14.329 2.806-8.038 4.375-5.24 13.891 1.312 11.233 4.029-1.634 8.211-2.519 13.017-2.539z" fill="#f3f3f1"/><ellipse cx="26" cy="16.5" fill="#2fdf84" rx="3.25" ry="5.75"/><path d="m26 10.75v.06c-4.37.19-8.79.96-12.08 2.75-6.53 3.55-5.91 10.49-1.94 11.55-5.81 1.35-7.93-7.41-.31-11.55 3.86-2.1 9.27-2.79 14.33-2.81z" fill="#d5dbe1"/><path d="m27.13 21.89c-.35.24-.73.36-1.13.36-1.79 0-3.25-2.57-3.25-5.75s1.46-5.75 3.25-5.75c.4 0 .78.12 1.13.36-1.24.8-2.13 2.91-2.13 5.39s.89 4.59 2.13 5.39z" fill="#00b871"/><path d="m10.792 26c-1.852 0-3.402-.949-4.235-2.711-1.423-3.008-.24-7.672 4.756-10.392 4.333-2.358 10.376-2.877 14.684-2.897l.007 1.5c-5.929.027-10.761.966-13.974 2.714-4.188 2.28-5.247 6.046-4.118 8.433.831 1.754 2.666 2.308 4.789 1.447 4.256-1.726 8.605-2.575 13.296-2.594l.006 1.5c-4.558.019-8.605.808-12.738 2.484-.857.348-1.692.516-2.473.516z"/><path d="m26 23c-2.243 0-4-2.855-4-6.5s1.757-6.5 4-6.5 4 2.855 4 6.5-1.757 6.5-4 6.5zm0-11.5c-1.183 0-2.5 2.053-2.5 5s1.317 5 2.5 5 2.5-2.053 2.5-5-1.317-5-2.5-5z"/><path d="m17.023 16.965-.22-.07c-1.885-.632-3.385-2.031-4.127-3.841l1.388-.568c.577 1.406 1.744 2.494 3.204 2.983l.208.066z"/><path d="m14.882 24.38c-.829-.961-1.977-1.63-3.231-1.885l.244-1.48.05.01c1.583.321 3.029 1.165 4.074 2.376z"/><path d="m25.13 15.97c-.209 0-.42-.028-.63-.085-.829-.226-1.452-.857-1.666-1.688l-.211-.845 1.455-.364.21.84c.077.297.304.528.607.61.143.039.511.095.825-.218l1.061 1.061c-.45.449-1.039.689-1.651.689z"/><path d="m26.443 19.536-1.387-.571.21-.51c.681-1.625 2.468-2.489 4.156-2.017l-.405 1.444c-.958-.27-1.979.223-2.366 1.147z"/></svg>