<svg id="Line" height="512" viewBox="0 0 36 36" width="512" xmlns="http://www.w3.org/2000/svg"><path d="m4.627 27.171c0-6.917-3.583-11.667-3.583-15s1.916-10.334 17.249-10.334 17.583 9.417 17.583 13.083c.001 17.167-31.249 24.501-31.249 12.251z" fill="#f3efef"/><path d="m15.04 4.772c-.827 0-1.5-.673-1.5-1.5s.673-1.5 1.5-1.5 1.5.673 1.5 1.5-.673 1.5-1.5 1.5zm0-2c-.275 0-.5.224-.5.5s.225.5.5.5.5-.224.5-.5-.225-.5-.5-.5z" fill="#a4afc1"/><path d="m29.25 10.639c-.244.727-.893 1.374-1.484 1.84-.587.464-.763 1.241-.583 1.965.073.292.111.597.111.91 0 2.46-1.037 4.676-2.72 6.29s-4.011 2.606-6.574 2.606c-5.136 0-9.293-3.986-9.293-8.896v-.01c0-.307.038-.609.11-.899.18-.725.005-1.502-.583-1.967-.59-.466-1.24-1.113-1.483-1.84l.977-3.888c.148 1.204 1.407 2.625 3.234 4.158.495.416 1.163.553 1.791.394 3.49-.884 6.987-.884 10.491.008.63.16 1.3.022 1.796-.396 1.823-1.536 3.083-2.961 3.232-4.164z" fill="#f3f3f1"/><path d="m29.25 10.64c-.24.73-.89 1.37-1.48 1.84-.59.46-.77 1.24-.59 1.96.08.3.11.6.11.91 0 .48-.04.94-.12 1.4h-2.22c-1.26 0-2.49-.43-3.47-1.22-1.02-.81-2.25-1.21-3.48-1.21s-2.46.4-3.48 1.21c-.98.79-2.21 1.22-3.47 1.22h-2.22c-.08-.45-.12-.92-.12-1.4v-.01c0-.3.03-.6.11-.89.18-.73 0-1.51-.59-1.97-.59-.47-1.24-1.11-1.48-1.84l.98-3.89c.15 1.2 1.41 2.63 3.23 4.16.5.41 1.16.55 1.79.39 3.49-.88 6.99-.88 10.49.01.63.16 1.3.02 1.8-.4 1.82-1.53 3.08-2.96 3.23-4.16z" fill="#2fdf84"/><path d="m22.17 23.44c-1.535 1.307-2.42 3.972-2.42 5.988v.572h-3.5v-.572c0-2.016-.885-4.681-2.42-5.988z" fill="#f3f3f1"/><path d="m19.12 24.21c-.37.05-.74.07-1.12.07-4.9 0-8.9-3.63-9.26-8.22.02.24.05.46.09.69h2.22.02c.63 3.91 3.91 6.98 8.05 7.46z" fill="#d5dbe1"/><path d="m10.96 15.34v.01c0 .48.04.95.12 1.4h-2.25c-.08-.45-.12-.92-.12-1.4v-.01c0-.3.03-.6.11-.89.18-.73 0-1.51-.59-1.97-.59-.47-1.24-1.11-1.48-1.84l.98-3.89c.1.79.68 1.68 1.59 2.63l-.32 1.26c.24.73.89 1.37 1.48 1.84.59.46.77 1.24.59 1.97-.08.29-.11.59-.11.89z" fill="#00b871"/><path d="m17 30h-1.5v-1.322c0-1.799-.786-3.5-2.156-4.667l-.571-.486.973-1.142.571.486c1.704 1.452 2.683 3.569 2.683 5.809z"/><path d="m20.5 30h-1.5v-1.322c0-2.24.979-4.357 2.684-5.809l.571-.486.973 1.142-.571.486c-1.37 1.167-2.156 2.868-2.156 4.667v1.322z"/><path d="m18 25c-5.538 0-10.044-4.327-10.044-9.646 0-.373.045-.736.133-1.089.095-.381.06-.896-.32-1.197-.897-.708-1.479-1.445-1.729-2.19l1.421-.478c.153.458.581.973 1.237 1.49.786.622 1.11 1.67.846 2.736-.059.235-.088.477-.088.718 0 4.501 3.833 8.156 8.544 8.156 2.293 0 4.443-.851 6.055-2.397 1.605-1.539 2.489-3.581 2.489-5.749 0-.247-.03-.492-.089-.728-.265-1.067.06-2.115.847-2.736.656-.519 1.084-1.034 1.237-1.491l1.422.478c-.25.743-.831 1.48-1.729 2.19-.381.301-.415.815-.321 1.196.089.353.134.72.134 1.09 0 2.581-1.048 5.007-2.95 6.832-1.894 1.815-4.413 2.815-7.095 2.815z"/><path d="m23.758 12.125c-.232 0-.468-.029-.699-.088-3.36-.855-6.767-.857-10.121-.007-.871.219-1.787.015-2.458-.546-2.226-1.869-3.336-3.344-3.496-4.643l1.488-.183c.107.874 1.107 2.11 2.972 3.675.303.255.727.344 1.124.242 3.6-.911 7.256-.909 10.86.008.408.104.826.012 1.127-.242 1.863-1.57 2.863-2.809 2.972-3.683l1.488.185c-.161 1.297-1.271 2.773-3.493 4.646-.492.414-1.12.636-1.764.636z"/><path d="m27 17.5h-2.048c-1.428 0-2.828-.491-3.944-1.383-1.771-1.417-4.245-1.417-6.015 0-1.117.893-2.518 1.384-3.945 1.384h-2.048v-1.501h2.048c1.089 0 2.157-.375 3.009-1.055 2.32-1.857 5.565-1.858 7.888 0 .85.68 1.918 1.055 3.007 1.055h2.048z"/></svg>