<svg id="Line" height="512" viewBox="0 0 36 36" width="512" xmlns="http://www.w3.org/2000/svg"><path d="m34.888 20.695c-3.693-5.848-3.199-11.778-4.979-14.596s-7.138-7.714-20.103.473-9.84 17.35-7.882 20.45c9.166 14.516 39.504 4.031 32.964-6.327z" fill="#f3efef"/><g fill="#a4afc1"><path d="m5.199 2.189h2v1h-2z" transform="matrix(.707 -.707 .707 .707 -.086 5.171)"/><path d="m1.133 6.255h2v1h-2z" transform="matrix(.707 -.707 .707 .707 -4.152 3.487)"/><path d="m1.633 1.512h1v2h-1z" transform="matrix(.707 -.707 .707 .707 -1.152 2.244)"/></g><path d="m11.25 6h13.5v24h-13.5z" fill="#f3f3f1"/><path d="m24.75 6h3.5v24h-3.5z" fill="#2fdf84"/><path d="m7.75 6h3.5v24h-3.5z" fill="#2fdf84"/><path d="m11.25 6.75h2.25v22.5h-2.25z" fill="#d5dbe1"/><path d="m7 6h1.5v24h-1.5z"/><path d="m27.5 6h1.5v24h-1.5z"/><path d="m24 6h1.5v24h-1.5z"/><path d="m10.5 6h1.5v24h-1.5z"/><circle cx="20.5" cy="10.5" r="1.5"/><circle cx="20.5" cy="22.5" r="1.5"/><circle cx="15.5" cy="26.5" r="1.5"/><circle cx="16.5" cy="16.5" r="1.5"/><path d="m22 16.5h-1.5v-.75c0-.138-.112-.25-.25-.25h-.75v-1.5h.75c.965 0 1.75.785 1.75 1.75z"/><path d="m20.25 29h-.75v-1.5h.75c.138 0 .25-.112.25-.25v-.75h1.5v.75c0 .965-.785 1.75-1.75 1.75z"/><path d="m15.5 23c-.586 0-1.136-.24-1.546-.675l-.514-.546 1.091-1.029.515.545c.248.264.66.264.908 0l.515-.545 1.091 1.029-.514.546c-.41.435-.96.675-1.546.675z"/><path d="m15.5 8.5h-1.5v-.75c0-.965.785-1.75 1.75-1.75h.75v1.5h-.75c-.138 0-.25.112-.25.25z"/><path d="m15.25 13h-.75v-1.5h.75c.138 0 .25-.112.25-.25v-.75h1.5v.75c0 .965-.785 1.75-1.75 1.75z"/></svg>