<svg id="Line" height="512" viewBox="0 0 36 36" width="512" xmlns="http://www.w3.org/2000/svg"><path d="m8.324 5.111c-1.805 6.677-6.504 10.327-7.374 13.545s-.847 10.476 13.955 14.477 19.432-4.501 20.388-8.041c4.481-16.571-23.772-31.806-26.969-19.981z" fill="#f3efef"/><path d="m9.734 11c-.827 0-1.5-.673-1.5-1.5s.673-1.5 1.5-1.5 1.5.673 1.5 1.5-.672 1.5-1.5 1.5zm0-2c-.276 0-.5.224-.5.5s.224.5.5.5.5-.224.5-.5-.224-.5-.5-.5z" fill="#a4afc1"/><path d="m19.008 16.362c-.532-.92-.223-1.722.772-2.108 2.426-.941 3.591-2.703 3.448-5.351-.038-.705.229-1.088.823-1.383.881-.438 1.828-.637 2.777-.752 1.198-.146 1.761.666 1.211 1.744-.485.95-1.074 1.85-1.63 2.764-1.01 1.659-1.805 3.392-2.1 5.321-.186 1.211-.913 1.747-2.142 1.642-1.639-.142-2.559-.84-3.159-1.877z" fill="#2fdf84"/><path d="m19.138 21.443c.351 1.026-.139 1.75-1.247 1.911-2.699.392-4.276 1.874-4.695 4.52-.112.705-.468 1.024-1.143 1.184-1.001.237-2.018.224-3.021.128-1.264-.121-1.671-1.047-.874-1.99.702-.831 1.501-1.589 2.27-2.368 1.395-1.414 2.584-2.95 3.301-4.789.45-1.154 1.313-1.523 2.556-1.147 1.659.501 2.457 1.393 2.853 2.551z" fill="#f3f3f1"/><path d="m27.83 6.93c-.61.12-1.21.3-1.78.59-.59.29-.86.68-.82 1.38.14 2.65-1.02 4.41-3.45 5.35-1 .39-1.3 1.19-.77 2.11.48.84 1.18 1.46 2.29 1.73-.31.14-.69.19-1.13.15-1.64-.14-2.56-.84-3.16-1.88-.53-.92-.23-1.72.77-2.11 2.43-.94 3.59-2.7 3.45-5.35-.04-.7.23-1.09.82-1.38.88-.44 1.83-.64 2.78-.75.42-.05.76.01 1 .16z" fill="#00b871"/><path d="m16.55 18.98c-.35.2-.62.55-.82 1.06-.72 1.84-1.91 3.37-3.3 4.79-.77.78-1.57 1.53-2.27 2.37-.8.94-.39 1.86.87 1.99.06.01.11.01.17.01-.72.08-1.45.05-2.17-.01-1.26-.13-1.67-1.05-.87-1.99.7-.84 1.5-1.59 2.27-2.37 1.39-1.42 2.58-2.95 3.3-4.79.45-1.16 1.31-1.52 2.56-1.15.09.03.18.06.26.09z" fill="#d5dbe1"/><path d="m24.75 22.689h1.5v3.621h-1.5z" transform="matrix(.707 -.707 .707 .707 -9.855 25.207)"/><path d="m25 20.5h3v1.5h-3z"/><path d="m21.5 24h1.5v3h-1.5z"/><path d="m22.448 19c-.112 0-.228-.005-.346-.015-1.73-.148-2.955-.883-3.744-2.247-.466-.805-.394-1.456-.252-1.86.145-.412.505-.976 1.402-1.323 2.151-.834 3.095-2.299 2.97-4.611-.052-.97.353-1.656 1.238-2.095 1.092-.543 2.247-.731 3.02-.825.855-.103 1.57.161 1.964.726.396.566.398 1.333.005 2.104-.385.754-.831 1.475-1.263 2.173l-.394.64c-1.118 1.837-1.754 3.44-2 5.045-.224 1.468-1.164 2.288-2.6 2.288zm4.649-11.5c-.054 0-.114.004-.179.012-1.069.13-1.851.34-2.534.68-.356.176-.428.295-.408.67.161 2.969-1.16 5.019-3.925 6.091-.284.11-.472.26-.529.422-.072.205.054.471.135.611.547.946 1.317 1.396 2.573 1.504.851.07 1.212-.201 1.336-1.008.277-1.807.977-3.585 2.201-5.597l.4-.649c.416-.672.846-1.366 1.203-2.065.144-.281.153-.489.102-.563-.04-.058-.17-.108-.375-.108z"/><path d="m10.258 30c-.49 0-.935-.033-1.297-.068-.902-.086-1.573-.513-1.842-1.171-.262-.642-.091-1.389.467-2.049s1.172-1.273 1.766-1.866l.542-.544c1.544-1.566 2.541-3.007 3.137-4.535.586-1.502 1.85-2.083 3.473-1.592 1.732.524 2.826 1.514 3.343 3.026.304.887.1 1.513-.125 1.881-.233.381-.722.868-1.722 1.014-2.406.349-3.696 1.587-4.062 3.895-.154.973-.714 1.561-1.711 1.796-.683.162-1.361.213-1.969.213zm5.171-10.501c-.551 0-.811.327-1 .812-.672 1.724-1.773 3.327-3.466 5.043l-.551.552c-.572.571-1.164 1.162-1.68 1.773-.201.237-.256.433-.223.515.027.067.187.205.596.244 1.135.109 1.992.075 2.776-.111.438-.104.52-.221.575-.571.47-2.969 2.263-4.7 5.328-5.145.326-.047.566-.161.658-.312.11-.179.039-.461-.014-.614-.36-1.051-1.087-1.691-2.359-2.076-.249-.075-.46-.11-.64-.11z"/></svg>