<svg id="Line" height="512" viewBox="0 0 36 36" width="512" xmlns="http://www.w3.org/2000/svg"><path d="m27.878 3.461c-6.915.129-11.732-3.365-15.064-3.302s-10.297 2.11-10.01 17.44 9.744 17.404 13.41 17.336c17.164-.321 23.911-31.703 11.664-31.474z" fill="#f3efef"/><g fill="#a4afc1"><path d="m5.855 1.705h2v1h-2z" transform="matrix(.707 -.707 .707 .707 .449 5.493)"/><path d="m1.79 5.771h2v1h-2z" transform="matrix(.707 -.707 .707 .707 -3.617 3.809)"/><path d="m2.29 1.028h1v2h-1z" transform="matrix(.707 -.707 .707 .707 -.617 2.566)"/></g><path d="m26.796 16.208c-2.765-1.861-4.48-4.584-5.263-7.91-.213-.904-1.006-1.548-1.936-1.548-2.717 0-9.845 0-9.845 0-.725 0-1.209.745-.915 1.406 1.538 3.456 1.834 7.337.837 10.986l-.044.163c-.78 2.857-.752 5.862.065 8.535.257.841 1.044 1.41 1.923 1.41h8.625c1.105 0 2-.895 2-2v-4l-.047-.047c2.847-.348 5.054-2.769 5.054-5.71v-.455c0-.336-.175-.643-.454-.83z" fill="#f3f3f1"/><path d="m13.87 29.25h-2.25c-.88 0-1.67-.57-1.92-1.41-.82-2.67-.85-5.68-.07-8.54l.04-.16c.39-1.42.58-2.88.58-4.34 0-2.27-.47-4.54-1.41-6.64-.3-.67.19-1.41.91-1.41h2.25c-.72 0-1.21.74-.91 1.41.94 2.1 1.41 4.37 1.41 6.64 0 1.46-.19 2.92-.58 4.34l-.04.16c-.78 2.86-.75 5.87.07 8.54.25.84 1.04 1.41 1.92 1.41z" fill="#d5dbe1"/><path d="m24.802 18.209c-1.376 0-2.582-.537-3.659-2.018l1.213-.882c1.092 1.502 2.227 1.738 4.67.975l.447 1.432c-.957.299-1.845.493-2.671.493z"/><path d="m22.49 20.369-1.48-.238c.221-1.375.954-2.543 2.178-3.469l.905 1.196c-.918.695-1.443 1.516-1.603 2.511z"/><path d="m20.243 30h-8.625c-1.206 0-2.291-.798-2.64-1.941-.857-2.803-.882-5.982-.072-8.952l.045-.163c.948-3.471.664-7.194-.799-10.483-.241-.543-.193-1.165.131-1.664s.874-.797 1.469-.797h9.845c1.275 0 2.371.874 2.666 2.126.765 3.254 2.431 5.764 4.952 7.46.492.331.785.873.785 1.451v.456c0 3.072-2.14 5.653-5.007 6.333v3.425c0 1.516-1.234 2.749-2.75 2.749zm-10.491-22.5c-.119 0-.184.072-.211.114-.027.043-.066.13-.019.238 1.604 3.604 1.915 7.684.876 11.489l-.045.163c-.737 2.699-.716 5.583.06 8.118.158.518.654.879 1.206.879h8.625c.689 0 1.25-.561 1.25-1.25v-3.251c-3.588 0-6.507-2.919-6.507-6.507v-.743h1.5v.743c0 2.761 2.246 5.007 5.007 5.007s5.007-2.246 5.007-5.007v-.456c0-.078-.046-.155-.123-.207-2.844-1.914-4.719-4.727-5.574-8.36-.135-.571-.63-.97-1.206-.97z"/></svg>