<svg id="Line" height="512" viewBox="0 0 36 36" width="512" xmlns="http://www.w3.org/2000/svg"><path d="m8.837 3.964c6.917 0 11.667-3.583 15-3.583s10.333 1.916 10.333 17.25-9.417 17.583-13.083 17.583c-17.167 0-24.5-31.25-12.25-31.25z" fill="#f3efef"/><g fill="#a4afc1"><path d="m4.822 1.982h2v1h-2z" transform="matrix(.707 -.707 .707 .707 -.05 4.844)"/><path d="m.757 6.047h2v1h-2z" transform="matrix(.707 -.707 .707 .707 -4.115 3.16)"/><path d="m1.257 1.305h1v2h-1z" transform="matrix(.707 -.707 .707 .707 -1.115 1.917)"/></g><path d="m15.554 29.25c0-1.168-.748-2.206-1.856-2.575l-1.079-.36.429-2.882c.386-2.596 1.462-5.041 3.115-7.08l.036-.044c.929-1.147 2.678-1.151 3.612-.008 1.695 2.072 2.791 4.568 3.17 7.217l.4 2.797-.522.087c-1.392.232-2.412 1.436-2.412 2.848h7.826l.05-.151c.457-1.37-.563-2.784-2.007-2.784l-1.216-5.467c-.484-2.179-1.58-4.176-3.159-5.754-1.584-1.584-2.474-3.733-2.474-5.973v-2.371h-2.935v2.371c0 2.24-.89 4.389-2.474 5.973-1.579 1.579-2.674 3.575-3.159 5.754l-1.215 5.467c-1.481.296-2.639 1.454-2.935 2.935z" fill="#f3f3f1"/><path d="m16.53 6.75h1.75v2.37c0 2.24-.89 4.39-2.47 5.97s-2.68 3.58-3.16 5.76l-1.22 5.47c-.74.14-1.4.51-1.91 1.02s-.87 1.17-1.02 1.91h-1.75c.15-.74.51-1.4 1.02-1.91s1.17-.88 1.91-1.02l1.22-5.47c.48-2.18 1.58-4.18 3.16-5.76s2.47-3.73 2.47-5.97z" fill="#d5dbe1"/><path d="m7.485 29.397-1.471-.294c.323-1.618 1.491-2.906 3.037-3.398l1.115-5.02c.517-2.323 1.679-4.44 3.361-6.122 1.453-1.454 2.254-3.387 2.254-5.443v-2.37h1.5v2.371c0 2.457-.956 4.767-2.693 6.503-1.48 1.48-2.503 3.343-2.957 5.387l-1.215 5.467c-.064.29-.294.515-.585.573-1.187.237-2.108 1.158-2.346 2.346z"/><path d="m28.982 29.49-1.422-.479.051-.15c.14-.419.071-.867-.188-1.228s-.663-.567-1.107-.567c-.352 0-.656-.244-.732-.587l-1.215-5.467c-.454-2.044-1.477-3.907-2.957-5.387-1.737-1.737-2.693-4.046-2.693-6.503v-2.372h1.5v2.371c0 2.056.801 3.989 2.254 5.443 1.683 1.682 2.845 3.799 3.361 6.122l1.099 4.945c.683.147 1.286.54 1.708 1.125.545.756.688 1.697.395 2.582z"/><path d="m21.195 29.25h-1.5c0-1.717 1.183-3.178 2.839-3.548l-.296-2.078c-.358-2.514-1.398-4.882-3.007-6.848-.302-.369-.747-.58-1.223-.58-.002 0-.003 0-.004 0-.478.001-.923.214-1.223.584-1.604 1.979-2.626 4.302-2.991 6.763l-.337 2.259.481.161c1.417.473 2.369 1.793 2.369 3.287h-1.5c0-.847-.54-1.596-1.344-1.864l-1.079-.359c-.346-.115-.559-.462-.505-.822l.43-2.882c.405-2.726 1.537-5.3 3.273-7.442.622-.767 1.491-1.182 2.421-1.184h.008c.927 0 1.795.411 2.383 1.129 1.782 2.179 2.935 4.802 3.331 7.586l.399 2.797c.058.403-.217.779-.619.846l-.521.087c-1.034.172-1.785 1.059-1.785 2.108z"/><path d="m22.892 24.13h-1.236c-1.636 0-3.105-.909-3.837-2.371l1.342-.671c.476.951 1.432 1.542 2.495 1.542h1.236z"/><path d="m8.399 22.738-1.342-.671c.731-1.462 2.201-2.371 3.836-2.371l.014 1.5h-.014c-1.062 0-2.018.591-2.494 1.542z"/><path d="m27.601 21.759c-.533-1.066-1.487-1.895-2.619-2.272l-.86-.287.475-1.423.86.287c1.506.502 2.776 1.604 3.486 3.024z"/><path d="m27.249 19.518-1.379-.591c.564-1.316 1.854-2.167 3.286-2.167l.094 1.5c-.925.001-1.674.494-2.001 1.258z"/><path d="m9.456 21.179h-1.5c0-.77-.428-1.462-1.116-1.807l-.425-.212.67-1.342.426.212c1.2.601 1.945 1.808 1.945 3.149z"/><path d="m15.025 28.015-.41-1.442.302-.086c.509-.146.865-.619.865-1.149h1.5c0 1.197-.804 2.263-1.954 2.592z"/><path d="m11.413 29.25h-1.5c0-.812-.238-1.597-.688-2.272l-.164-.246 1.248-.832.164.246c.615.922.94 1.995.94 3.104z"/><path d="m25.108 29.25h-1.5c0-1.493.829-2.835 2.165-3.502l.208-.104.668 1.343-.207.103c-.822.411-1.334 1.239-1.334 2.16z"/></svg>