<svg id="Line" height="512" viewBox="0 0 36 36" width="512" xmlns="http://www.w3.org/2000/svg"><path d="m13.871 35.354c6.298-2.859 12.105-1.559 15.14-2.936 3.035-1.378 8.617-6.016 2.28-19.978s-15.841-12.121-19.18-10.605c-15.632 7.094-9.395 38.581 1.76 33.519z" fill="#f3efef"/><path d="m28.529 5.946c-.827 0-1.5-.673-1.5-1.5s.673-1.5 1.5-1.5 1.5.673 1.5 1.5-.673 1.5-1.5 1.5zm0-2c-.276 0-.5.224-.5.5s.224.5.5.5.5-.224.5-.5-.224-.5-.5-.5z" fill="#a4afc1"/><path d="m22.75 12.75h6.5v16.5h-22.5v-16.5h6.5z" fill="#f3f3f1"/><path d="m21.25 6.75c-4.043 3.687-6.546 8.9-6.499 13.211.014 1.263.999 2.289 2.219 2.289 1.418 0 2.424-1.354 2.148-2.794-.711-3.712.302-8.828 2.132-12.706z" fill="#2fdf84"/><path d="m6.75 12.75h2.25v16.5h-2.25z" fill="#d5dbe1"/><path d="m19.91 10.27c-2.19 3.1-3.45 6.62-3.41 9.69.01.94.56 1.75 1.34 2.1-.26.12-.56.19-.87.19-1.22 0-2.21-1.03-2.22-2.29-.05-4.31 2.46-9.52 6.5-13.21-.52 1.09-.97 2.29-1.34 3.52z" fill="#00b871"/><path d="m6.75 12h6.5v1.5h-6.5z"/><path d="m6.75 28.5h22.5v1.5h-22.5z"/><path d="m22.75 12h6.5v1.5h-6.5z"/><path d="m16.97 23c-1.619 0-2.951-1.359-2.969-3.031-.05-4.585 2.597-9.991 6.744-13.773.266-.241.663-.261.951-.049.288.213.385.6.232.924-1.88 3.983-2.713 8.904-2.073 12.245.181.948-.058 1.906-.656 2.629-.555.67-1.367 1.055-2.229 1.055zm2.19-12.841c-2.317 3.075-3.693 6.656-3.659 9.793.009.853.668 1.547 1.469 1.547.419 0 .8-.182 1.073-.512.312-.377.436-.884.338-1.391-.51-2.663-.201-6.104.779-9.437z"/><path d="m17.054 26c-1.568 0-3.054-.605-4.208-1.722-1.229-1.188-1.927-2.835-1.914-4.519l.017-2.088c.004-.547-.38-.819-.546-.91-.373-.205-.808-.191-1.163.038l-2.083 1.339-.812-1.262 2.083-1.339c.815-.524 1.848-.56 2.699-.09.835.46 1.33 1.296 1.322 2.235l-.017 2.088c-.01 1.275.521 2.525 1.456 3.429.918.887 2.118 1.359 3.357 1.296 1.154-.047 2.245-.511 3.072-1.306.859-.842 1.335-1.961 1.335-3.146v-1.673c0-.78.344-1.514.944-2.013.743-.619 1.9-1.357 3.19-1.357.634 0 1.235.181 1.787.539l2.082 1.338-.812 1.262-2.083-1.339c-.306-.2-.633-.3-.973-.3-.886 0-1.778.632-2.23 1.009-.257.214-.404.528-.404.861v1.674c0 1.59-.636 3.09-1.791 4.222-1.096 1.054-2.535 1.667-4.055 1.729-.084.003-.169.005-.253.005z"/><circle cx="8" cy="21" r="1"/><circle cx="9.25" cy="26" r="1"/><circle cx="28" cy="24" r="1"/><circle cx="23" cy="26" r="1"/><circle cx="26" cy="20" r="1"/></svg>