<svg id="Line" height="512" viewBox="0 0 36 36" width="512" xmlns="http://www.w3.org/2000/svg"><path d="m28.128 3.461c-6.915.129-11.732-3.365-15.064-3.302s-10.297 2.11-10.01 17.44 9.744 17.404 13.41 17.336c17.164-.321 23.911-31.703 11.664-31.474z" fill="#f3efef"/><path d="m31.971 16.105c-.827 0-1.5-.673-1.5-1.5s.673-1.5 1.5-1.5 1.5.673 1.5 1.5-.673 1.5-1.5 1.5zm0-2c-.276 0-.5.224-.5.5s.224.5.5.5.5-.224.5-.5-.224-.5-.5-.5z" fill="#a4afc1"/><path d="m24.25 25v-11c0-4.004-3.246-7.25-7.25-7.25h-1.49c-3.181 0-5.76 2.579-5.76 5.76 0 1.594.633 3.123 1.76 4.25l1.316 1.316c1.872 1.872 2.924 4.411 2.924 7.058 0 2.273 1.843 4.115 4.115 4.115h.135c2.347.001 4.25-1.902 4.25-4.249z" fill="#f3f3f1"/><path d="m21.07 29.11c-.34.09-.7.14-1.07.14h-.13c-1.14 0-2.17-.46-2.91-1.21-.75-.74-1.21-1.77-1.21-2.91 0-2.64-1.05-5.18-2.92-7.05l-1.32-1.32c-1.13-1.13-1.76-2.66-1.76-4.25 0-3.18 2.58-5.76 5.76-5.76h1.49c.12 0 .25 0 .37.02-3 .19-5.37 2.69-5.37 5.74 0 1.59.63 3.12 1.76 4.25l1.32 1.32c1.87 1.87 2.92 4.41 2.92 7.05 0 1.14.46 2.17 1.2 2.91.51.51 1.15.89 1.87 1.07z" fill="#d5dbe1"/><path d="m20 30h-.135c-2.682 0-4.865-2.183-4.865-4.865 0-2.466-.96-4.784-2.704-6.528l-1.316-1.316c-1.277-1.277-1.98-2.975-1.98-4.781 0-3.59 2.92-6.51 6.51-6.51h1.49c4.411 0 8 3.589 8 8v11c0 2.757-2.243 5-5 5zm-4.49-22.5c-2.763 0-5.01 2.248-5.01 5.01 0 1.405.547 2.726 1.541 3.72l1.316 1.316c2.027 2.027 3.143 4.722 3.143 7.588 0 1.855 1.51 3.365 3.365 3.365h.135c1.93 0 3.5-1.57 3.5-3.5v-10.999c0-3.584-2.916-6.5-6.5-6.5z"/><path d="m20 17.25h-1.5v-.242c0-.79.207-1.569.599-2.255.263-.459.401-.981.401-1.511 0-.96-.782-1.742-1.742-1.742h-.508c-1.517 0-2.75 1.233-2.75 2.75h-1.5c0-2.343 1.907-4.25 4.25-4.25h.508c1.787 0 3.242 1.455 3.242 3.242 0 .79-.207 1.569-.599 2.255-.262.46-.401.982-.401 1.511z"/></svg>