<svg id="Line" height="512" viewBox="0 0 36 36" width="512" xmlns="http://www.w3.org/2000/svg"><path d="m8.837 4.521c6.917 0 11.667-3.583 15-3.583s10.333 1.916 10.333 17.25-9.417 17.583-13.083 17.583c-17.167 0-24.5-31.25-12.25-31.25z" fill="#f3efef"/><g fill="#a4afc1"><path d="m29.474 6.15h1v2h-1z" transform="matrix(.707 -.707 .707 .707 3.723 23.289)"/><path d="m25.408 2.085h1v2h-1z" transform="matrix(.707 -.707 .707 .707 5.407 19.223)"/><path d="m29.15 2.585h2v1h-2z" transform="matrix(.707 -.707 .707 .707 6.65 22.223)"/></g><path d="m29.249 25.88c-5.434 1.082-11.297-.488-13.319-1.18-.515-.176-1.05-.244-1.585-.215-1.973.078-2.936-1.024-2.489-2.984.243-1.043.282-2.116.262-3.179-.039-2.828.583-7.927 1.575-11.574h3.889c1.438 3.9 2.43 8.775.972 12.675l.36-1.18c2.829-1.589 7.087-1.853 10.334-.722v8.359z" fill="#f3f3f1"/><path d="m26.4 26.22c-4.5.22-8.8-.95-10.47-1.52-.51-.18-1.05-.24-1.58-.21-1.98.07-2.94-1.03-2.49-2.99.24-1.04.28-2.11.26-3.18-.04-2.82.58-7.92 1.57-11.57h2.25c-.99 3.65-1.61 8.75-1.57 11.57.02 1.07-.02 2.14-.26 3.18-.45 1.96.51 3.06 2.49 2.99.53-.03 1.07.03 1.58.21 1.39.47 4.59 1.36 8.22 1.52z" fill="#d5dbe1"/><path d="m19.258 19.688-1.404-.525c1.459-3.904.276-8.764-.974-12.154l1.408-.519c1.337 3.628 2.591 8.863.97 13.198z"/><path d="m19.282 18.899-.734-1.308c2.969-1.668 7.472-1.988 10.948-.775l-.494 1.416c-3.098-1.079-7.096-.806-9.72.667z"/><path d="m25.24 27.003c-4.602 0-8.614-1.273-9.553-1.594-.413-.141-.855-.201-1.3-.175-1.562.062-2.369-.515-2.78-1.008-.408-.492-.823-1.393-.481-2.891.246-1.055.26-2.156.244-2.998-.038-2.761.551-7.921 1.602-11.784l1.447.394c-1.017 3.735-1.586 8.713-1.549 11.367.017.925 0 2.146-.282 3.359-.112.494-.175 1.175.174 1.595.353.424 1.031.488 1.556.468.626-.032 1.259.05 1.855.254.705.242 7.057 2.322 12.93 1.154l.293 1.471c-1.394.278-2.8.388-4.156.388z"/><path d="m6.905 26.25h2.249v1.5h-2.249z" transform="matrix(.745 -.667 .667 .745 -15.958 12.232)"/><path d="m11 27h1.5v3h-1.5z"/><path d="m6 22.5h3v1.5h-3z"/></svg>