<svg id="Line" height="512" viewBox="0 0 36 36" width="512" xmlns="http://www.w3.org/2000/svg"><path d="m8.837 3.714c6.917 0 11.667-3.583 15-3.583s10.333 1.916 10.333 17.25-9.417 17.583-13.083 17.583c-17.167 0-24.5-31.25-12.25-31.25z" fill="#f3efef"/><path d="m2.457 5.191c-.827 0-1.5-.673-1.5-1.5s.673-1.5 1.5-1.5 1.5.673 1.5 1.5-.673 1.5-1.5 1.5zm0-2c-.275 0-.5.224-.5.5s.225.5.5.5.5-.224.5-.5-.225-.5-.5-.5z" fill="#a4afc1"/><path d="m24.68 15.18c1.61.326 2.96.775 4.57 1.346v11.608l-2.086-1.077c-1.107-.571-2.438-.402-3.377.429-1.095.969-2.694 1.023-3.847.129l-.094-.073c-1.094-.847-2.597-.847-3.691 0l-.094.073c-1.153.893-2.753.839-3.847-.129-.94-.832-2.27-1.001-3.377-.429l-2.087 1.076v-11.607c1.08-.387 1.91-.714 2.99-.979 0 0 7.981-1.807 14.94-.367z" fill="#f3f3f1"/><path d="m14.25 7.75c-2.799 2.735-4.532 6.603-4.5 9.802.01.937.691 1.698 1.536 1.698.981 0 1.678-1.005 1.487-2.073-.491-2.754.21-6.55 1.477-9.427z" fill="#2fdf84"/><path d="m26.25 7.75c-2.799 2.735-4.532 6.603-4.5 9.802.01.937.691 1.698 1.536 1.698.981 0 1.678-1.005 1.487-2.073-.491-2.754.21-6.55 1.477-9.427z" fill="#2fdf84"/><path d="m10.49 15.79c-1.08.26-.41.58-1.49.96v10.26c-.06.02-.11.04-.16.07l-2.09 1.06v-11.39c1.08-.38 1.91-.7 2.99-.96z" fill="#d5dbe1"/><path d="m13.169 11.12c-1.22 2.1-1.91 4.4-1.89 6.43.01.63.32 1.18.78 1.47-.22.15-.47.23-.74.23-.85 0-1.53-.76-1.54-1.7-.03-3.2 1.7-7.06 4.5-9.8-.46 1.03-.84 2.19-1.11 3.37z" fill="#00b871"/><path d="m25.169 11.12c-1.22 2.1-1.91 4.4-1.89 6.43.01.63.32 1.18.78 1.47-.22.15-.47.23-.74.23-.85 0-1.53-.76-1.54-1.7-.03-3.2 1.7-7.06 4.5-9.8-.46 1.03-.84 2.19-1.11 3.37z" fill="#00b871"/><path d="m29.004 17.458c-1.484-.517-2.846-.97-4.471-1.292l.293-1.472c1.719.342 3.132.812 4.67 1.347z"/><path d="m12.811 15.92-.24-1.48c3.157-.513 6.34-.579 9.462-.194l-.184 1.489c-2.977-.368-6.02-.304-9.038.185z"/><path d="m6.999 17.458-.498-1.415.513-.182c.864-.308 1.61-.574 2.551-.8l.352 1.458c-.864.208-1.575.461-2.399.755z"/><path d="m11.287 20c-1.247 0-2.273-1.095-2.287-2.44-.035-3.445 1.82-7.506 4.726-10.346.258-.251.657-.284.951-.08.296.205.404.59.26.919-1.289 2.929-1.861 6.543-1.424 8.993.141.786-.061 1.572-.549 2.156-.432.514-1.027.798-1.677.798zm.983-8.479c-1.137 1.965-1.789 4.108-1.77 6.024.006.527.358.956.787.956.254 0 .427-.143.526-.262.2-.239.283-.587.223-.929-.296-1.658-.199-3.713.234-5.789z"/><path d="m23.287 20c-1.247 0-2.273-1.095-2.287-2.44-.035-3.445 1.82-7.506 4.726-10.346.258-.251.658-.284.951-.08.296.205.404.59.26.919-1.289 2.929-1.861 6.543-1.424 8.993.141.786-.061 1.572-.549 2.156-.432.514-1.027.798-1.677.798zm.983-8.479c-1.137 1.965-1.789 4.108-1.77 6.024.006.527.358.956.787.956.254 0 .427-.143.526-.262.2-.239.283-.587.223-.929-.296-1.658-.199-3.713.234-5.789z"/><path d="m21.782 28.993c-.81 0-1.619-.255-2.297-.769l-.094-.071c-.818-.622-1.964-.622-2.784 0l-.093.071c-1.423 1.083-3.44 1.016-4.792-.158-.711-.617-1.711-.743-2.548-.318l-2.086 1.057-.678-1.338 2.086-1.057c1.385-.701 3.035-.495 4.209.523.831.722 2.026.761 2.9.096l.094-.071c1.354-1.028 3.245-1.028 4.599 0l.095.071c.874.665 2.068.626 2.901-.096 1.172-1.019 2.823-1.226 4.208-.523l2.086 1.057-.678 1.338-2.086-1.057c-.837-.423-1.837-.298-2.547.318-.709.616-1.601.927-2.495.927z"/><circle cx="17.5" cy="18.5" r="1.5"/><circle cx="14.5" cy="23.5" r="1.5"/><circle cx="7.5" cy="22.5" r="1.5"/><circle cx="21.5" cy="23.5" r="1.5"/><circle cx="28.5" cy="20.5" r="1.5"/></svg>