<svg id="Line" height="512" viewBox="0 0 36 36" width="512" xmlns="http://www.w3.org/2000/svg"><path d="m13.871 34.797c6.298-2.859 12.105-1.559 15.14-2.936 3.035-1.378 8.617-6.016 2.28-19.978s-15.841-12.121-19.18-10.605c-15.632 7.094-9.395 38.581 1.76 33.519z" fill="#f3efef"/><path d="m4.944 9.901c-.827 0-1.5-.673-1.5-1.5s.673-1.5 1.5-1.5 1.5.673 1.5 1.5-.673 1.5-1.5 1.5zm0-2c-.276 0-.5.224-.5.5s.224.5.5.5.5-.224.5-.5-.224-.5-.5-.5z" fill="#a4afc1"/><path d="m29.048 20.707c-7.366-9.277-14.731-9.277-22.097 0-.323.407-.251 1.001.165 1.323 7.256 5.626 14.512 5.626 21.767 0 .416-.322.488-.916.165-1.323z" fill="#f3f3f1"/><circle cx="18" cy="20" fill="#2fdf84" r="3.25"/><path d="m19.13 23.04c-.35.14-.73.21-1.13.21-1.79 0-3.25-1.46-3.25-3.25s1.46-3.25 3.25-3.25c.4 0 .78.07 1.13.21-1.24.45-2.13 1.65-2.13 3.04s.89 2.59 2.13 3.04z" fill="#00b871"/><path d="m9.37 22.03c3.26 2.52 6.5 3.91 9.76 4.17-4 .33-8.01-1.06-12.01-4.17-.42-.32-.49-.92-.17-1.32 4.06-5.11 8.12-7.41 12.18-6.88-3.31.41-6.62 2.71-9.93 6.88-.32.4-.25 1 .17 1.32z" fill="#d5dbe1"/><path d="m18 27c-3.79 0-7.58-1.459-11.343-4.377-.361-.28-.59-.683-.645-1.135-.054-.45.071-.893.352-1.247 7.63-9.61 15.642-9.61 23.271 0 .281.354.406.797.352 1.247-.055.452-.283.854-.645 1.135-3.762 2.919-7.552 4.377-11.342 4.377zm0-12.5c-3.425 0-6.945 2.245-10.461 6.674-.039.049-.042.1-.038.134.004.036.021.088.074.129 7.015 5.44 13.834 5.44 20.849 0 .054-.042.07-.093.074-.129.004-.034.001-.085-.038-.134-3.515-4.429-7.035-6.674-10.46-6.674z"/><path d="m18 24c-2.206 0-4-1.794-4-4s1.794-4 4-4 4 1.794 4 4-1.794 4-4 4zm0-6.5c-1.378 0-2.5 1.122-2.5 2.5s1.122 2.5 2.5 2.5 2.5-1.122 2.5-2.5-1.122-2.5-2.5-2.5z"/><path d="m17.25 9h1.5v2.53h-1.5z"/><path d="m10.33 10.885h1.5v2.56h-1.5z" transform="matrix(.783 -.623 .623 .783 -5.164 9.541)"/><path d="m23.64 11.415h2.56v1.5h-2.56z" transform="matrix(.623 -.783 .783 .623 -.113 24.096)"/><path d="m6.3 14.852h1.5v2.256h-1.5z" transform="matrix(.608 -.794 .794 .608 -9.923 11.858)"/><path d="m27.822 15.23h2.256v1.5h-2.256z" transform="matrix(.794 -.608 .608 .794 -3.749 20.903)"/></svg>