<svg id="Line" height="512" viewBox="0 0 36 36" width="512" xmlns="http://www.w3.org/2000/svg"><path d="m8.324 5.111c-1.805 6.677-6.504 10.327-7.374 13.545s-.847 10.476 13.955 14.477 19.432-4.501 20.388-8.041c4.481-16.571-23.772-31.806-26.969-19.981z" fill="#f3efef"/><g fill="#a4afc1"><path d="m18.223 4.984h2v1h-2z"/><path d="m12.473 4.984h2v1h-2z"/><path d="m15.973 1.484h1v2h-1z"/></g><path d="m19.75 24.75c2.41-2.249 5.583-3.5 8.88-3.5h.62v-6.5h-.62c-3.296 0-6.47-1.251-8.88-3.5z" fill="#2fdf84"/><circle cx="15" cy="18" fill="#f3f3f1" r="8.25"/><path d="m8.07 22.49c.06.01.12.01.18.01 1.66 0 3-2.01 3-4.5s-1.34-4.5-3-4.5c-.06 0-.12 0-.18.01 0 0-3.171 3.723 0 8.98z" fill="#2fdf84"/><path d="m16.101 26.18c-.389.04-.788.07-1.187.07-4.789 0-8.664-3.69-8.664-8.25s3.875-8.25 8.664-8.25c.399 0 .798.03 1.187.07-4.233.55-7.488 4-7.488 8.18s3.256 7.63 7.488 8.18z" fill="#d5dbe1"/><path d="m9.74 21.9c-.44.39-.95.6-1.49.6-.06 0-.12 0-.18-.01-3.17-5.26 0-8.98 0-8.98.06-.01.12-.01.18-.01.52 0 1.01.2 1.44.55-.69 1.15-1.95 4.06.05 7.85z" fill="#00b871"/><path d="m15 27c-4.962 0-9-4.038-9-9s4.038-9 9-9 9 4.038 9 9-4.038 9-9 9zm0-16.5c-4.136 0-7.5 3.364-7.5 7.5s3.364 7.5 7.5 7.5 7.5-3.364 7.5-7.5-3.364-7.5-7.5-7.5z"/><path d="m8.25 23.25c-.1 0-.2-.003-.301-.02l.241-1.48c1.279 0 2.31-1.717 2.31-3.75s-1.03-3.75-2.25-3.75l-.301-1.48c.101-.016.201-.02.301-.02 2.103 0 3.75 2.306 3.75 5.25s-1.647 5.25-3.75 5.25z"/><path d="m29.25 15.5h-.621c-3.499 0-6.833-1.314-9.391-3.702l1.023-1.097c2.28 2.128 5.251 3.299 8.368 3.299h.621z"/><path d="m20.262 25.298-1.023-1.097c2.558-2.387 5.893-3.702 9.391-3.702h.621v1.501h-.621c-3.118 0-6.089 1.171-8.368 3.298z"/><path d="m23.25 19c-3.189 0-6.204-1.69-7.867-4.412l-.273-.447 1.28-.782.273.447c1.393 2.279 3.917 3.694 6.587 3.694z"/><path d="m15.421 18.585-1.342-.671c.584-1.168 1.708-1.951 3.005-2.095l.583-.065.166 1.491-.583.065c-.79.088-1.474.565-1.829 1.275z"/><path d="m15.897 21.985-.294-1.471 1.009-.202c1.361-.272 2.401-1.331 2.65-2.697l1.476.269c-.359 1.975-1.863 3.505-3.832 3.899z"/></svg>