<svg id="Line" height="512" viewBox="0 0 36 36" width="512" xmlns="http://www.w3.org/2000/svg"><path d="m34.864 19.902c-3.782-5.791-3.38-11.727-5.203-14.518s-7.256-7.603-20.093.782-9.572 17.5-7.566 20.569c9.388 14.373 39.561 3.423 32.862-6.833z" fill="#f3efef"/><path d="m29.849 8.771c-.827 0-1.5-.673-1.5-1.5s.673-1.5 1.5-1.5 1.5.673 1.5 1.5-.673 1.5-1.5 1.5zm0-2c-.276 0-.5.224-.5.5s.224.5.5.5.5-.224.5-.5-.224-.5-.5-.5z" fill="#a4afc1"/><path d="m30 20.75s-2.353 0-3.589 0c-.812 0-1.519.502-1.847 1.245-1.55 3.51-5.289 5.644-9.525 5.203-4.272-.445-7.756-3.891-8.23-8.14-.622-5.583 3.752-10.308 9.234-10.308 3.805 0 7.077 2.22 8.509 5.297.336.721 1.033 1.203 1.829 1.203h3.619z" fill="#f3f3f1"/><circle cx="16" cy="18" fill="#2fdf84" r="6.25"/><ellipse cx="11" cy="18" fill="#f3f3f1" rx="1.25" ry="2.25"/><path d="m17.24 27.19c-.71.08-1.45.09-2.2.01-4.27-.45-7.76-3.89-8.23-8.14-.62-5.58 3.75-10.31 9.23-10.31.38 0 .76.02 1.13.07-4.94.59-8.69 5.05-8.11 10.24.47 4.23 3.93 7.66 8.18 8.13z" fill="#d5dbe1"/><path d="m11 15.75c.476 0 .884.484 1.095 1.187.443-2.577 2.461-4.613 5.03-5.081-.365-.066-.74-.106-1.125-.106-3.452 0-6.25 2.798-6.25 6.25 0-1.243.56-2.25 1.25-2.25z" fill="#00b871"/><path d="m12.095 19.063c-.211.704-.62 1.187-1.095 1.187-.69 0-1.25-1.007-1.25-2.25 0 3.452 2.798 6.25 6.25 6.25.385 0 .76-.04 1.125-.106-2.569-.468-4.587-2.504-5.03-5.081z" fill="#00b871"/><path d="m16 25c-3.86 0-7-3.14-7-7s3.14-7 7-7 7 3.14 7 7-3.14 7-7 7zm0-12.5c-3.033 0-5.5 2.467-5.5 5.5s2.467 5.5 5.5 5.5 5.5-2.467 5.5-5.5-2.467-5.5-5.5-5.5z"/><path d="m17.75 21v-1.5c2.289 0 3.75-.888 3.75-1.5s-1.461-1.5-3.75-1.5v-1.5c2.993 0 5.25 1.29 5.25 3s-2.257 3-5.25 3z"/><path d="m16.111 28.003c-.38 0-.764-.02-1.15-.06-4.641-.484-8.383-4.186-8.897-8.803-.321-2.879.56-5.646 2.479-7.79 1.904-2.129 4.639-3.35 7.5-3.35 3.961 0 7.568 2.249 9.189 5.73.221.475.661.77 1.149.77h3.619v1.5h-3.619c-1.078 0-2.039-.627-2.509-1.637-1.375-2.954-4.448-4.863-7.829-4.863-2.436 0-4.763 1.039-6.383 2.851-1.631 1.823-2.378 4.175-2.105 6.624.437 3.921 3.617 7.065 7.562 7.477 3.864.402 7.307-1.465 8.762-4.759.453-1.029 1.447-1.693 2.532-1.693h3.589v1.5h-3.589c-.499 0-.944.306-1.161.798-1.549 3.509-5.133 5.705-9.139 5.705z"/><path d="m21.75 17.25h6.25v1.5h-6.25z"/><path d="m11 21c-1.14 0-2-1.29-2-3s.86-3 2-3 2 1.29 2 3-.86 3-2 3zm-.008-4.501c-.123.04-.492.562-.492 1.501s.369 1.461.508 1.501c.123-.04.492-.562.492-1.501s-.369-1.461-.508-1.501z"/></svg>