<svg id="Line" height="512" viewBox="0 0 36 36" width="512" xmlns="http://www.w3.org/2000/svg"><path d="m14.121 34.547c6.298-2.859 12.105-1.559 15.14-2.936 3.035-1.378 8.617-6.016 2.28-19.978s-15.841-12.121-19.18-10.605c-15.632 7.094-9.395 38.581 1.76 33.519z" fill="#f3efef"/><g fill="#a4afc1"><path d="m30.2 8.776h1v2h-1z"/><path d="m30.2 3.026h1v2h-1z"/><path d="m32.7 6.526h2v1h-2z"/></g><path d="m29.25 20.5c-7.5 7.667-15 7.667-22.5 0 7.5-7.667 15-7.667 22.5 0z" fill="#f3f3f1"/><circle cx="18" cy="20.5" fill="#2fdf84" r="2.75"/><path d="m28.25 12.415c-5.544-4.999-13.384-4.585-19.893-.564-.523.323-.732.942-.534 1.494.298.829 1.386 1.179 2.148.663 4.641-3.143 11.578-4.269 18.279-1.593z" fill="#2fdf84"/><path d="m19.71 8.79c-3.09.21-6.22 1.29-9.1 3.06-.53.32-.73.94-.54 1.5.06.16.15.31.26.43-.12.07-.24.15-.36.23-.24.16-.52.24-.79.24-.59 0-1.16-.34-1.36-.9-.19-.56.01-1.18.54-1.5 3.58-2.21 7.56-3.33 11.35-3.06z" fill="#00b871"/><path d="m9 20.5c3.38 3.46 6.75 5.35 10.13 5.69-4.13.43-8.25-1.47-12.38-5.69 4.13-4.22 8.25-6.12 12.38-5.69-3.38.34-6.75 2.23-10.13 5.69z" fill="#d5dbe1"/><path d="m17.5 20.5c0-1.117.669-2.074 1.625-2.504-.344-.155-.723-.246-1.125-.246-1.519 0-2.75 1.231-2.75 2.75s1.231 2.75 2.75 2.75c.402 0 .781-.091 1.125-.246-.956-.43-1.625-1.387-1.625-2.504z" fill="#00b871"/><path d="m18 24c-1.93 0-3.5-1.57-3.5-3.5s1.57-3.5 3.5-3.5 3.5 1.57 3.5 3.5-1.57 3.5-3.5 3.5zm0-5.5c-1.103 0-2 .897-2 2s.897 2 2 2 2-.897 2-2-.897-2-2-2z"/><path d="m9.177 15.002c-.234 0-.47-.037-.702-.113-.642-.209-1.137-.679-1.357-1.289-.323-.899.025-1.88.845-2.387 7.346-4.54 15.313-4.293 20.789.645.27.243.326.645.134.954-.192.308-.577.436-.915.3-5.951-2.376-12.688-1.795-17.579 1.519-.363.244-.784.371-1.215.371zm9.365-5.519c-3.174 0-6.542.999-9.791 3.006-.214.132-.304.375-.222.603.061.17.211.306.41.371.214.071.438.043.611-.075 3.957-2.68 9.016-3.713 13.991-3.002-1.572-.601-3.256-.903-4.999-.903z"/><path d="m18 27c-3.942 0-7.907-2.011-11.786-5.976-.285-.292-.285-.757 0-1.049 7.758-7.93 15.814-7.93 23.572 0 .285.292.285.757 0 1.049-3.879 3.965-7.844 5.976-11.786 5.976zm-10.188-6.5c6.824 6.637 13.552 6.637 20.376 0-6.824-6.637-13.552-6.637-20.376 0z"/></svg>