<svg id="Line" height="512" viewBox="0 0 36 36" width="512" xmlns="http://www.w3.org/2000/svg"><path d="m4.627 27.171c0-6.917-3.583-11.667-3.583-15s1.916-10.334 17.249-10.334 17.583 9.417 17.583 13.083c.001 17.167-31.249 24.501-31.249 12.251z" fill="#f3efef"/><g fill="#a4afc1"><path d="m5.773 1.86h2v1h-2z" transform="matrix(.707 -.707 .707 .707 .315 5.481)"/><path d="m1.707 5.926h2v1h-2z" transform="matrix(.707 -.707 .707 .707 -3.751 3.796)"/><path d="m2.207 1.184h1v2h-1z" transform="matrix(.707 -.707 .707 .707 -.751 2.554)"/></g><path d="m21.018 22.92c-2.441-1.706-2.911-3.005-1.923-5.313.795-1.857 3.018-3.246 4.809-3.003 2.399.325 4.171 2.226 4.33 4.62.333 5.017-4.189 9.518-9.133 9.983-4.668.439-9.715-2.495-11.047-6.754-.783-2.503.079-3.055 1.191-3.176.787-.086 1.491.246 1.935 1.095.213.407.889 1.5 1.656 2.346.405.447 1.147.387 1.449-.132.894-1.537 1.227-3.501 4.091-3.131z" fill="#f3f3f1"/><path d="m15.08 22.72c-.18-.2-.36-.42-.53-.64.73-1.43 1.27-2.96 3.82-2.63l.2.26c-1.08.57-1.42 1.83-2.04 2.88-.3.51-1.04.57-1.45.13z" fill="#d5dbe1"/><path d="m19.32 29.19c-.07.01-.15.01-.22.02-4.67.44-9.72-2.5-11.05-6.76-.78-2.5.08-3.05 1.19-3.17.47-.05.92.04 1.29.32-.54.37-.75 1.17-.23 2.85 1.14 3.65 5 6.32 9.02 6.74z" fill="#d5dbe1"/><path d="m18.159 30c-4.79 0-9.51-3.125-10.823-7.324-.457-1.46-.45-2.475.02-3.193.532-.814 1.491-.918 1.807-.953 1.141-.127 2.119.42 2.68 1.493.186.356.831 1.4 1.547 2.19.051.057.122.058.146.052.047-.005.08-.024.1-.058.146-.251.276-.515.406-.778.641-1.293 1.411-2.878 3.922-2.766.088-.424.236-.873.442-1.354.924-2.157 3.494-3.733 5.599-3.451 2.749.373 4.796 2.558 4.978 5.314.347 5.218-4.238 10.255-9.811 10.779-.338.034-.676.049-1.013.049zm-8.681-9.986c-.05 0-.101.002-.153.008-.51.056-.651.188-.714.283-.091.138-.256.602.157 1.923 1.205 3.855 5.809 6.653 10.262 6.231 4.799-.451 8.75-4.744 8.455-9.187-.135-2.037-1.649-3.651-3.683-3.927-1.452-.201-3.362 1.021-4.019 2.555-.753 1.759-.688 2.76 1.664 4.403l-.859 1.229c-1.601-1.118-2.464-2.163-2.674-3.37-1.511-.079-1.938.735-2.529 1.931-.145.292-.291.586-.454.867-.262.45-.714.74-1.239.795-.537.054-1.059-.146-1.414-.538-.791-.873-1.503-1.999-1.765-2.503-.248-.468-.588-.7-1.035-.7z"/><circle cx="23" cy="19" r="1"/><path d="m15.514 20.648c-1.908-.8-3.072-2.654-2.966-4.724.105-2.068 1.453-3.793 3.432-4.394l1.041-.316c.828-.251 1.499-.852 1.842-1.648.344-.798.318-1.703-.069-2.481l1.342-.67c.586 1.174.625 2.539.105 3.745-.518 1.202-1.532 2.11-2.784 2.49l-1.041.316c-1.658.503-2.312 1.898-2.369 3.036-.059 1.138.448 2.593 2.048 3.264z"/></svg>