<svg id="Line" height="512" viewBox="0 0 36 36" width="512" xmlns="http://www.w3.org/2000/svg"><path d="m8.138 5.111c-1.805 6.677-6.504 10.327-7.374 13.545s-.846 10.476 13.956 14.477 19.432-4.501 20.388-8.041c4.48-16.571-23.773-31.806-26.97-19.981z" fill="#f3efef"/><path d="m3.154 10.792c-.827 0-1.5-.673-1.5-1.5s.673-1.5 1.5-1.5 1.5.673 1.5 1.5-.673 1.5-1.5 1.5zm0-2c-.275 0-.5.224-.5.5s.225.5.5.5.5-.224.5-.5-.224-.5-.5-.5z" fill="#a4afc1"/><path d="m9.75 13.26c-1.21.8-2 2.18-2 3.74v12.25h9.75v-12.25c0-1.24-.5-2.37-1.32-3.18-.21-.21-.44-.4-.68-.56z" fill="#f3f3f1"/><path d="m13.25 18.25h-1.5c-1.105 0-2-.895-2-2v-3.75c0-1.519 1.231-2.75 2.75-2.75s2.75 1.231 2.75 2.75v3.75c0 1.105-.895 2-2 2z" fill="#2fdf84"/><path d="m25.25 10.26c.271.098.47.35.68.56.82.81 1.32 1.94 1.32 3.18v15.25h-9.75v-14.465s-.364-7.464 7.75-4.525z" fill="#f3f3f1"/><path d="m23 15.25h-1.5c-1.105 0-2-.895-2-2v-3.75c0-1.519 1.231-2.75 2.75-2.75s2.75 1.231 2.75 2.75v3.75c0 1.105-.895 2-2 2z" fill="#2fdf84"/><path d="m13.63 18.21c-.12.03-.25.04-.38.04h-1.5c-1.1 0-2-.9-2-2v-3.75c0-1.52 1.23-2.75 2.75-2.75.4 0 .79.09 1.13.25-.96.42-1.63 1.38-1.63 2.5v3.75c0 .97.7 1.79 1.63 1.96z" fill="#00b871"/><path d="m10.47 15.01c-.3.6-.47 1.28-.47 1.99v12.25h-2.25v-12.25c0-.71.17-1.39.47-1.99z" fill="#d5dbe1"/><path d="m19.75 14.78v14.47h-2.25v-14.47s-.03-.66.14-1.52c.1-.51.27-1.09.57-1.63h2.26c-.8 1.46-.72 3.15-.72 3.15z" fill="#d5dbe1"/><path d="m23.38 15.21c-.12.03-.25.04-.38.04h-1.5c-1.1 0-2-.9-2-2v-3.75c0-1.52 1.23-2.75 2.75-2.75.4 0 .79.09 1.13.25-.96.42-1.63 1.38-1.63 2.5v3.75c0 .97.7 1.79 1.63 1.96z" fill="#00b871"/><path d="m8.5 29.25h-1.5v-12.25c0-1.766.873-3.398 2.336-4.366l.828 1.251c-1.042.689-1.664 1.854-1.664 3.115z"/><path d="m18.25 29.25h-1.5v-12.25c0-1.008-.39-1.948-1.098-2.646-.181-.181-.371-.338-.568-.47l.832-1.248c.279.186.546.406.794.654.992.979 1.54 2.298 1.54 3.71z"/><path d="m13.25 19h-1.5c-1.517 0-2.75-1.233-2.75-2.75v-3.75c0-1.93 1.57-3.5 3.5-3.5s3.5 1.57 3.5 3.5v3.75c0 1.517-1.233 2.75-2.75 2.75zm-.75-8.5c-1.103 0-2 .897-2 2v3.75c0 .689.561 1.25 1.25 1.25h1.5c.689 0 1.25-.561 1.25-1.25v-3.75c0-1.103-.897-2-2-2z"/><path d="m10.75 21h3.5v1.5h-3.5z"/><path d="m10.75 24h3.5v1.5h-3.5z"/><path d="m18.25 26.25h-1.5v-12.25c0-1.766.873-3.398 2.336-4.366l.828 1.251c-1.042.689-1.664 1.854-1.664 3.115z"/><path d="m28 29.25h-1.5v-15.25c0-1.008-.39-1.948-1.098-2.646-.181-.181-.371-.338-.568-.47l.832-1.248c.279.186.546.406.794.654.992.979 1.54 2.298 1.54 3.71z"/><path d="m23 16h-1.5c-1.517 0-2.75-1.233-2.75-2.75v-3.75c0-1.93 1.57-3.5 3.5-3.5s3.5 1.57 3.5 3.5v3.75c0 1.517-1.233 2.75-2.75 2.75zm-.75-8.5c-1.103 0-2 .897-2 2v3.75c0 .689.561 1.25 1.25 1.25h1.5c.689 0 1.25-.561 1.25-1.25v-3.75c0-1.103-.897-2-2-2z"/><path d="m20.5 18h3.5v1.5h-3.5z"/><path d="m20.5 21h3.5v1.5h-3.5z"/></svg>