<svg id="Line" height="512" viewBox="0 0 36 36" width="512" xmlns="http://www.w3.org/2000/svg"><path d="m27.442 3.461c-6.916.13-11.732-3.364-15.065-3.302s-10.295 2.11-10.009 17.44 9.744 17.404 13.41 17.336c17.164-.321 23.911-31.703 11.664-31.474z" fill="#f3efef"/><g fill="#a4afc1"><path d="m5.773 1.86h2v1h-2z" transform="matrix(.707 -.707 .707 .707 .315 5.481)"/><path d="m1.707 5.926h2v1h-2z" transform="matrix(.707 -.707 .707 .707 -3.751 3.796)"/><path d="m2.207 1.184h1v2h-1z" transform="matrix(.707 -.707 .707 .707 -.751 2.554)"/></g><path d="m20.552 29.25c5.431-5.762-1.305-17.609 6.698-22.5h-3.9c-.847.608-1.691 1.929-2.156 2.738-.254.441-.669.76-1.158.897l-2.243.63c-1.906.53-2.881 1.728-3.495 2.718-.286.46-.75.762-1.282.859-.824.151-1.762.72-2.194 1.628l-2.866 6.007c-.273.587-.273 1.242 0 1.82.38.802 1.209 1.291 2.096 1.291.156 0 .312-.02.468-.049 1.462-.274 2.701-1.193 3.364-2.465l2.408-4.657c.252-.496.311-1.07.13-1.635-.287-.89-.169-1.878.514-2.514.372-.346.852-.643 1.521-.83l.45-.129c.64-.184 1.273.313 1.238.98-.28 5.375 1.119 11.728-3.619 15.212h4.026z" fill="#f3f3f1"/><path d="m13.98 22.63-.01.01-.09.18c-.66 1.27-1.9 2.19-3.36 2.47-.16.03-.31.05-.47.05-.89 0-1.71-.49-2.1-1.29-.27-.58-.27-1.24 0-1.82l1.13-2.37.17-.36c2.09.13 2.06 1.1 2.57 1.92.29.47.76.89 1.89 1.07.01.01.03.01.04.01z" fill="#2fdf84"/><path d="m25.6 6.75c-.85.61-1.69 1.93-2.16 2.74-.25.44-.67.76-1.15.9l-2.25.63c-1.9.52-2.88 1.72-3.49 2.71-.29.46-.75.76-1.28.86-.83.15-1.77.72-2.2 1.63l-1.57 3.28-.17.36-.18.37-.95 2c-.27.58-.27 1.24 0 1.82.23.46.58.81 1.03 1.04-.11.05-.23.08-.34.11-.12.04-.24.07-.37.09-.16.03-.31.05-.47.05-.89 0-1.71-.49-2.1-1.29-.27-.58-.27-1.24 0-1.82l1.13-2.37.17-.36 1.57-3.28c.43-.91 1.37-1.48 2.2-1.63.53-.1.99-.4 1.28-.86.61-.99 1.59-2.19 3.49-2.71l2.25-.63c.48-.14.9-.46 1.15-.9.47-.81 1.31-2.13 2.16-2.74z" fill="#d5dbe1"/><path d="m11.23 25.09c-.11.05-.23.08-.34.11-.12.04-.24.07-.37.09-.16.03-.31.05-.47.05-.89 0-1.71-.49-2.1-1.29-.27-.58-.27-1.24 0-1.82l1.13-2.37.17-.36c1.07.07 1.59.35 1.9.73l-.95 2c-.27.58-.27 1.24 0 1.82.23.46.58.81 1.03 1.04z" fill="#00b871"/><path d="m16.97 29.854-.889-1.208c3.41-2.508 3.351-6.653 3.288-11.041-.018-1.194-.035-2.429.026-3.607.005-.092-.042-.149-.082-.181-.033-.026-.102-.067-.2-.039l-.451.129c-.491.138-.888.353-1.217.659-.419.39-.535 1.039-.311 1.735.236.734.174 1.517-.175 2.204l-2.411 4.662c-.771 1.478-2.226 2.545-3.893 2.858-1.374.257-2.8-.436-3.379-1.659-.367-.775-.368-1.671-.002-2.457l2.869-6.013c.489-1.025 1.563-1.827 2.735-2.042.335-.061.611-.244.779-.516.629-1.013 1.721-2.431 3.933-3.045l2.242-.629c.302-.085.555-.28.709-.55.57-.989 1.443-2.308 2.369-2.973l.875 1.218c-.545.392-1.253 1.304-1.943 2.503-.353.611-.922 1.054-1.604 1.246l-2.244.629c-1.689.469-2.523 1.524-3.061 2.391-.389.627-1.039 1.065-1.784 1.201-.585.107-1.324.524-1.652 1.213l-2.866 6.007c-.177.379-.178.799.001 1.175.292.618 1.023.962 1.747.827 1.219-.229 2.279-1.004 2.838-2.075l2.407-4.654c.168-.332.197-.701.082-1.06-.401-1.246-.127-2.508.717-3.293.508-.473 1.106-.801 1.828-1.003l.447-.128c.534-.154 1.112-.039 1.547.306.434.344.676.88.647 1.434-.059 1.129-.042 2.338-.024 3.508.067 4.572.134 9.302-3.898 12.268z"/><path d="m21.098 29.765-1.092-1.029c2.249-2.386 2.219-5.998 2.188-9.821-.04-4.869-.081-9.903 4.666-12.804l.782 1.28c-4.022 2.458-3.986 6.856-3.948 11.512.032 3.951.066 8.037-2.596 10.862z"/><path d="m13.633 23.241c-1.938-.306-2.402-1.275-2.742-1.983-.287-.6-.445-.931-1.688-1.009l.096-1.497c2.12.134 2.598 1.131 2.946 1.858.278.582.463.967 1.623 1.15z"/></svg>