<svg id="Line" height="512" viewBox="0 0 36 36" width="512" xmlns="http://www.w3.org/2000/svg"><path d="m8.837 31.381c6.917 0 11.667 3.583 15 3.583s10.333-1.917 10.333-17.25-9.416-17.583-13.083-17.583c-17.167 0-24.5 31.25-12.25 31.25z" fill="#f3efef"/><path d="m3.714 7.901c-.827 0-1.5-.673-1.5-1.5s.673-1.5 1.5-1.5 1.5.673 1.5 1.5-.673 1.5-1.5 1.5zm0-2c-.276 0-.5.224-.5.5s.224.5.5.5.5-.224.5-.5-.224-.5-.5-.5z" fill="#a4afc1"/><path d="m22.559 20.605c-3.49-2.487-6.655-2.627-9.363.522-.571.663-.595 1.872-.066 2.597.362.496.896.62 1.38.395 2.171-1.01 4.493-.848 6.91.064.524.198 1.084-.042 1.407-.641l.17-.316c.47-.871.263-2.122-.438-2.621z" fill="#f3f3f1"/><path d="m18.9 18.87c-1.22.27-2.37 1-3.45 2.26-.57.66-.6 1.87-.07 2.59.01.02.03.03.04.05-.3.09-.61.21-.91.35-.15.07-.31.11-.47.11-.33 0-.66-.17-.91-.51-.53-.72-.5-1.93.07-2.59 1.72-2.01 3.63-2.68 5.7-2.26z" fill="#d5dbe1"/><path d="m21.779 24.999c-.208 0-.417-.038-.623-.115-2.421-.913-4.491-.941-6.329-.085-.834.387-1.738.14-2.303-.633-.743-1.017-.696-2.6.104-3.528 2.842-3.304 6.329-3.52 10.366-.644 1 .712 1.31 2.389.664 3.587l-.171.316c-.377.7-1.028 1.102-1.708 1.102zm-4.112-2.326c1.257 0 2.59.269 4.018.808.239.086.417-.176.482-.295l.171-.316c.309-.573.138-1.402-.214-1.653-3.39-2.415-6.046-2.288-8.359.401-.34.395-.355 1.22-.03 1.665.181.247.35.208.459.157 1.097-.512 2.249-.767 3.473-.767z"/><path d="m14.116 11.088-.117-.741c-.075-.473-.154-.963-.239-1.475l-.123-.74 1.479-.246.123.74c.086.516.166 1.011.241 1.487l.117.741z"/><path d="m14.654 15.659-.067-.747c-.057-.638-.128-1.284-.214-1.954l-.095-.744 1.488-.189.095.744c.087.689.161 1.353.22 2.009l.067.747z"/><path d="m16.27 19.75h-1.5v-.75c0-.504-.008-.994-.022-1.474l-.023-.75 1.5-.046.023.75c.014.495.022 1 .022 1.52z"/><path d="m17.805 5.999h1.5v3.5h-1.5z" transform="matrix(.999 -.055 .055 .999 -.401 1.04)"/><path d="m18.07 14.733-.009-.75c-.011-.865-.037-1.729-.072-2.593l-.03-.75 1.499-.061.03.75c.035.877.062 1.757.073 2.635l.009.75z"/><path d="m19.397 19.389-1.497-.102.051-.748c.044-.657.075-1.314.093-1.973l.021-.75 1.5.042-.021.75c-.019.678-.05 1.356-.096 2.032z"/><path d="m22.472 20.773-1.475-.271.136-.738c.087-.471.159-.951.218-1.438l.091-.744 1.489.182-.091.745c-.063.518-.14 1.027-.232 1.527z"/><path d="m23.033 16.49-1.498-.079.04-.749c.046-.882.072-1.783.091-2.701l.016-.75 1.5.031-.015.75c-.02.934-.045 1.851-.093 2.749z"/><path d="m23.2 11.014-1.5-.028.014-.75c.009-.499.021-1.002.037-1.508l.022-.75 1.499.045-.022.75c-.015.5-.026.998-.036 1.492z"/><path d="m26.705 14.095-1.484-.218.109-.742c.069-.471.127-.955.174-1.453l.069-.747 1.494.138-.069.747c-.048.527-.109 1.037-.183 1.534z"/><path d="m25.498 18.631-1.425-.468.234-.712c.2-.609.378-1.224.529-1.829l.182-.728 1.455.364-.182.728c-.16.639-.348 1.289-.56 1.932z"/><path d="m23.87 22.494-1.364-.625.313-.682c.204-.446.403-.895.593-1.35l.289-.692 1.384.579-.29.692c-.197.47-.401.934-.613 1.396z"/><path d="m10.853 16.99-.113-.741c-.123-.802-.333-1.491-.664-2.17l-.329-.674 1.349-.657.329.674c.399.819.652 1.645.798 2.601l.113.742z"/><path d="m12.518 22.571-.419-.622c-.532-.788-.861-1.612-1.035-2.594l-.131-.739 1.477-.262.131.738c.139.778.386 1.401.802 2.018l.419.622z"/><path d="m15.365 30.193-1.428-.458.229-.714c.338-1.052 1.137-1.869 2.137-2.186l2.357-.722c.761-.237 1.573-.098 2.226.382.697.513 1.114 1.356 1.114 2.255v1.25h-1.5v-1.25c0-.424-.188-.815-.503-1.047-.155-.115-.476-.286-.894-.156l-2.353.721c-.54.171-.963.613-1.156 1.212z"/></svg>