<svg id="Line" height="512" viewBox="0 0 36 36" width="512" xmlns="http://www.w3.org/2000/svg"><path d="m34.864 19.902c-3.782-5.791-3.38-11.727-5.203-14.518s-7.256-7.603-20.093.782-9.572 17.5-7.566 20.569c9.388 14.373 39.561 3.423 32.862-6.833z" fill="#f3efef"/><path d="m4.583 10.095c-.827 0-1.5-.673-1.5-1.5s.673-1.5 1.5-1.5 1.5.673 1.5 1.5-.673 1.5-1.5 1.5zm0-2c-.276 0-.5.224-.5.5s.224.5.5.5.5-.224.5-.5-.224-.5-.5-.5z" fill="#a4afc1"/><g fill="#f3f3f1"><path d="m13.4 7.75.72 2.69c.76-.39 1.56-.66 2.13-.81v-2.88z"/><path d="m25.248 8.75-1.034 3.92c1.015 1.623 1.324 4.184.754 5.875l-3.015 7.928c-.648 1.633-2.175 2.777-3.953 2.777s-3.305-1.144-3.962-2.776l-3.006-7.918c-.193-.567-.28-1.232-.28-1.926 0-1.378.358-2.874 1.044-3.949v-.01.01l-1.044-3.93h14.496z"/><path d="m22.6 7.75-.72 2.69c-.76-.39-1.57-.66-2.13-.81v-2.88z"/></g><path d="m19.13 29.09c-.36.1-.74.16-1.13.16-1.78 0-3.31-1.14-3.96-2.78l-3.01-7.91c-.19-.57-.28-1.24-.28-1.93 0-1.38.36-2.87 1.05-3.95v-.01l-1.05-3.92h2.25l1.05 3.92v.01c-.69 1.08-1.05 2.57-1.05 3.95 0 .69.09 1.36.28 1.93l3.01 7.91c.51 1.28 1.56 2.26 2.84 2.62z" fill="#d5dbe1"/><path d="m14.12 11.19c-.104 0-.207-.021-.304-.064-.207-.092-.362-.272-.42-.492l-.72-2.69 1.449-.388.491 1.833c.324-.132.626-.238.885-.321v-2.318h1.499v2.88c0 .341-.229.639-.559.725-.317.083-1.144.324-1.978.752-.108.055-.225.083-.343.083z"/><path d="m18 30c-2.036 0-3.864-1.274-4.658-3.246l-3.011-7.933c-.221-.649-.329-1.378-.329-2.192 0-1.455.366-2.945.988-4.062l-.963-3.625 1.45-.385 1.025 3.861c.028.079.043.163.043.251v.002.002.001.004c0 .011 0 .022-.001.034-.007.129-.047.261-.116.369-.58.909-.926 2.235-.926 3.546 0 .64.083 1.222.24 1.684l2.997 7.894c.558 1.39 1.841 2.295 3.261 2.295 1.423 0 2.701-.904 3.255-2.303l3.012-7.918c.492-1.46.188-3.81-.688-5.211-.11-.175-.142-.389-.089-.589l1.034-3.92 1.45.383-.955 3.619c.986 1.793 1.274 4.404.66 6.225l-3.025 7.955c-.787 1.983-2.612 3.259-4.654 3.259z"/><path d="m21.88 11.19c-.118 0-.235-.028-.343-.083-.816-.419-1.657-.666-1.981-.752-.328-.088-.556-.386-.556-.725v-2.88h1.5v2.319c.26.083.563.189.885.32l.491-1.833 1.449.388-.72 2.69c-.059.219-.213.4-.42.492-.098.042-.202.064-.305.064z"/><path d="m20.751 27.646c-1.715-4.94-5.056-8.16-10.214-9.843l.465-1.426c5.556 1.813 9.313 5.438 11.166 10.777z"/><path d="m19.5 22.279-1.5-.058c.152-3.884 2.349-6.851 6.53-8.819l.639 1.357c-3.685 1.735-5.54 4.195-5.669 7.52z"/></svg>