<svg id="Line" height="512" viewBox="0 0 36 36" width="512" xmlns="http://www.w3.org/2000/svg"><path d="m8.138 5.668c-1.805 6.677-6.504 10.327-7.374 13.545s-.846 10.476 13.956 14.477 19.432-4.501 20.388-8.041c4.48-16.571-23.773-31.806-26.97-19.981z" fill="#f3efef"/><path d="m5.74 2.25h1v2h-1z" fill="#a4afc1"/><path d="m2.24 5.5h2v1h-2z" fill="#a4afc1"/><path d="m25.25 29.25c-.976-3.092-.979-6.409-.007-9.502l.992-3.156c.151-.481.637-.774 1.133-.684l1.882.342v-5c-1.751-1.273-3.959-1.746-6.077-1.3-.801.169-1.597-.311-1.822-1.098l-.601-2.102h-5.5l-.601 2.102c-.225.787-1.02 1.267-1.822 1.098-2.118-.446-4.327.026-6.077 1.3v5l1.882-.342c.496-.09.982.203 1.133.684l.992 3.156c.972 3.093.97 6.41-.006 9.502z" fill="#f3f3f1"/><path d="m12.35 9.87c-1.2.18-2.35.65-3.35 1.38v4.66c-.12-.02-.24-.02-.37 0l-1.88.34v-5c1.32-.96 2.9-1.47 4.5-1.47.37 0 .74.03 1.1.09z" fill="#d5dbe1"/><path d="m13.01 19.75c.97 3.09.97 6.41-.01 9.5h-2.25c.98-3.09.98-6.41.01-9.5l-1-3.16c-.05-.17-.14-.31-.26-.43l1.38-.25c.5-.09.98.2 1.13.68z" fill="#d5dbe1"/><path d="m7.191 11.856-.883-1.213c1.919-1.396 4.353-1.915 6.673-1.427.41.085.831-.163.946-.57l.602-2.103 1.441.412-.6 2.103c-.33 1.162-1.521 1.876-2.697 1.626-1.906-.4-3.903.025-5.482 1.172z"/><path d="m28.809 11.856c-1.577-1.147-3.575-1.572-5.481-1.172-1.179.246-2.366-.465-2.698-1.626l-.6-2.102 1.441-.412.601 2.102c.116.408.538.655.947.57 2.317-.488 4.752.031 6.673 1.427z"/><path d="m11.465 29.476-1.43-.452c.935-2.959.937-6.089.006-9.051l-.992-3.156c-.038-.121-.167-.192-.283-.171l-1.882.342-.268-1.476 1.882-.342c.856-.155 1.718.357 1.982 1.197l.992 3.156c1.023 3.257 1.021 6.699-.007 9.953z"/><path d="m24.535 29.476c-1.028-3.254-1.03-6.696-.008-9.953l.992-3.157c.265-.838 1.116-1.354 1.982-1.197l1.882.342-.268 1.476-1.882-.342c-.128-.02-.245.052-.283.171l-.992 3.156c-.931 2.961-.929 6.091.006 9.051z"/><path d="m17.25 12h1.5v16h-1.5z"/><path d="m13.4 18.605c-.296 0-.596-.046-.888-.144l.475-1.423c.563.187 1.187-.026 1.516-.52l.123-.185 1.248.832-.123.185c-.533.8-1.426 1.255-2.351 1.255z"/><path d="m22.557 18.618c-1.026 0-1.999-.575-2.478-1.532l1.342-.671c.274.548.9.823 1.485.653l.139-.04.41 1.443-.138.039c-.253.073-.508.108-.76.108z"/></svg>