<svg id="Line" height="512" viewBox="0 0 36 36" width="512" xmlns="http://www.w3.org/2000/svg"><path d="m34.864 19.902c-3.782-5.791-3.38-11.727-5.203-14.518s-7.256-7.603-20.093.782-9.572 17.5-7.566 20.569c9.388 14.373 39.561 3.423 32.862-6.833z" fill="#f3efef"/><path d="m10.255 4.307c-.827 0-1.5-.673-1.5-1.5s.673-1.5 1.5-1.5 1.5.673 1.5 1.5-.673 1.5-1.5 1.5zm0-2c-.275 0-.5.224-.5.5s.225.5.5.5.5-.224.5-.5-.225-.5-.5-.5z" fill="#a4afc1"/><path d="m24.359 29.25.978-8.804c.039 3.131.523 6.097 1.712 8.804h2.19c.061-4.069-.108-8.512-.992-11.958-.417-1.625-1.432-3.029-2.827-3.96l-2.851-1.903c-.687-.459-1.012-1.3-.812-2.102l.644-2.576h-8.804v1.955c0 .309.146.6.393.784l.377.281c.565.421.512 1.284-.099 1.634l-3.344 1.911c-1.599.913-2.792 2.423-3.229 4.211-.834 3.412-.994 7.746-.934 11.724h2.434c.917-2.702 1.347-5.669 1.467-8.804l.978 8.804h12.719z" fill="#f3f3f1"/><path d="m14.682 24.387s2 1.875 2.768 2.398c.845.576 1.805.692 2.737.199 1.694-.895 2.112-3.994.755-5.509-.409-.457-1.326-.618-1.868-.571 0 0 1.503 3.036-1.744 2.68s-2.648.803-2.648.803z" fill="#2fdf84"/><path d="m16.52 11.4-3.35 1.92c-1.59.91-2.79 2.42-3.22 4.21-.84 3.41-1 7.74-.94 11.72h-2.25c-.06-3.98.1-8.31.94-11.72.43-1.79 1.63-3.3 3.22-4.21l3.35-1.92c.61-.35.66-1.21.1-1.63l-.38-.28c-.25-.19-.39-.48-.39-.79v-1.95h2.25v1.95c0 .31.14.6.39.79l.38.28c.56.42.51 1.28-.1 1.63z" fill="#d5dbe1"/><path d="m20.32 21.9s1.51 3.04-1.74 2.68c-3.25-.35-2.65.81-2.65.81s.82.76 1.61 1.44c-.03-.01-.06-.03-.09-.05-.77-.52-2.77-2.39-2.77-2.39s-.6-1.16 2.65-.81c3.25.36 1.74-2.68 1.74-2.68.54-.04 1.46.12 1.87.57.14.16.27.34.37.54-.35-.1-.72-.13-.99-.11z" fill="#00b871"/><path d="m18.986 28.045c-.666 0-1.333-.214-1.959-.641-.794-.541-2.649-2.275-2.858-2.471l1.025-1.094c.545.51 2.087 1.923 2.677 2.325.656.448 1.318.499 1.965.156.541-.286.954-.96 1.104-1.805.177-.986-.037-1.96-.558-2.541-.178-.198-.807-.365-1.244-.324l-.131-1.494c.649-.062 1.859.112 2.491.816.835.932 1.178 2.355.918 3.807-.235 1.315-.92 2.36-1.88 2.867-.503.267-1.026.399-1.55.399z"/><path d="m16.77 29.878c-.553-.361-1.233-.792-1.37-.859-1.289-.559-2.063-2.046-1.871-3.612.225-1.822 1.666-3.099 3.278-2.909.282.033.562.102.841.173.211.054.422.109.635.136.077.008.096-.013.109-.026.058-.054.121-.2.106-.434-.033-.537-.108-.948-.23-1.254-.729-2.511-.723-5.506-.717-8.149.004-2.238.009-4.025-.578-4.613-.051-.051-.101-.081-.206-.081v-1.5c.489 0 .928.18 1.269.521 1.025 1.028 1.021 2.66 1.016 5.676-.006 2.543-.011 5.425.635 7.662.157.387.267.949.311 1.648.038.649-.173 1.239-.579 1.619-.355.333-.827.482-1.32.42-.275-.034-.548-.102-.819-.171-.215-.055-.43-.112-.646-.138-.79-.091-1.492.612-1.614 1.602-.109.896.308 1.762.992 2.059.221.096.981.583 1.581.974z"/><path d="m29.989 29.261-1.5-.022c.075-5.08-.241-8.927-.969-11.761-.367-1.433-1.261-2.685-2.517-3.523l-2.85-1.902c-.948-.633-1.4-1.802-1.124-2.908l.645-2.577 1.455.364-.645 2.576c-.123.493.078 1.014.501 1.296l2.851 1.902c1.564 1.045 2.678 2.607 3.137 4.398.761 2.966 1.093 6.942 1.016 12.157z"/><path d="m26.362 29.551c-.39-.886-.713-1.813-.973-2.786l-.286 2.568-1.49-.166.979-8.804c.044-.394.387-.675.782-.666.396.02.708.343.713.74.041 3.294.58 6.079 1.648 8.512z"/><path d="m9.905 29.491-1.42-.482c.834-2.454 1.301-5.265 1.429-8.592.015-.392.329-.707.722-.721.43-.034.729.277.772.667l.979 8.804-1.49.166-.27-2.42c-.202.899-.442 1.756-.722 2.578z"/><path d="m6.011 29.261c-.075-5.079.238-8.975.956-11.913.477-1.947 1.783-3.654 3.586-4.685l3.344-1.911c.094-.053.112-.138.115-.184s-.006-.132-.092-.196l-.377-.282c-.436-.326-.695-.844-.695-1.385v-1.955h1.5v1.955c0 .071.035.14.093.184l.376.28c.469.349.728.906.692 1.49-.036.583-.36 1.105-.868 1.396l-3.344 1.911c-1.447.827-2.494 2.189-2.873 3.738-.688 2.812-.986 6.585-.913 11.534z"/></svg>