<svg id="Line" height="512" viewBox="0 0 36 36" width="512" xmlns="http://www.w3.org/2000/svg"><path d="m8.837 31.938c6.917 0 11.667 3.583 15 3.583s10.333-1.917 10.333-17.25-9.416-17.583-13.083-17.583c-17.167 0-24.5 31.25-12.25 31.25z" fill="#f3efef"/><path d="m32.437 8.901c-.827 0-1.5-.673-1.5-1.5s.673-1.5 1.5-1.5 1.5.673 1.5 1.5-.673 1.5-1.5 1.5zm0-2c-.276 0-.5.224-.5.5s.224.5.5.5.5-.224.5-.5-.225-.5-.5-.5z" fill="#a4afc1"/><path d="m24.359 29.25.978-8.804c.039 3.131.523 6.097 1.712 8.804h2.19c.061-4.069-.108-8.512-.992-11.958-.417-1.625-1.432-3.029-2.827-3.96l-2.851-1.903c-.687-.459-1.012-1.3-.812-2.102l.644-2.576h-8.804v1.955c0 .309.146.6.393.784l.377.281c.565.421.512 1.284-.099 1.634l-3.344 1.911c-1.599.913-2.792 2.423-3.229 4.211-.834 3.412-.994 7.746-.934 11.724h2.434c.917-2.702 1.347-5.669 1.467-8.804l.978 8.804h12.719z" fill="#f3f3f1"/><path d="m16.52 11.4-3.35 1.92c-1.59.91-2.79 2.42-3.22 4.21-.84 3.41-1 7.74-.94 11.72h-2.25c-.06-3.98.1-8.31.94-11.72.43-1.79 1.63-3.3 3.22-4.21l3.35-1.92c.61-.35.66-1.21.1-1.63l-.38-.28c-.25-.19-.39-.48-.39-.79v-1.95h2.25v1.95c0 .31.14.6.39.79l.38.28c.56.42.51 1.28-.1 1.63z" fill="#d5dbe1"/><path d="m29.989 29.261-1.5-.022c.076-5.08-.241-8.927-.968-11.761-.368-1.434-1.261-2.685-2.517-3.523l-2.851-1.902c-.948-.633-1.399-1.802-1.123-2.908l.644-2.576 1.455.364-.644 2.576c-.124.493.078 1.014.5 1.296l2.851 1.902c1.563 1.044 2.677 2.606 3.137 4.398.761 2.965 1.093 6.941 1.016 12.156z"/><path d="m26.362 29.551c-.389-.886-.713-1.812-.973-2.785l-.285 2.567-1.491-.166.978-8.804c.043-.394.378-.688.782-.666.396.02.708.343.713.74.041 3.294.581 6.079 1.648 8.512z"/><path d="m9.906 29.491-1.42-.482c.833-2.455 1.3-5.265 1.428-8.592.015-.392.33-.707.722-.721.4-.021.73.277.773.667l.978 8.804-1.491.166-.269-2.419c-.202.899-.442 1.755-.721 2.577z"/><path d="m6.011 29.261c-.076-5.075.237-8.972.956-11.913.476-1.946 1.782-3.654 3.585-4.684l3.345-1.912c.093-.053.112-.138.115-.184.002-.046-.005-.132-.091-.197l-.377-.281c-.436-.326-.695-.844-.695-1.386v-1.954h1.5v1.955c0 .071.035.14.093.184l.376.28c.469.35.728.907.692 1.491s-.36 1.105-.868 1.396l-3.345 1.911c-1.447.827-2.494 2.189-2.873 3.738-.688 2.815-.987 6.588-.913 11.534z"/><path d="m19 29.25h-1.5v-.5c0-.689-.561-1.25-1.25-1.25h-.5c-1.241 0-2.25-1.009-2.25-2.25s1.009-2.25 2.25-2.25h4.5c.414 0 .75-.336.75-.75s-.336-.75-.75-.75h-4.5c-1.241 0-2.25-1.009-2.25-2.25s1.009-2.25 2.25-2.25h1.5c.689 0 1.25-.561 1.25-1.25v-2.544c0-1.558-.577-3.051-1.625-4.204l-.679-.748 1.109-1.009.68.748c1.3 1.43 2.016 3.281 2.016 5.213v2.544c0 1.517-1.233 2.75-2.75 2.75h-1.5c-.414 0-.75.336-.75.75s.335.75.749.75h4.5c1.241 0 2.25 1.009 2.25 2.25s-1.009 2.25-2.25 2.25h-4.5c-.414 0-.75.336-.75.75s.336.75.75.75h.5c1.517 0 2.75 1.233 2.75 2.75z"/></svg>