<svg id="Line" height="512" viewBox="0 0 36 36" width="512" xmlns="http://www.w3.org/2000/svg"><path d="m3.652 23.431c6.061 3.333 8.497 8.761 11.417 10.367 2.921 1.606 9.978 3.299 17.366-10.137s.221-19.945-2.992-21.711c-15.042-8.272-36.525 15.578-25.791 21.481z" fill="#f3efef"/><path d="m5.025 1.859h1v2h-1z" fill="#a4afc1"/><path d="m1.525 5.109h2v1h-2z" fill="#a4afc1"/><path d="m15.605 13.934-.983.919c-1.216 1.137-1.273 3.046-.128 4.255l2.386 2.517c1.21 1.277 3.254 1.243 4.421-.073l1.107-1.248c1.106-1.247.984-3.157-.272-4.252l-2.51-2.189c-1.16-1.01-2.898-.98-4.021.071z" fill="#2fdf84"/><path d="m29.25 9.75-3.158 3.158c-.608.608-.718 1.549-.272 2.285.362.598.519 1.336.381 2.118-.21 1.187-1.176 2.159-2.36 2.383-1.92.363-3.59-1.091-3.59-2.944 0-.47.11-.91.3-1.3-.541.264-1.179.373-1.86.249-1.206-.221-2.193-1.214-2.396-2.424-.318-1.893 1.124-3.525 2.956-3.525.545 0 1.055.142 1.494.394.77.441 1.722.39 2.35-.237l3.155-3.157z" fill="#f3f3f1"/><path d="m6.75 26.25 3.158-3.158c.608-.608.718-1.549.272-2.285-.362-.599-.518-1.337-.38-2.118.21-1.187 1.176-2.159 2.36-2.383 1.92-.363 3.59 1.091 3.59 2.944 0 .47-.11.91-.3 1.3.541-.264 1.179-.373 1.86-.249 1.206.221 2.193 1.214 2.396 2.424.318 1.893-1.124 3.525-2.956 3.525-.545 0-1.055-.142-1.494-.394-.77-.441-1.722-.39-2.35.237l-3.156 3.157z" fill="#f3f3f1"/><path d="m20.55 15.45c-.02.04-.04.09-.05.13-.01 0-.01 0-.01 0-.04-.02-.08-.03-.12-.05.06-.02.12-.05.18-.08z" fill="#2fdf84"/><path d="m15.48 18.02c-.54-.25-1.16-.34-1.82-.21-1.18.22-2.15 1.19-2.36 2.38-.14.78.02 1.52.38 2.12.45.73.34 1.67-.27 2.28l-3.16 3.16-1.5-1.5 3.16-3.16c.61-.61.72-1.55.27-2.28-.36-.6-.52-1.34-.38-2.12.21-1.19 1.18-2.16 2.36-2.38 1.46-.28 2.78.5 3.32 1.71z" fill="#d5dbe1"/><path d="m17.92 15.376c-.25-.54-.339-1.16-.209-1.82.221-1.18 1.191-2.149 2.381-2.359.78-.14 1.52.021 2.12.381.73.45 1.67.341 2.28-.269l3.162-3.158-1.499-1.501-3.162 3.158c-.61.61-1.55.719-2.28.269-.6-.36-1.34-.521-2.12-.381-1.19.209-2.161 1.179-2.381 2.359-.281 1.46.498 2.781 1.708 3.321z" fill="#d5dbe1"/><path d="m16.277 13.472c-.239.123-.468.271-.673.463l-.983.919c-.467.437-.759.987-.882 1.568.584.204 1.082.587 1.436 1.081.011-.787.325-1.569.946-2.15l.785-.735c-.288-.326-.505-.715-.629-1.146z" fill="#00b871"/><path d="m10.28 29.78-1.06-1.06 3.156-3.156c.844-.844 2.152-.988 3.253-.358.898.514 2.157.307 2.84-.501.435-.514.611-1.173.497-1.854-.151-.9-.888-1.645-1.792-1.811-.483-.089-.966-.025-1.396.185-.285.14-.631.083-.859-.144-.227-.226-.284-.571-.144-.859.15-.305.225-.633.225-.972 0-.673-.296-1.306-.813-1.734-.526-.436-1.196-.604-1.887-.473-.881.167-1.605.897-1.761 1.777-.101.572-.003 1.125.284 1.599.626 1.034.469 2.352-.384 3.204l-3.159 3.157-1.06-1.06 3.158-3.158c.363-.363.429-.924.162-1.366-.472-.778-.642-1.715-.479-2.637.262-1.48 1.479-2.71 2.96-2.989 1.122-.213 2.259.077 3.123.792.862.714 1.356 1.768 1.356 2.889 0 .087-.003.173-.009.259.313-.022.633-.004.953.055 1.513.277 2.747 1.526 3.001 3.038.186 1.107-.117 2.227-.831 3.072-.713.841-1.757 1.325-2.864 1.325-.658 0-1.303-.17-1.866-.493-.506-.29-1.087-.242-1.447.117z"/><path d="m23.256 20.499c-.875 0-1.722-.298-2.4-.86-.862-.714-1.356-1.768-1.356-2.889 0-.087.003-.173.009-.259-.316.021-.634.003-.953-.055-1.513-.277-2.747-1.526-3.001-3.038-.186-1.107.117-2.227.831-3.072.713-.842 1.757-1.326 2.864-1.326.658 0 1.303.17 1.866.493.506.289 1.087.242 1.447-.117l3.157-3.156 1.06 1.06-3.156 3.156c-.844.844-2.152.989-3.253.358-.901-.515-2.158-.307-2.84.501-.435.514-.611 1.173-.497 1.854.151.9.888 1.645 1.792 1.811.483.089.966.024 1.396-.185.287-.138.632-.083.859.144.227.226.284.571.144.859-.15.305-.225.633-.225.972 0 .673.296 1.306.813 1.734.526.436 1.194.603 1.887.473.881-.167 1.605-.897 1.761-1.777.101-.572.003-1.125-.284-1.599-.626-1.034-.469-2.352.384-3.204l3.159-3.157 1.061 1.061-3.158 3.158c-.363.363-.429.924-.162 1.366.472.778.642 1.715.479 2.637-.262 1.48-1.479 2.71-2.96 2.989-.242.046-.484.068-.724.068z"/><path d="m13 16.258c-.019-1.809 1.296-3.24 2.992-3.258l.016 1.5c-.991.011-1.517.906-1.508 1.742z"/><path d="m19.75 23v-1.5c.916 0 1.75-.834 1.75-1.75h1.5c0 1.762-1.488 3.25-3.25 3.25z"/></svg>