<svg id="Line" height="512" viewBox="0 0 36 36" width="512" xmlns="http://www.w3.org/2000/svg"><path d="m3.902 23.988c6.061 3.333 8.497 8.761 11.417 10.367 2.921 1.606 9.978 3.299 17.366-10.137s.221-19.945-2.992-21.712c-15.042-8.271-36.525 15.579-25.791 21.482z" fill="#f3efef"/><path d="m3.899 10c-.827 0-1.5-.673-1.5-1.5s.673-1.5 1.5-1.5 1.5.673 1.5 1.5-.673 1.5-1.5 1.5zm0-2c-.276 0-.5.224-.5.5s.224.5.5.5.5-.224.5-.5-.224-.5-.5-.5z" fill="#a4afc1"/><path d="m17.715 13.125-4.425.855-.724 1.224c-.722 1.22-.941 2.673-.611 4.052l1.031 4.306 6.774.875 2.614-4.742z" fill="#2fdf84"/><path d="m19.469 29.989v-2.052c0-.784.417-1.548 1.133-1.854 1.042-.446 1.774-1.488 1.774-2.704 0-1.621-1.301-2.935-2.906-2.935s-2.906 1.314-2.906 2.935c0-1.621-1.301-2.935-2.906-2.935s-2.908 1.316-2.908 2.936c0 1.215.731 2.258 1.774 2.704.715.306 1.133 1.069 1.133 1.854v2.062z" fill="#f3f3f1"/><path d="m26.5 6.009-3.316 5.659c-.388.679-.405 1.551.063 2.177.682.912.799 2.185.197 3.237-.803 1.404-2.58 1.885-3.97 1.074-1.39-.81-1.866-2.605-1.064-4.009-.803 1.404-2.58 1.885-3.97 1.074s-1.866-2.605-1.064-4.009c.602-1.052 1.751-1.586 2.875-1.446.771.096 1.51-.354 1.899-1.033l1.634-2.484z" fill="#f3f3f1"/><path d="m18.41 14.15c-.26.45-.39.96-.39 1.45-.34-.01-.67-.08-1-.22.56-.23 1.06-.65 1.39-1.23z" fill="#00b871"/><path d="m15.91 27.94v2.06h-2.25v-2.06c0-.79-.42-1.55-1.14-1.86-1.04-.44-1.77-1.48-1.77-2.7 0-1.62 1.3-2.93 2.91-2.93.4 0 .77.08 1.12.23-1.05.44-1.78 1.48-1.78 2.7s.73 2.26 1.77 2.7c.72.31 1.14 1.07 1.14 1.86z" fill="#d5dbe1"/><path d="m16.69 15.22c.11.06.22.12.33.16-.81.35-1.76.32-2.58-.16-1.39-.81-1.87-2.6-1.06-4.01.6-1.05 1.75-1.58 2.87-1.44.77.09 1.51-.36 1.9-1.04l1.38-2.48h2.25l-1.38 2.48c-.39.68-1.13 1.13-1.9 1.04-1.12-.14-2.27.39-2.87 1.44-.81 1.41-.33 3.2 1.06 4.01z" fill="#d5dbe1"/><path d="m15.538 13.98.001.002.001-.002z" fill="#00b871"/><path d="m14.746 15.353c-.102-.045-.208-.076-.306-.133-.516-.301-.905-.737-1.151-1.238l-.723 1.222c-.722 1.22-.941 2.673-.611 4.052l.367 1.535c.402-.211.852-.341 1.337-.341.307 0 .591.06.867.15l-.322-1.344c-.316-1.325-.114-2.713.542-3.903z" fill="#00b871"/><path d="m14.406 30h-1.5v-2.063c0-.522-.272-.99-.678-1.164-1.353-.579-2.228-1.911-2.228-3.393 0-2.032 1.64-3.685 3.656-3.685 1.184 0 2.238.57 2.906 1.451.668-.881 1.723-1.451 2.906-1.451 2.016 0 3.656 1.653 3.656 3.685 0 1.482-.875 2.814-2.229 3.393-.405.174-.678.642-.678 1.164v2.052h-1.5v-2.052c0-1.132.623-2.13 1.588-2.543.801-.343 1.318-1.133 1.318-2.014 0-1.205-.967-2.185-2.156-2.185s-2.156.98-2.156 2.185c0 .414-.336.75-.75.75s-.75-.336-.75-.75c0-1.205-.967-2.185-2.156-2.185s-2.155.981-2.155 2.185c0 .881.518 1.671 1.318 2.014.965.413 1.588 1.411 1.588 2.543z"/><path d="m20.921 19.302c-.635 0-1.261-.168-1.825-.497-1.024-.597-1.653-1.623-1.794-2.724-.151.063-.308.117-.469.16-.943.253-1.926.121-2.771-.371-1.742-1.016-2.342-3.272-1.337-5.029.736-1.287 2.159-2 3.618-1.818.438.052.898-.211 1.155-.662l1.506-2.635 1.302.745-1.507 2.635c-.563.983-1.601 1.536-2.643 1.405-.858-.109-1.696.314-2.131 1.074-.598 1.045-.243 2.387.791 2.989.495.289 1.073.366 1.626.218.558-.149 1.025-.511 1.314-1.017.206-.36.665-.484 1.023-.279.243.138.378.392.378.652 0 .126-.032.254-.099.371-.597 1.045-.243 2.386.791 2.989.495.289 1.071.366 1.626.219.558-.15 1.025-.511 1.314-1.017.437-.764.379-1.712-.146-2.416-.629-.842-.674-2.019-.113-2.999l3.479-5.57 1.272.794-3.463 5.545c-.245.429-.24.974.027 1.331.884 1.182.981 2.775.248 4.058-.489.856-1.28 1.468-2.228 1.722-.311.085-.628.127-.944.127z"/><path d="m21.965 21.6-1.214-.881c.542-.747.84-1.639.864-2.582l1.5.038c-.032 1.248-.429 2.432-1.15 3.425z"/><path d="m11.812 21.095c-.551-.92-.843-1.991-.843-3.095 0-1.682.667-3.25 1.877-4.415l.515.536.755-.005c0 .204-.083.409-.23.55-.914.879-1.417 2.063-1.417 3.333 0 .833.218 1.637.63 2.325z"/></svg>