<svg id="Line" height="512" viewBox="0 0 36 36" width="512" xmlns="http://www.w3.org/2000/svg"><path d="m4.377 27.728c0-6.917-3.583-11.667-3.583-15s1.916-10.334 17.249-10.334 17.583 9.417 17.583 13.083c.001 17.167-31.249 24.501-31.249 12.251z" fill="#f3efef"/><path d="m31.204 6.867c-.827 0-1.5-.673-1.5-1.5s.673-1.5 1.5-1.5 1.5.673 1.5 1.5-.673 1.5-1.5 1.5zm0-2c-.275 0-.5.224-.5.5s.225.5.5.5.5-.224.5-.5-.225-.5-.5-.5z" fill="#a4afc1"/><path d="m6.75 20.475c5.38.487 11.739-2.925 11.739-2.925v-.975c.163 5.235 4.371 7.696 5.87 12.675l4.891-.975-3.606-12.219c-.779-2.639-3.071-4.554-5.813-4.857l-13.081-1.449z" fill="#f3f3f1"/><path d="m6.75 9.75 2.25.25v10.48c-.75.06-1.51.07-2.25 0z" fill="#d5dbe1"/><path d="m28.53 28.487-3.605-12.219c-.695-2.355-2.728-4.053-5.177-4.324l-13.081-1.448.166-1.491 13.081 1.449c3.051.338 5.582 2.454 6.45 5.391l3.605 12.219z"/><path d="m23.856 30.184-.216-.718c-.607-2.017-1.711-3.639-2.778-5.209-1.486-2.184-3.022-4.442-3.123-7.659l-.023-.75 1.5-.047.023.75c.086 2.781 1.435 4.763 2.862 6.862 1.132 1.663 2.302 3.383 2.975 5.62l.217.718z"/><path d="m25.897 8.25h2.207v1.5h-2.207z" transform="matrix(.707 -.707 .707 .707 1.544 21.728)"/><path d="m27 12h3v1.5h-3z"/><path d="m22.5 6h1.5v3h-1.5z"/><path d="m7.166 16.374-.832-1.248.369-.246c1.867-1.244 4.157-1.551 6.284-.841l-.475 1.423c-1.687-.561-3.499-.318-4.978.667z"/><path d="m7.842 21.273c-.389 0-.776-.016-1.159-.051l.135-1.494c5.094.462 11.256-2.806 11.317-2.839l.709 1.322c-.249.133-5.771 3.062-11.002 3.062z"/></svg>