<svg id="Line" height="512" viewBox="0 0 36 36" width="512" xmlns="http://www.w3.org/2000/svg"><path d="m3.902 23.431c6.061 3.333 8.497 8.761 11.417 10.367 2.921 1.606 9.978 3.299 17.366-10.137s.221-19.945-2.992-21.711c-15.042-8.272-36.525 15.578-25.791 21.481z" fill="#f3efef"/><path d="m28.849 5.077c-.827 0-1.5-.673-1.5-1.5s.673-1.5 1.5-1.5 1.5.673 1.5 1.5-.673 1.5-1.5 1.5zm0-2c-.276 0-.5.224-.5.5s.224.5.5.5.5-.224.5-.5-.224-.5-.5-.5z" fill="#a4afc1"/><path d="m18.25 6.373-12 7.127 5.321 6.196c1.733 2.138 2.679 4.806 2.679 7.558v2.746h13.544l1.36-9.476c.472-3.119-.819-6.243-3.405-8.238l-7.499-5.786z" fill="#f3f3f1"/><g fill="#2fdf84"><path d="m17.75 30s.023-4.089.11-4.936c.108-1.049.645-1.751 1.406-2.101 1.312-.603 2.864.118 3.649 1.637.348.674.416 1.378.243 2.131-.083.363-.187.732-.338 1.052-.337.721-.487 2.217-.487 2.217z"/><path d="m11.25 6.25 5.82 5.82c.478.478 1.183.565 1.817.333.517-.189 1.114-.214 1.72-.008.756.256 1.349.904 1.553 1.676.442 1.672-.809 3.18-2.41 3.18-.2 0-.39-.02-.57-.07.039.14.06.286.067.437.053 1.09-.616 2.152-1.653 2.494-1.736.572-3.344-.708-3.344-2.361 0-.276.045-.542.127-.792.23-.693.131-1.451-.386-1.967l-7.741-7.742z"/><path d="m25.809 21.681c-.353.752-1.201.75-1.626.047-.582-.964-.578-2.514.009-3.473.418-.682 1.226-.674 1.614.031.667 1.21.51 2.316.003 3.395z"/></g><path d="m16.25 27.13v2.87h-2v-2.75c0-2.75-.95-5.42-2.68-7.55l-5.32-6.2 7.16-3.71-5.42 2.75 5.49 6.57c1.79 2.27 2.77 5.1 2.77 8.02z" fill="#d5dbe1"/><path d="m21.39 23.03c-.69.37-1.18 1.05-1.28 2.03-.09.85-.11 4.94-.11 4.94h-2.25s.02-4.09.11-4.94c.11-1.04.65-1.75 1.41-2.1.69-.32 1.45-.27 2.12.07z" fill="#00b871"/><path d="m18.42 19.61c-.24.23-.52.4-.83.5-1.73.57-3.34-.71-3.34-2.36 0-.28.04-.54.13-.79.23-.69.13-1.45-.39-1.97l-7.74-7.74 2.5-.5 7.74 7.74c.52.52.62 1.28.39 1.97-.09.25-.13.51-.13.79 0 1.09.7 2.01 1.67 2.36z" fill="#00b871"/><path d="m22.919 30.133-1.468-.296.147-.734c.007-.034.172-.843.543-1.636.105-.225.196-.511.286-.902.138-.602.081-1.116-.179-1.619-.602-1.165-1.75-1.726-2.669-1.3-.571.262-.898.766-.973 1.496-.068.666-.1 3.196-.106 4.115l-.005.75-1.5-.011.005-.751c.001-.138.025-3.385.114-4.258.129-1.259.782-2.219 1.838-2.706 1.663-.762 3.652.084 4.629 1.975.42.813.523 1.703.308 2.643-.114.499-.238.88-.39 1.204-.292.624-.43 1.29-.431 1.296z"/><path d="m25.007 23c-.584 0-1.127-.326-1.465-.885-.722-1.195-.717-3.063.011-4.252.339-.553.887-.89 1.48-.863.585.013 1.12.358 1.431.923.704 1.279.712 2.612.024 4.076-.279.594-.802.967-1.399.999-.027.002-.055.002-.082.002zm-.009-4.5c-.037 0-.104.045-.166.146-.438.716-.441 1.974-.006 2.694.072.12.136.169.185.16.022-.001.073-.039.12-.138.488-1.04.494-1.852.019-2.715-.055-.1-.117-.147-.152-.147.001 0 .001 0 0 0z"/><path d="m15 30h-1.5v-2.747c0-2.571-.892-5.087-2.511-7.085l-5.294-6.528 1.165-.944 5.293 6.528c1.836 2.264 2.847 5.115 2.847 8.029z"/><path d="m28.419 30.106-1.482-.231 1.475-9.467c.429-2.827-.767-5.713-3.121-7.529l-7.595-6.007.931-1.177 7.588 6.001c2.778 2.143 4.191 5.571 3.681 8.939z"/><path d="m16.749 21c-.68 0-1.339-.209-1.901-.615-.843-.61-1.347-1.595-1.347-2.635 0-.35.056-.696.166-1.027.155-.469.079-.917-.204-1.201l-7.774-7.772 1.061-1.061 7.772 7.772c.682.682.899 1.729.567 2.733-.059.18-.089.366-.089.556 0 .56.271 1.09.727 1.419.47.34 1.048.423 1.633.23.697-.23 1.176-.964 1.139-1.746-.005-.103-.019-.192-.041-.273-.072-.26.002-.54.193-.73s.472-.265.73-.192c.104.028.224.042.37.042.547 0 1.053-.25 1.388-.685.34-.441.446-.993.297-1.554-.14-.53-.56-.985-1.069-1.157-.412-.141-.835-.139-1.222.002-.949.345-1.946.152-2.605-.507l-5.85-5.85 1.061-1.061 5.85 5.85c.246.246.631.306 1.029.159.713-.26 1.48-.267 2.219-.014.987.334 1.768 1.175 2.038 2.194.266 1.006.063 2.046-.559 2.853-.572.743-1.414 1.194-2.337 1.261-.103 1.284-.962 2.438-2.161 2.833-.359.117-.723.176-1.081.176z"/></svg>