<svg id="Line" height="512" viewBox="0 0 36 36" width="512" xmlns="http://www.w3.org/2000/svg"><path d="m1.273 14.858c3.655 5.872 3.123 11.798 4.885 14.628s7.088 7.76 20.105-.343 9.951-17.286 8.014-20.399c-9.072-14.574-39.477-4.286-33.004 6.114z" fill="#f3efef"/><g fill="#a4afc1"><path d="m30.733 5.966h1v2h-1z" transform="matrix(.707 -.707 .707 .707 4.219 24.121)"/><path d="m26.667 1.9h1v2h-1z" transform="matrix(.707 -.707 .707 .707 5.906 20.06)"/><path d="m30.41 2.4h2v1h-2z" transform="matrix(.707 -.707 .707 .707 7.149 23.06)"/></g><path d="m29.25 18.477-2.996-4.02c-1.322-1.774-3.944-2.24-5.886-1.046-1.434.882-3.302.882-4.736 0-1.942-1.194-4.564-.728-5.886 1.046l-2.996 4.02z" fill="#f3f3f1"/><path d="m6.75 18.477 1.754-.684c2.003-.782 4.247-.725 6.206.157 2.088.94 4.493.94 6.58 0 1.959-.882 4.203-.939 6.206-.157l1.754.684c-7.5 6.364-15 6.364-22.5 0z" fill="#2fdf84"/><path d="m13.27 12.75c.42 0 .85.06 1.26.18-.9.24-1.71.76-2.28 1.53l-3 4.02h-2.5l3-4.02c.83-1.11 2.16-1.71 3.52-1.71z" fill="#d5dbe1"/><path d="m9.25 18.48c3.33 2.82 6.66 4.39 9.99 4.71-4.17.39-8.32-1.18-12.49-4.71l1.75-.69c1.35-.52 2.8-.67 4.2-.45-.58.08-1.15.24-1.7.45z" fill="#00b871"/><path d="m18 19.406c-1.228 0-2.455-.257-3.598-.772-1.769-.796-3.816-.849-5.626-.143l-1.754.684-.545-1.397 1.754-.684c2.179-.851 4.654-.789 6.786.172 1.896.854 4.068.854 5.965 0 2.132-.961 4.606-1.023 6.786-.172l1.754.684-.545 1.397-1.754-.684c-1.809-.706-3.857-.653-5.626.143-1.142.515-2.369.772-3.597.772z"/><path d="m18 24.004c-3.921 0-7.842-1.652-11.735-4.956-.302-.256-.353-.703-.116-1.02l2.996-4.02c1.567-2.102 4.589-2.646 6.88-1.236 1.201.737 2.75.738 3.951 0 2.291-1.409 5.313-.865 6.88 1.236l2.996 4.02c.236.317.186.764-.116 1.02-3.894 3.305-7.815 4.956-11.736 4.956zm-10.223-5.65c6.873 5.548 13.572 5.548 20.445 0l-2.57-3.449c-1.088-1.46-3.281-1.842-4.892-.855-1.676 1.031-3.844 1.031-5.521 0-1.609-.989-3.803-.606-4.892.854z"/></svg>