<svg id="Line" height="512" viewBox="0 0 36 36" width="512" xmlns="http://www.w3.org/2000/svg"><path d="m8.388 5.111c-1.805 6.677-6.504 10.327-7.374 13.545s-.846 10.476 13.956 14.477 19.432-4.501 20.388-8.041c4.48-16.571-23.773-31.806-26.97-19.981z" fill="#f3efef"/><g fill="#a4afc1"><path d="m6.143 2.055h2v1h-2z" transform="matrix(.707 -.707 .707 .707 .285 5.799)"/><path d="m2.077 6.121h2v1h-2z" transform="matrix(.707 -.707 .707 .707 -3.781 4.115)"/><path d="m2.577 1.379h1v2h-1z" transform="matrix(.707 -.707 .707 .707 -.781 2.872)"/></g><path d="m15.554 18.465c-2.015.233-3.845 1.351-4.95 3.063l-1.36 2.1c-.244.389-.674.622-1.134.622-.753 0-1.36-.603-1.36-1.351v-5.454c0-5.911 4.813-10.694 10.761-10.694h9.558c1.213 0 2.182.972 2.182 2.168 0 .486-.166.953-.46 1.342l-2.671 3.403c-1.692 2.168-4.04 3.685-6.652 4.356z" fill="#f3f3f1"/><path d="m11.75 13.75 1.004.439c1.82.796 2.996 2.594 2.996 4.581v10.48h3.5v-12.151c0-1.658.686-3.243 1.896-4.377l2.104-1.972z" fill="#f3f3f1"/><path d="m15.5 22.66c-2.1.44-4.22.61-6 .59 0 0 1.763-4.962 6.177-4.649z" fill="#2fdf84"/><path d="m19.25 21.42c3-.732 6-1.67 6-6.67 0 0-2.282 2.171-5.984 3.538z" fill="#2fdf84"/><path d="m9 17.44v5.46c0 .28.08.53.23.75-.25.38-.67.6-1.12.6-.75 0-1.36-.6-1.36-1.35v-5.46c0-5.91 4.81-10.69 10.76-10.69h2.25c-5.95 0-10.76 4.78-10.76 10.69z" fill="#d5dbe1"/><path d="m15.68 18.6-.02.34c-2.52.99-3.69 3.74-3.88 4.23-.8.07-1.57.09-2.28.08 0 0 1.76-4.96 6.18-4.65z" fill="#00b871"/><path d="m8.109 25c-1.163 0-2.109-.943-2.109-2.102v-5.454c0-6.31 5.164-11.444 11.511-11.444h9.558c1.616 0 2.931 1.309 2.931 2.918 0 .644-.212 1.264-.611 1.794l-2.68 3.414c-1.767 2.263-4.272 3.904-7.055 4.619l-.373-1.453c2.463-.633 4.682-2.085 6.247-4.09l2.672-3.405c.193-.256.3-.564.3-.879 0-.782-.643-1.418-1.432-1.418h-9.558c-5.519 0-10.01 4.461-10.01 9.944v5.454c0 .337.268.602.609.602.203 0 .395-.104.5-.271l1.365-2.109c1.227-1.898 3.229-3.138 5.494-3.4l.172 1.49c-1.817.21-3.424 1.204-4.406 2.725l-1.36 2.101c-.378.6-1.039.964-1.765.964z"/><path d="m16.5 29.25h-1.5v-10.48c0-1.689-1-3.217-2.547-3.894l-1.004-.439.602-1.374 1.004.439c2.093.915 3.445 2.983 3.445 5.268z"/><path d="m20 29.25h-1.5v-12.15c0-1.858.777-3.653 2.134-4.925l2.104-1.972 1.025 1.095-2.104 1.972c-1.055.988-1.659 2.384-1.659 3.83z"/><path d="m9.778 24.001c-.096 0-.191 0-.287-.001l.018-1.5c1.897.025 3.969-.183 5.837-.574l.309 1.468c-1.879.394-3.954.607-5.877.607z"/><path d="m19.428 22.148-.355-1.457c3.178-.776 5.428-1.656 5.428-5.941h1.499c0 5.794-3.955 6.76-6.572 7.398z"/></svg>