<svg id="Line" height="512" viewBox="0 0 36 36" width="512" xmlns="http://www.w3.org/2000/svg"><path d="m1.023 15.415c3.655 5.872 3.123 11.798 4.885 14.628s7.088 7.76 20.105-.343 9.951-17.286 8.014-20.399c-9.072-14.574-39.477-4.286-33.004 6.114z" fill="#f3efef"/><g fill="#a4afc1"><path d="m6.941 2.56h2v1h-2z" transform="matrix(.707 -.707 .707 .707 .162 6.511)"/><path d="m2.875 6.626h2v1h-2z" transform="matrix(.707 -.707 .707 .707 -3.904 4.827)"/><path d="m3.375 1.883h1v2h-1z" transform="matrix(.707 -.707 .707 .707 -.904 3.585)"/></g><path d="m9.75 9.25v3.603c0 1.252.25 2.491.736 3.645.819 1.945.959 4.108.398 6.142l-.796 2.884c-.224.814-.338 1.654-.338 2.498v1.228h16.5v-1.228c0-.844-.114-1.684-.338-2.498l-.796-2.884c-.561-2.034-.421-4.198.398-6.142.486-1.154.736-2.393.736-3.645v-3.603z" fill="#f3f3f1"/><path d="m27.25 6.75-1.701 3.741c-.487 1.071-1.555 1.759-2.731 1.759h-2.49c-.53 0-1.039-.211-1.414-.586l-.914-.914-.914.914c-.375.375-.884.586-1.414.586h-2.49c-1.176 0-2.244-.688-2.731-1.759l-1.701-3.741z" fill="#2fdf84"/><path d="m13.47 20.14c0 .84-.11 1.68-.34 2.5l-.79 2.88c-.23.82-.34 1.66-.34 2.5v1.23h-2.25v-1.23c0-.84.11-1.68.34-2.5l.79-2.88c.23-.82.34-1.66.34-2.5 0-1.24-.25-2.48-.73-3.64-.49-1.16-.74-2.39-.74-3.65v-3.6h2.25v3.6c0 1.26.25 2.49.74 3.65.48 1.16.73 2.4.73 3.64z" fill="#d5dbe1"/><path d="m15.43 12.25h-2.25c-1.17 0-2.24-.69-2.73-1.76l-1.7-3.74h2.25l1.7 3.74c.49 1.07 1.56 1.76 2.73 1.76z" fill="#00b871"/><path d="m10.5 29.25h-1.5v-1.229c0-.912.123-1.819.365-2.697l.796-2.884c.514-1.862.384-3.87-.366-5.651-.527-1.251-.795-2.576-.795-3.935v-3.604h1.5v3.604c0 1.159.228 2.287.678 3.353.88 2.092 1.032 4.447.429 6.633l-.796 2.884c-.206.748-.311 1.521-.311 2.298z"/><path d="m27 29.25h-1.5v-1.229c0-.777-.104-1.55-.311-2.298l-.796-2.884c-.604-2.186-.451-4.542.429-6.633.45-1.067.678-2.195.678-3.354v-3.602h1.5v3.604c0 1.36-.268 2.684-.795 3.936-.75 1.781-.88 3.789-.366 5.651l.796 2.884c.242.877.365 1.784.365 2.696z"/><path d="m22.818 13h-2.49c-.734 0-1.425-.286-1.944-.806l-.384-.383-.384.384c-.52.52-1.21.806-1.944.806h-2.49c-1.467 0-2.807-.863-3.414-2.198l-1.7-3.742 1.365-.62 1.7 3.741c.364.801 1.169 1.319 2.049 1.319h2.49c.329 0 .651-.133.884-.366l.914-.914c.293-.293.768-.293 1.061 0l.914.914c.232.233.555.366.884.366h2.49c.88 0 1.685-.518 2.049-1.319l1.7-3.741 1.365.62-1.7 3.741c-.608 1.335-1.948 2.198-3.415 2.198z"/><path d="m19.309 28h-2.617c-1.186 0-2.233-.756-2.609-1.88l-.044-.133 1.424-.473.044.132c.17.51.646.854 1.186.854h2.617c.539 0 1.016-.344 1.186-.855l.044-.131 1.424.473-.044.132c-.378 1.125-1.426 1.881-2.611 1.881z"/><path d="m19.309 24h-2.617c-1.186 0-2.233-.756-2.609-1.88l-.044-.133 1.424-.473.044.132c.17.51.646.854 1.186.854h2.617c.539 0 1.016-.344 1.186-.855l.044-.131 1.424.473-.044.132c-.378 1.125-1.426 1.881-2.611 1.881z"/><path d="m19.309 20h-2.617c-1.186 0-2.233-.756-2.609-1.88l-.044-.133 1.424-.473.044.132c.17.51.646.854 1.186.854h2.617c.539 0 1.016-.344 1.186-.855l.044-.131 1.424.473-.044.132c-.378 1.125-1.426 1.881-2.611 1.881z"/><path d="m17.25 16.75h1.5v10.5h-1.5z"/></svg>