<svg id="Line" height="512" viewBox="0 0 36 36" width="512" xmlns="http://www.w3.org/2000/svg"><path d="m34.864 20.459c-3.782-5.791-3.38-11.727-5.203-14.518s-7.255-7.603-20.093.782-9.572 17.5-7.566 20.569c9.388 14.373 39.561 3.423 32.862-6.833z" fill="#f3efef"/><path d="m29.25 5.504c-.827 0-1.5-.673-1.5-1.5s.673-1.5 1.5-1.5 1.5.673 1.5 1.5-.673 1.5-1.5 1.5zm0-2c-.275 0-.5.224-.5.5s.225.5.5.5.5-.224.5-.5-.225-.5-.5-.5z" fill="#a4afc1"/><path d="m8.771 29.25-.849-5.481c-.283-1.829-.217-3.695.195-5.499.268-1.176.404-2.376.404-3.581l.072-1.192c.073-1.209.865-2.255 2.009-2.653l2.391-.832c.922-.321 1.63-1.07 1.899-2.009l.358-1.253h5.5l.358 1.253c.268.939.977 1.688 1.899 2.009l2.391.832c1.144.398 1.936 1.444 2.009 2.653l.072 1.192c0 1.204.135 2.405.404 3.581.412 1.804.478 3.67.195 5.499l-.849 5.481z" fill="#f3f3f1"/><path d="m17.5 6.75-.36 1.25c-.27.94-.98 1.69-1.9 2.01l-2.39.83c-1.14.4-1.93 1.45-2.01 2.66l-.07 1.19c0 1.2-.13 2.4-.4 3.58-.41 1.8-.48 3.67-.2 5.5l.85 5.48h-2.25l-.85-5.48c-.28-1.83-.21-3.7.2-5.5.27-1.18.4-2.38.4-3.58l.07-1.19c.08-1.21.87-2.26 2.01-2.66l2.39-.83c.92-.32 1.63-1.07 1.9-2.01l.36-1.25z" fill="#d5dbe1"/><path d="m8.03 29.365-.849-5.481c-.299-1.933-.23-3.877.204-5.781.256-1.12.386-2.269.386-3.414l.072-1.237c.092-1.517 1.078-2.818 2.513-3.316l2.391-.832c.689-.24 1.223-.803 1.424-1.507l.358-1.252 1.441.412-.358 1.253c-.335 1.172-1.222 2.111-2.373 2.511l-2.391.832c-.86.299-1.452 1.08-1.507 1.99l-.071 1.192c.001 1.213-.142 2.474-.422 3.703-.393 1.718-.455 3.473-.185 5.217l.849 5.481z"/><path d="m27.97 29.365-1.482-.229.849-5.481c.271-1.744.208-3.5-.185-5.217-.28-1.229-.423-2.49-.423-3.748l-.07-1.147c-.055-.91-.646-1.69-1.507-1.989l-2.391-.832c-1.151-.4-2.038-1.339-2.373-2.511l-.358-1.253 1.441-.412.358 1.253c.201.703.734 1.266 1.424 1.506l2.391.832c1.435.498 2.421 1.8 2.513 3.316l.071 1.193c.001 1.19.131 2.339.387 3.459.435 1.903.503 3.848.204 5.781z"/><path d="m14.085 15.921-.67-1.342c.669-.334 1.085-1.008 1.085-1.756l1.5-.073v.073c0 1.32-.733 2.508-1.915 3.098z"/><path d="m21.915 15.921c-1.182-.59-1.915-1.778-1.915-3.098l1.5-.073v.073c0 .749.416 1.422 1.085 1.756z"/><path d="m17.25 15h1.5v13h-1.5z"/><path d="m12.485 29.397-1.471-.295.211-1.053c.339-1.696.349-3.417.03-5.114-.169-.904-.255-1.831-.255-2.754v-2.431h1.5v2.431c0 .831.077 1.665.23 2.478.354 1.887.343 3.799-.034 5.686z"/><path d="m23.515 29.397-.211-1.053c-.377-1.887-.388-3.799-.034-5.686.153-.813.23-1.647.23-2.478v-2.43h1.5v2.431c0 .923-.086 1.851-.256 2.755-.318 1.697-.309 3.417.03 5.114l.211 1.053z"/></svg>