<svg id="Line" height="512" viewBox="0 0 36 36" width="512" xmlns="http://www.w3.org/2000/svg"><path d="m13.871 34.797c6.298-2.859 12.105-1.559 15.14-2.936 3.035-1.378 8.617-6.016 2.28-19.978s-15.841-12.121-19.18-10.605c-15.632 7.094-9.395 38.581 1.76 33.519z" fill="#f3efef"/><path d="m4.825 7.753c-.827 0-1.5-.673-1.5-1.5s.673-1.5 1.5-1.5 1.5.673 1.5 1.5-.673 1.5-1.5 1.5zm0-2c-.275 0-.5.224-.5.5s.225.5.5.5.5-.224.5-.5-.224-.5-.5-.5z" fill="#a4afc1"/><path d="m14.636 12.994c.473-3.242 3.361-6.231 7.251-6.244 4.048-.013 7.364 3.292 7.362 7.339-.001 3.897-2.993 6.801-6.246 7.275-.853.124-1.516.789-1.641 1.642-.473 3.242-3.361 6.231-7.251 6.244-4.048.013-7.364-3.292-7.362-7.339.001-3.897 2.993-6.801 6.246-7.275.853-.124 1.517-.789 1.641-1.642z" fill="#f3f3f1"/><circle cx="13.5" cy="22.5" fill="#2fdf84" r="2.75"/><circle cx="22.5" cy="13.5" fill="#2fdf84" r="2.75"/><path d="m23.03 6.85c-3.32.5-5.72 3.22-6.14 6.14-.13.86-.79 1.52-1.64 1.65-3.26.47-6.25 3.37-6.25 7.27 0 3.66 2.71 6.71 6.22 7.24-.36.07-.73.1-1.11.1-4.05.01-7.36-3.29-7.36-7.34 0-3.9 2.99-6.8 6.25-7.27.85-.13 1.51-.79 1.64-1.65.47-3.24 3.36-6.23 7.25-6.24.39 0 .77.03 1.14.1z" fill="#d5dbe1"/><path d="m14.63 25c-.34.16-.73.25-1.13.25-1.52 0-2.75-1.23-2.75-2.75s1.23-2.75 2.75-2.75c.4 0 .79.09 1.13.25-.96.42-1.63 1.38-1.63 2.5s.67 2.08 1.63 2.5z" fill="#00b871"/><path d="m23.63 16c-.34.16-.73.25-1.13.25-1.52 0-2.75-1.23-2.75-2.75s1.23-2.75 2.75-2.75c.4 0 .79.09 1.13.25-.96.42-1.63 1.38-1.63 2.5s.67 2.08 1.63 2.5z" fill="#00b871"/><path d="m14.088 30c-2.149 0-4.174-.839-5.705-2.366-1.537-1.532-2.384-3.565-2.383-5.723.001-4.556 3.549-7.531 6.887-8.017.526-.076.931-.481 1.008-1.008.485-3.326 3.451-6.87 7.99-6.885h.027c2.149 0 4.174.839 5.705 2.366 1.537 1.532 2.384 3.565 2.383 5.723-.001 4.556-3.549 7.531-6.887 8.017-.526.076-.931.481-1.008 1.008-.485 3.326-3.45 6.87-7.99 6.885-.009 0-.018 0-.027 0zm7.824-22.5c-.008 0-.015 0-.021 0-3.701.013-6.117 2.896-6.512 5.603-.174 1.188-1.089 2.103-2.276 2.275-2.715.396-5.602 2.819-5.603 6.533 0 1.757.689 3.412 1.942 4.661 1.247 1.244 2.896 1.928 4.646 1.928h.021c3.701-.013 6.117-2.896 6.512-5.603.174-1.188 1.089-2.103 2.276-2.275 2.715-.396 5.602-2.819 5.603-6.533 0-1.757-.689-3.412-1.942-4.661-1.247-1.243-2.897-1.928-4.646-1.928z"/><path d="m17.25 12.739h1.5v10.522h-1.5z" transform="matrix(.707 -.707 .707 .707 -7.456 17.998)"/><path d="m13.5 26c-1.93 0-3.5-1.57-3.5-3.5s1.57-3.5 3.5-3.5 3.5 1.57 3.5 3.5-1.57 3.5-3.5 3.5zm0-5.5c-1.103 0-2 .897-2 2s.897 2 2 2 2-.897 2-2-.897-2-2-2z"/><path d="m22.5 17c-1.93 0-3.5-1.57-3.5-3.5s1.57-3.5 3.5-3.5 3.5 1.57 3.5 3.5-1.57 3.5-3.5 3.5zm0-5.5c-1.103 0-2 .897-2 2s.897 2 2 2 2-.897 2-2-.897-2-2-2z"/></svg>