<svg id="Line" height="512" viewBox="0 0 36 36" width="512" xmlns="http://www.w3.org/2000/svg"><path d="m27.878 4.018c-6.915.129-11.732-3.365-15.064-3.302s-10.297 2.11-10.01 17.44 9.744 17.404 13.41 17.336c17.164-.321 23.911-31.703 11.664-31.474z" fill="#f3efef"/><g fill="#a4afc1"><path d="m5.606 1.648h2v1h-2z" transform="matrix(.707 -.707 .707 .707 .416 5.3)"/><path d="m1.54 5.713h2v1h-2z" transform="matrix(.707 -.707 .707 .707 -3.65 3.616)"/><path d="m2.04.971h1v2h-1z" transform="matrix(.707 -.707 .707 .707 -.65 2.374)"/></g><path d="m6.782 27.486 1.96-9.357c1.05-5.015 5.541-8.448 10.495-8.022 2.075.179 4.144-.419 5.828-1.683l1.857-1.394c.561-.422 1.336-.359 1.827.148l.088.091c.339.35.483.854.381 1.338l-1.972 9.414c-1.045 4.991-5.5 8.419-10.432 8.027l-.579-.048c-2.35-.187-4.673.621-6.434 2.238l-.702.645c-.558.512-1.407.487-1.935-.059-.34-.351-.483-.854-.382-1.338z" fill="#f3f3f1"/><path d="m19.24 10.11c.13.01.27.02.41.02-4.19.43-7.74 3.61-8.66 8l-1.96 9.36c-.02.1-.03.2-.03.31 0 .32.1.63.31.89l-.21.19c-.56.51-1.41.49-1.94-.06-.27-.28-.41-.64-.41-1.02 0-.11.01-.21.03-.31l1.96-9.36c1.05-5.02 5.54-8.45 10.5-8.02z" fill="#d5dbe1"/><path d="m8.161 30.001c-.558 0-1.115-.22-1.537-.656-.514-.53-.729-1.283-.577-2.013l1.96-9.357c1.125-5.369 5.983-9.076 11.293-8.615 1.89.162 3.777-.383 5.313-1.536l1.857-1.394c.857-.645 2.067-.548 2.816.226l.087.089c.515.532.73 1.284.578 2.014l-1.972 9.414c-1.117 5.335-5.936 9.046-11.225 8.621l-.58-.046c-2.135-.168-4.27.576-5.868 2.043l-.702.645c-.411.377-.928.565-1.443.565zm-.645-2.361c-.049.239.021.492.186.662.246.255.629.267.89.028l.702-.645c1.905-1.748 4.453-2.631 7.001-2.433l.58.046c4.538.364 8.676-2.836 9.639-7.434l1.972-9.414c.05-.238-.021-.492-.187-.662l-.088-.088c-.229-.236-.582-.265-.839-.071l-1.858 1.394c-1.831 1.375-4.083 2.031-6.342 1.831-4.549-.387-8.727 2.801-9.696 7.429z"/><path d="m15.249 22.326-.498-1.415c.746-.262 1.588-.357 2.568-.286 2.15.153 4.115-1.178 4.565-3.096l1.011-4.307 1.46.343-1.011 4.307c-.616 2.626-3.24 4.452-6.131 4.25-.784-.057-1.408.008-1.964.204z"/><path d="m12.855 22.374-1.46-.343 1.002-4.266c.619-2.636 3.263-4.47 6.154-4.234.575.044 1.164-.037 1.702-.234l.517 1.408c-.737.271-1.543.387-2.333.321-2.167-.159-4.127 1.16-4.579 3.082z"/></svg>