<svg id="Line" height="512" viewBox="0 0 36 36" width="512" xmlns="http://www.w3.org/2000/svg"><path d="m27.442 4.018c-6.916.13-11.732-3.364-15.065-3.302s-10.295 2.11-10.009 17.44 9.744 17.404 13.41 17.336c17.164-.321 23.911-31.703 11.664-31.474z" fill="#f3efef"/><path d="m30.169 11.382c-.827 0-1.5-.673-1.5-1.5s.673-1.5 1.5-1.5 1.5.673 1.5 1.5-.673 1.5-1.5 1.5zm0-2c-.275 0-.5.224-.5.5s.225.5.5.5.5-.224.5-.5-.225-.5-.5-.5z" fill="#a4afc1"/><circle cx="14.5" cy="14.5" fill="#f3f3f1" r="5.75"/><path d="m15.63 20.14c-.36.07-.74.11-1.13.11-3.18 0-5.75-2.57-5.75-5.75s2.57-5.75 5.75-5.75c.39 0 .77.04 1.13.11-2.64.52-4.63 2.84-4.63 5.64s1.99 5.12 4.63 5.64z" fill="#d5dbe1"/><path d="m14.5 21c-3.584 0-6.5-2.916-6.5-6.5s2.916-6.5 6.5-6.5 6.5 2.916 6.5 6.5-2.916 6.5-6.5 6.5zm0-11.5c-2.757 0-5 2.243-5 5s2.243 5 5 5 5-2.243 5-5-2.243-5-5-5z"/><path d="m10.094 10.75c-.188 0-.376-.071-.521-.21l-1.222-1.179c-.135-.13-.314-.184-.504-.147-.185.038-.333.159-.408.331l-1.378-.59c.268-.624.824-1.076 1.489-1.21.338-.069.688-.05 1.012.049.016-.086.038-.171.063-.255.205-.665.689-1.204 1.329-1.478l.592 1.379c-.238.102-.411.294-.487.541-.076.248-.042.504.098.722l.57.894c.204.321.136.743-.158.984-.139.113-.307.169-.475.169z"/><path d="m18.25 10.5c-.221 0-.438-.097-.585-.281-.239-.298-.216-.729.055-1l.5-.5c.192-.192.298-.448.298-.72s-.105-.527-.298-.72l1.06-1.059c.476.475.721 1.094.735 1.718.977-.221 2.035.057 2.767.795l-1.064 1.056c-.479-.482-1.241-.568-1.813-.203l-1.252.797c-.125.079-.264.117-.403.117z"/><path d="m8.606 21.636c-.338-.563-.472-1.208-.407-1.834-.628.066-1.272-.07-1.835-.408l.771-1.286c.504.302 1.137.277 1.615-.064l.563-.403c.298-.213.706-.18.967.08.259.259.293.668.08.966l-.402.563c-.341.478-.366 1.111-.064 1.615z"/><path d="m25.792 26.747c-.852-2.448-1.926-2.774-3.285-3.187-1.562-.475-3.331-1.012-4.479-4.588l1.428-.458c.907 2.828 2.103 3.19 3.487 3.611 1.482.451 3.163.961 4.265 4.129z"/><path d="m25.046 29.939-.592-1.379c.787-.337 1.296-1.108 1.296-1.964l1.5-.096c0 1.553-.865 2.865-2.204 3.439z"/><path d="m27.161 27.357c-.302 0-.605-.048-.898-.146l.475-1.423c.37.122.76.084 1.099-.112.338-.196.566-.516.644-.899l.035-.176 1.471.297-.035.174c-.16.798-.656 1.492-1.361 1.901-.441.255-.934.384-1.43.384z"/><path d="m29.25 30c-1.816 0-3.31-1.364-3.474-3.172l-.023-.261 1.494-.135.023.26c.094 1.03.944 1.807 1.979 1.807v1.501z"/><path d="m19.192 16.752-.708-.787c-.591-.656-1.576-.72-2.246-.146l-.977-1.139c1.294-1.108 3.199-.985 4.338.281l.708.786z"/><path d="m10.471 14.604c-.263 0-.529-.038-.793-.117l-.894-.268.432-1.437.894.268c.578.173 1.197-.093 1.47-.635l1.342.671c-.477.95-1.436 1.518-2.451 1.518z"/></svg>