<svg id="Line" height="512" viewBox="0 0 36 36" width="512" xmlns="http://www.w3.org/2000/svg"><path d="m34.864 20.459c-3.782-5.791-3.38-11.727-5.203-14.518s-7.255-7.603-20.093.782-9.572 17.5-7.566 20.569c9.388 14.373 39.561 3.423 32.862-6.833z" fill="#f3efef"/><path d="m31.204 6.867c-.827 0-1.5-.673-1.5-1.5s.673-1.5 1.5-1.5 1.5.673 1.5 1.5-.673 1.5-1.5 1.5zm0-2c-.275 0-.5.224-.5.5s.225.5.5.5.5-.224.5-.5-.225-.5-.5-.5z" fill="#a4afc1"/><circle cx="17.5" cy="18.5" fill="#f3f3f1" r="7.75"/><circle cx="16.5" cy="16.5" fill="#2fdf84" r="1.75"/><path d="m18.63 26.17c-.37.05-.75.08-1.13.08-4.28 0-7.75-3.47-7.75-7.75s3.47-7.75 7.75-7.75c.38 0 .76.03 1.13.08-3.75.54-6.63 3.77-6.63 7.67s2.88 7.13 6.63 7.67z" fill="#d5dbe1"/><path d="m17.5 27c-4.687 0-8.5-3.813-8.5-8.5s3.813-8.5 8.5-8.5 8.5 3.813 8.5 8.5-3.813 8.5-8.5 8.5zm0-15.5c-3.859 0-7 3.14-7 7s3.141 7 7 7 7-3.14 7-7-3.141-7-7-7z"/><path d="m16.5 19c-1.379 0-2.5-1.122-2.5-2.5s1.121-2.5 2.5-2.5 2.5 1.122 2.5 2.5-1.121 2.5-2.5 2.5zm0-3.5c-.552 0-1 .449-1 1s.448 1 1 1 1-.449 1-1-.448-1-1-1z"/><path d="m16.5 23.5h-1.5v-.75c0-.965.785-1.75 1.75-1.75h.75v1.5h-.75c-.138 0-.25.112-.25.25z"/><path d="m20.25 21h-.75v-1.5h.75c.138 0 .25-.112.25-.25v-.75h1.5v.75c0 .965-.785 1.75-1.75 1.75z"/><path d="m18.25 10.5h-1.5c0-1.382-.983-2.582-2.339-2.853l-.809-.162.295-1.471.809.162c2.054.411 3.544 2.23 3.544 4.324z"/><path d="m17.569 8.988-1.139-.977.361-.421c.867-1.01 2.128-1.59 3.459-1.59v1.5c-.893 0-1.738.389-2.319 1.066z"/><path d="m25.006 15.205-.512-1.41c.458-.166.811-.526.967-.987.157-.462.097-.962-.165-1.374l-.179-.282 1.266-.805.179.281c.507.796.624 1.767.319 2.661-.304.896-.987 1.593-1.875 1.916z"/><path d="m28.538 14.487c-.126-.38-.398-.679-.766-.841-.363-.16-.768-.161-1.135.002l-.387-.648-.303-.686.083-.037c.744-.331 1.602-.332 2.348-.003.748.33 1.325.963 1.584 1.739z"/><path d="m9.353 19.235-.28-.056c-1.649-.33-2.883-1.674-3.067-3.347l1.49-.165c.113 1.02.865 1.84 1.871 2.041l.281.056z"/><path d="m6.606 20.636c-.618-1.032-.456-2.347.395-3.197l.218-.218 1.063 1.06-.219.219c-.364.364-.434.925-.169 1.365z"/><path d="m10.278 27.565c-.234 0-.473-.028-.71-.088l.363-1.455c.73.184 1.476-.239 1.692-.963l.157-.524 1.438.43-.157.525c-.377 1.258-1.527 2.075-2.783 2.075z"/><path d="m12.147 29.886-.795-1.271c.241-.151.385-.398.394-.68.01-.283-.116-.541-.347-.707l-.304-.216.869-1.223.31.22c.637.461.998 1.199.972 1.977-.027.777-.437 1.487-1.099 1.9z"/><path d="m22.201 28.724c-1.223 0-2.392-.677-2.974-1.841l-.148-.299 1.342-.669.148.298c.438.875 1.481 1.25 2.376.851l.609 1.371c-.44.196-.9.289-1.353.289z"/><path d="m18.75 30v-1.5c.55 0 1.04-.37 1.191-.898l1.441.412c-.333 1.169-1.416 1.986-2.632 1.986z"/><path d="m26.968 22.159c-.738 0-1.414-.338-1.858-.93l-.659-.878 1.198-.901.661.879c.158.211.397.331.659.331h.01c.266-.003.507-.129.661-.345l.437-.61 1.22.873-.436.61c-.436.61-1.116.964-1.865.973-.01-.002-.019-.002-.028-.002z"/><path d="m29.25 24c-1.356 0-2.587-.855-3.063-2.127l-.082-.199 1.389-.567.09.22c.266.71.932 1.174 1.666 1.174z"/><path d="m10.814 13.305-.261-.587c-.27-.608-.955-.932-1.598-.747l-.412-1.442c1.361-.387 2.81.293 3.381 1.58l.261.587z"/><path d="m10.909 11.87-1.199-.9c.17-.227.239-.508.194-.792-.044-.284-.196-.532-.428-.697l-.176-.131.9-1.2.16.12c.55.39.92.99 1.026 1.677.108.688-.062 1.37-.477 1.923z"/></svg>