<svg id="Line" height="512" viewBox="0 0 36 36" width="512" xmlns="http://www.w3.org/2000/svg"><path d="m8.837 4.271c6.917 0 11.667-3.583 15-3.583s10.333 1.916 10.333 17.25-9.417 17.583-13.083 17.583c-17.167 0-24.5-31.25-12.25-31.25z" fill="#f3efef"/><g fill="#a4afc1"><path d="m5.917 2.343h2v1h-2z" transform="matrix(.707 -.707 .707 .707 .016 5.724)"/><path d="m1.851 6.409h2v1h-2z" transform="matrix(.707 -.707 .707 .707 -4.05 4.039)"/><path d="m2.351 1.666h1v2h-1z" transform="matrix(.707 -.707 .707 .707 -1.05 2.797)"/></g><path d="m15.56 27.92c-.9 1.03-2.33 1.58-3.87 1.21-1.38-.32-2.5-1.44-2.82-2.82-.5-2.08.64-3.96 2.38-4.62.67-.26 1.12-.89 1.21-1.61.45-3.91 1.23-7.74 2.76-11.45.45-1.14 1.56-1.88 2.78-1.88s2.33.74 2.78 1.88c1.53 3.71 2.31 7.54 2.76 11.45.09.72.54 1.35 1.21 1.61 1.74.66 2.88 2.54 2.38 4.62-.32 1.38-1.44 2.5-2.82 2.82-1.54.37-2.97-.18-3.87-1.21-1.627 1.773-3.253 1.773-4.88 0z" fill="#f3f3f1"/><path d="m18 6.75c.39 0 .78.08 1.13.22-.74.29-1.35.88-1.66 1.66-1.53 3.71-2.31 7.54-2.76 11.45-.09.72-.54 1.35-1.21 1.61-1.74.66-2.88 2.54-2.38 4.62.31 1.32 1.35 2.4 2.65 2.77-.64.19-1.35.23-2.08.05-1.38-.32-2.5-1.44-2.82-2.82-.5-2.08.64-3.96 2.38-4.62.67-.26 1.12-.89 1.21-1.61.45-3.91 1.23-7.74 2.76-11.45.45-1.14 1.56-1.88 2.78-1.88z" fill="#d5dbe1"/><path d="m23.338 29.998c-1.321 0-2.564-.556-3.463-1.584l1.131-.986c.779.893 1.947 1.257 3.129.974 1.103-.256 2.01-1.164 2.265-2.26.438-1.821-.633-3.263-1.915-3.75-.917-.355-1.563-1.205-1.688-2.218-.511-4.438-1.372-8.013-2.709-11.257-.337-.852-1.174-1.417-2.088-1.417s-1.751.565-2.083 1.405c-1.341 3.255-2.202 6.83-2.712 11.261-.127 1.021-.772 1.87-1.684 2.223-1.288.489-2.358 1.931-1.922 3.746.256 1.103 1.163 2.01 2.26 2.265 1.185.282 2.355-.08 3.135-.973l1.131.986c-1.155 1.322-2.877 1.865-4.609 1.446-1.661-.384-2.989-1.711-3.376-3.379-.563-2.34.633-4.652 2.845-5.491.391-.152.673-.536.731-1.001.525-4.565 1.419-8.267 2.811-11.643.551-1.399 1.95-2.345 3.473-2.345s2.922.946 3.478 2.354c1.388 3.366 2.281 7.067 2.808 11.64.058.458.34.843.736.997 2.206.837 3.401 3.148 2.838 5.495-.386 1.662-1.714 2.989-3.381 3.375-.382.092-.765.137-1.141.137z"/><path d="m18 30c-1.185 0-2.296-.579-2.975-1.549-.428-.611-1.08-.951-1.775-.951h-.5v-1.5h.5c1.185 0 2.296.579 2.975 1.549.427.611 1.08.951 1.775.951s1.348-.34 1.746-.909c.708-1.012 1.819-1.591 3.004-1.591h.5v1.5h-.5c-.695 0-1.348.34-1.746.909-.708 1.012-1.819 1.591-3.004 1.591z"/></svg>