<svg id="Line" height="512" viewBox="0 0 36 36" width="512" xmlns="http://www.w3.org/2000/svg"><path d="m4.377 27.171c0-6.917-3.583-11.667-3.583-15s1.916-10.334 17.249-10.334 17.583 9.417 17.583 13.083c.001 17.167-31.249 24.501-31.249 12.251z" fill="#f3efef"/><g fill="#a4afc1"><path d="m5.816 1.653h2v1h-2z" transform="matrix(.707 -.707 .707 .707 .474 5.45)"/><path d="m1.75 5.719h2v1h-2z" transform="matrix(.707 -.707 .707 .707 -3.592 3.766)"/><path d="m2.25.977h1v2h-1z" transform="matrix(.707 -.707 .707 .707 -.592 2.524)"/></g><path d="m29.25 18.487-2.502-6.321c-1.284-3.243-4.493-4.399-6.938-2.498-1.063.826-2.555.826-3.618 0-2.445-1.9-5.654-.745-6.938 2.498l-2.504 6.321 2.186-2.828c1.583-2.048 4.378-2.733 6.735-1.65 1.478.679 3.181.679 4.659 0 2.357-1.083 5.153-.398 6.735 1.65z" fill="#f3f3f1"/><path d="m29.25 18.487c-6.818 6.491-15.682 6.491-22.5 0 7.5 11.684 15 11.684 22.5 0z" fill="#f3f3f1"/><path d="m27.5 15.75-1.551.93c-.622.373-1.333.57-2.058.57h-12.058c-.865 0-1.707-.281-2.4-.8l-.933-.7s3.117-4.668 9.782-1.022c0 0 5.193-3.595 9.218 1.022z" fill="#2fdf84"/><path d="m14.76 8.92c-1.36.4-2.58 1.53-3.26 3.25l-.79 2c-.67.35-1.28.85-1.77 1.49l-2.19 2.83 2.5-6.32c.87-2.18 2.6-3.42 4.38-3.42.38 0 .76.06 1.13.17z" fill="#d5dbe1"/><path d="m19.13 27.15c-4.13.66-8.25-2.23-12.38-8.66 1.45 1.38 2.99 2.47 4.59 3.26 2.59 3.21 5.19 5.01 7.79 5.4z" fill="#d5dbe1"/><path d="m29.25 19.237c-.226 0-.447-.102-.594-.292l-2.186-2.828c-1.379-1.784-3.774-2.37-5.829-1.427-1.678.771-3.604.771-5.284 0-2.052-.943-4.449-.356-5.828 1.427l-2.186 2.828c-.228.296-.641.379-.965.193-.324-.185-.464-.581-.326-.928l2.502-6.321c.754-1.905 2.155-3.263 3.843-3.723 1.474-.403 2.982-.079 4.253.909.795.618 1.904.616 2.699 0 1.271-.988 2.782-1.31 4.253-.909 1.688.46 3.089 1.818 3.843 3.723l2.502 6.321c.138.347-.002.743-.326.928-.116.067-.244.099-.371.099zm-15.622-9.736c-.278 0-.559.037-.835.113-1.229.335-2.265 1.366-2.844 2.828l-.722 1.824c1.844-1.588 4.467-1.991 6.756-.939 1.283.589 2.751.589 4.032 0 2.294-1.052 4.912-.649 6.757.939l-.722-1.824c-.579-1.462-1.615-2.493-2.844-2.828-1.003-.275-2.048-.045-2.938.646-1.336 1.038-3.203 1.038-4.539 0-.643-.501-1.369-.759-2.101-.759z"/><path d="m18 28c-4.005 0-8.002-3.064-11.881-9.108-.205-.319-.14-.742.153-.983s.721-.227.995.035c6.52 6.207 14.945 6.207 21.465 0 .275-.262.704-.277.995-.035.293.242.358.664.153.983-3.878 6.044-7.875 9.108-11.88 9.108zm-7.641-5.908c5.162 5.857 10.119 5.857 15.281 0-4.917 2.723-10.363 2.723-15.281 0z"/><path d="m23.892 18h-12.059c-1.021 0-2.032-.337-2.85-.95l-.934-.7.9-1.2.934.7c.559.419 1.251.65 1.949.65h12.059c.59 0 1.167-.16 1.672-.463l1.551-.93.771 1.286-1.551.93c-.736.443-1.581.677-2.442.677z"/><path d="m19 14h1.5v3.5h-1.5z"/><path d="m22.5 13.5h1.5v4h-1.5z"/><path d="m15.5 14h1.5v3.5h-1.5z"/><path d="m12 13.5h1.5v4h-1.5z"/></svg>