<svg id="Line" height="512" viewBox="0 0 36 36" width="512" xmlns="http://www.w3.org/2000/svg"><path d="m8.324 5.111c-1.805 6.677-6.504 10.327-7.374 13.545s-.847 10.476 13.955 14.477 19.432-4.501 20.388-8.041c4.481-16.571-23.772-31.806-26.969-19.981z" fill="#f3efef"/><path d="m1.813 9.334c-.827 0-1.5-.673-1.5-1.5s.673-1.5 1.5-1.5 1.5.673 1.5 1.5-.673 1.5-1.5 1.5zm0-2c-.276 0-.5.224-.5.5s.224.5.5.5.5-.224.5-.5-.225-.5-.5-.5z" fill="#a4afc1"/><path d="m15.066 6.75c-3.26.245-8.314 4.619-8.314 8.237 0 .479.049.968.147 1.448.499 2.495 2.25 4.549 4.636 5.449l.998.372c.831.313 1.712.47 2.582.47 1.135 0 2.259-.264 3.296-.783 1.741-.871 3.864-.391 5.067 1.154l4.792 6.403 2.728-2.163-7.394-8.379c-1.244-1.406-3.309-1.724-4.915-.756-1.351.814-2.955 1.093-4.5.783l-.905-.182c-.986-.198-1.826-.843-2.276-1.746-.712-1.432-.29-3.171.998-4.112l3.059-2.282v-3.913z" fill="#f3f3f1"/><ellipse cx="15.066" cy="8.707" fill="#2fdf84" rx="1.25" ry="1.957"/><path d="m23.123 18.5c2.399 2.041 5.5-3.904 6.008-7.612l.108-.773c.127-.998-.714-1.751-1.438-1.291-2.905 1.82-9.165 4.911-15.229 3.698 0 0-3.685 2.64-.894 5.317s6.807.266 7.747.161c.939-.104 1.362-1.487 3.698.5z" fill="#2fdf84"/><path d="m14.78 22.26c.47.18.96.3 1.45.37-.37.06-.74.09-1.12.09-.87 0-1.75-.15-2.58-.46l-1-.38c-2.38-.9-4.13-2.95-4.63-5.45-.1-.47-.15-.96-.15-1.44 0-3.62 5.06-8 8.32-8.24v.66c-2.92 1.4-6.07 4.73-6.07 7.58 0 .48.05.97.15 1.44.5 2.5 2.25 4.55 4.63 5.45z" fill="#d5dbe1"/><path d="m29.68 28.38-1.41 1.12-4.79-6.4c-.56-.71-1.3-1.19-2.11-1.42 1.58-.46 3.31.08 4.36 1.42z" fill="#d5dbe1"/><path d="m14.18 17.84c.64.61 1.34.96 2.05 1.12-1.47.28-3.16.22-4.55-1.12-2.79-2.68.89-5.32.89-5.32.73.15 1.46.23 2.19.25-.83.72-2.86 2.88-.58 5.07z" fill="#00b871"/><path d="m28.687 25.834-5.644-6.379c-1.004-1.134-2.672-1.391-3.966-.61-1.515.914-3.302 1.224-5.035.876l-.905-.182c-1.223-.246-2.243-1.028-2.8-2.148-.879-1.765-.363-3.89 1.227-5.051l3.053-2.277.896 1.202-3.059 2.282c-1.003.733-1.327 2.068-.775 3.177.349.701.988 1.191 1.752 1.345l.905.182c1.364.273 2.772.029 3.965-.69 1.914-1.155 4.379-.776 5.864.901l5.644 6.379z"/><path d="m27.679 29.711-4.793-6.153c-.979-1.256-2.718-1.655-4.14-.944-2.008 1.005-4.398 1.126-6.478.344l-.995-.371c-2.649-.999-4.558-3.243-5.11-6.005-.107-.522-.162-1.06-.162-1.595 0-4.012 5.287-8.706 9.008-8.985l.112 1.496c-2.94.22-7.62 4.349-7.62 7.489 0 .434.044.871.132 1.297.45 2.254 2.008 4.084 4.166 4.898l.995.371c1.713.645 3.629.546 5.281-.281 2.058-1.027 4.578-.454 5.994 1.364l4.793 6.153z"/><path d="m15.065 11.413c-1.122 0-2-1.189-2-2.707s.879-2.706 2-2.706 2 1.189 2 2.707-.878 2.706-2 2.706zm0-3.913c-.128 0-.5.415-.5 1.207s.372 1.207.5 1.207.5-.415.5-1.207-.371-1.207-.5-1.207z"/><path d="m24.146 19.854-.671-1.342c2.552-1.276 4.435-4.237 4.914-7.727l.108-.774c.037-.293-.094-.495-.192-.557-.042-.026-.057-.025-.101.002-2.533 1.587-9.135 5.13-15.778 3.8l.294-1.471c6.291 1.255 12.829-2.437 14.685-3.599.532-.338 1.171-.339 1.706.001.636.404.979 1.197.875 2.021l-.109.781c-.548 3.974-2.743 7.371-5.731 8.865z"/><path d="m13.21 19.092-.921-1.185c3.215-2.499 6.895-3.704 11.93-3.907l.061 1.5c-4.703.189-8.117 1.297-11.07 3.592z"/></svg>