<svg id="Line" height="512" viewBox="0 0 36 36" width="512" xmlns="http://www.w3.org/2000/svg"><path d="m34.864 20.459c-3.782-5.791-3.38-11.727-5.203-14.518s-7.255-7.603-20.093.782-9.572 17.5-7.566 20.569c9.388 14.373 39.561 3.423 32.862-6.833z" fill="#f3efef"/><g fill="#a4afc1"><path d="m4.914 2.446h1v2h-1z"/><path d="m4.914 8.196h1v2h-1z"/><path d="m1.414 5.696h2v1h-2z"/></g><path d="m10.55 18.64-2.23.51c-1.32.3-1.98 1.77-1.3 2.94.44.76.73 1.62.73 2.5v4.66h3v-5.51c0-.7.36-1.32.92-1.68z" fill="#f3f3f1"/><path d="m24.33 22.06c.56.36.92.98.92 1.68v5.51h3v-4.66c0-.88.29-1.74.73-2.5.68-1.17.02-2.64-1.3-2.94l-2.22-.51z" fill="#f3f3f1"/><path d="m20.25 12v-5.25c0 .69-1.007 1.25-2.25 1.25s-2.25-.56-2.25-1.25v5.25z" fill="#2fdf84"/><path d="m20.531 18.852-1.654.756c-.535.244-.877.775-.877 1.359v1.141c0 1.723 1.397 3.124 3.132 3.142 1.76.018 3.197-1.394 3.197-3.142 0-1.424.514-2.801 1.449-3.882l.012-.013c.942-1.089 1.461-2.477 1.461-3.913v-1.474c0-1.699-1.387-3.076-3.098-3.076-.822 0-1.61.324-2.191.901l-.637.632c-.882.875-2.078 1.367-3.325 1.367s-2.443-.492-3.324-1.367l-.637-.632c-.581-.577-1.369-.901-2.191-.901-1.711 0-3.098 1.377-3.098 3.076v1.514c0 1.405.506 2.763 1.428 3.83l.066.076c.921 1.066 1.428 2.425 1.428 3.83 0 1.735 1.417 3.142 3.165 3.142 1.747 0 3.164-1.407 3.164-3.142v-1.109c0-.584-.342-1.115-.877-1.36l-1.654-.756c-.535-.244-.877-.775-.877-1.36 0-1.217 1.386-1.925 2.384-1.218l.148.105c.524.372 1.228.372 1.752 0l.148-.105c.998-.708 2.384.001 2.384 1.218-.001.585-.344 1.116-.878 1.361z" fill="#f3f3f1"/><g fill="#d5dbe1"><path d="m15.97 25.01c-.35.14-.73.21-1.13.21-.88 0-1.67-.35-2.24-.92-.58-.57-.93-1.36-.93-2.22 0-1.41-.51-2.77-1.43-3.83l-.06-.08c-.92-1.07-1.43-2.43-1.43-3.83v-1.51c0-.85.35-1.62.91-2.18.56-.55 1.34-.9 2.19-.9.39 0 .77.07 1.13.21-.41.16-.77.39-1.07.69-.56.56-.91 1.33-.91 2.18v1.51c0 1.4.51 2.76 1.43 3.83l.06.08c.92 1.06 1.43 2.42 1.43 3.83 0 .86.36 1.65.93 2.22.31.31.69.56 1.12.71z"/><path d="m8.81 22.09c.44.76.73 1.62.73 2.5v4.66h-1.79v-4.66c0-.88-.29-1.74-.73-2.5-.68-1.17-.02-2.64 1.3-2.94l2.23-.51.12.38-.56.13c-1.32.3-1.98 1.77-1.3 2.94z"/><path d="m28.98 22.09c-.44.76-.73 1.62-.73 2.5v4.66h-1.75v-4.66c0-.88.29-1.74.73-2.5.68-1.17.02-2.64-1.3-2.94l-.59-.14.12-.37 2.22.51c1.32.3 1.98 1.77 1.3 2.94z"/></g><path d="m18 8v4h-2.25v-5.25c0 .69 1.01 1.25 2.25 1.25z" fill="#00b871"/><path d="m21.166 26c-.014 0-.028 0-.042 0-1.287-.014-2.429-.652-3.134-1.623-.713.964-1.862 1.59-3.154 1.59-2.159 0-3.915-1.746-3.915-3.892 0-1.224-.442-2.41-1.245-3.34l-.065-.076c-1.039-1.201-1.611-2.735-1.611-4.319v-1.514c0-2.11 1.726-3.826 3.848-3.826 1.027 0 1.993.397 2.719 1.119l.637.632c.736.73 1.755 1.149 2.796 1.149s2.06-.419 2.796-1.149l.637-.632c.726-.722 1.692-1.119 2.719-1.119 2.122 0 3.848 1.716 3.848 3.826v1.474c0 1.615-.583 3.18-1.644 4.404-.828.957-1.277 2.161-1.277 3.405 0 1.042-.409 2.022-1.153 2.758-.739.732-1.718 1.133-2.76 1.133zm-2.416-3.924v.032c0 1.305 1.072 2.378 2.39 2.392.64 0 1.269-.242 1.731-.7.457-.452.708-1.053.708-1.692 0-1.604.58-3.157 1.632-4.373.835-.965 1.289-2.18 1.289-3.435v-1.474c0-1.283-1.053-2.326-2.348-2.326-.619 0-1.225.249-1.663.683l-.637.632c-1.029 1.022-2.397 1.585-3.852 1.585s-2.823-.563-3.853-1.585l-.637-.632c-.438-.434-1.043-.683-1.663-.683-1.295 0-2.348 1.043-2.348 2.326v1.514c0 1.224.442 2.41 1.245 3.34l.065.076c1.039 1.203 1.61 2.737 1.61 4.32 0 1.319 1.083 2.392 2.415 2.392 1.331 0 2.414-1.073 2.414-2.392v-1.109c0-.29-.172-.556-.439-.678l-1.653-.756c-.799-.366-1.315-1.167-1.315-2.042 0-.842.466-1.606 1.217-1.994.755-.391 1.656-.327 2.35.164l.147.104c.265.188.62.188.885.001l.149-.106c.691-.492 1.592-.555 2.349-.164.751.388 1.217 1.152 1.217 1.994 0 .875-.516 1.676-1.315 2.042l-1.654.756c-.266.122-.438.388-.438.678v1.11zm-2.648-5.333c-.12 0-.24.029-.354.088-.122.063-.406.254-.406.662 0 .29.172.555.439.677l1.653.756c.209.096.399.221.565.37.166-.149.356-.274.565-.37l1.654-.756c.266-.122.438-.388.438-.677 0-.408-.284-.599-.406-.662-.26-.134-.557-.113-.793.055l-.149.105c-.783.556-1.836.556-2.619-.001l-.147-.104c-.134-.095-.286-.143-.44-.143z"/><path d="m8.5 30h-1.5v-5.41c0-.679-.218-1.413-.629-2.125-.441-.758-.494-1.654-.146-2.456.354-.813 1.056-1.393 1.928-1.591l2.378-.544.917 1.329-2.961.677c-.402.092-.725.356-.886.727-.156.36-.132.763.067 1.105.545.941.832 1.936.832 2.878z"/><path d="m11.5 30h-1.5v-6.26c0-.938.473-1.802 1.265-2.311l.631-.406.188 1.352-.008.316c-.36.231-.575.624-.575 1.049v6.26z"/><path d="m29 30h-1.5v-5.41c0-.942.287-1.937.831-2.875.2-.344.224-.747.068-1.107-.161-.37-.484-.635-.885-.726l-2.953-.678.981-1.204 2.306.419c.87.198 1.573.778 1.926 1.59.349.802.295 1.698-.146 2.458-.41.71-.628 1.444-.628 2.123z"/><path d="m26 30h-1.5v-6.26c0-.425-.215-.818-.575-1.049l-.171-.109.35-1.558.631.406c.792.508 1.265 1.372 1.265 2.31z"/><path d="m21 12h-1.5v-3.501c-.872.321-2.128.321-3 0v3.501h-1.5v-5.25c0-.414.336-.75.75-.75s.75.336.75.75c.039.131.561.5 1.5.5.933 0 1.454-.363 1.5-.505 0-.027.002-.055.005-.082.039-.377.358-.667.746-.667.414 0 .75.34.75.754v5.25z"/></svg>