<svg id="Line" height="512" viewBox="0 0 36 36" width="512" xmlns="http://www.w3.org/2000/svg"><path d="m4.377 27.171c0-6.917-3.583-11.667-3.583-15s1.916-10.334 17.249-10.334 17.583 9.417 17.583 13.083c.001 17.167-31.249 24.501-31.249 12.251z" fill="#f3efef"/><g fill="#a4afc1"><path d="m31.435 5.588h1v2h-1z" transform="matrix(.707 -.707 .707 .707 4.695 24.511)"/><path d="m27.369 1.522h1v2h-1z" transform="matrix(.707 -.707 .707 .707 6.385 20.452)"/><path d="m31.111 2.022h2v1h-2z" transform="matrix(.707 -.707 .707 .707 7.622 23.445)"/></g><path d="m20.25 16v-9.25c0 .828-1.007 1.5-2.25 1.5s-2.25-.672-2.25-1.5v9.25z" fill="#2fdf84"/><path d="m20.531 22.852-1.654.756c-.535.244-.877.775-.877 1.359v1.141c0 1.723 1.397 3.124 3.132 3.142 1.76.018 3.197-1.394 3.197-3.142 0-1.424.514-2.801 1.449-3.882l.012-.013c.942-1.089 1.461-2.477 1.461-3.913v-1.474c0-1.699-1.387-3.076-3.098-3.076-.822 0-1.61.324-2.191.901l-.637.632c-.882.875-2.078 1.367-3.325 1.367s-2.443-.492-3.324-1.367l-.637-.632c-.581-.577-1.369-.901-2.191-.901-1.711 0-3.098 1.377-3.098 3.076v1.514c0 1.405.506 2.763 1.428 3.83l.066.076c.921 1.066 1.428 2.425 1.428 3.83 0 1.735 1.417 3.142 3.165 3.142 1.747 0 3.164-1.407 3.164-3.142v-1.109c0-.584-.342-1.115-.877-1.36l-1.654-.756c-.535-.244-.877-.775-.877-1.36 0-1.217 1.386-1.925 2.384-1.218l.148.105c.524.372 1.228.372 1.752 0l.148-.105c.998-.708 2.384.001 2.384 1.218-.001.585-.344 1.116-.878 1.361z" fill="#f3f3f1"/><path d="m14.85 28.3c.31.31.69.56 1.12.71-.35.14-.73.21-1.13.21-.88 0-1.67-.35-2.24-.92-.58-.57-.93-1.36-.93-2.22 0-1.41-.51-2.77-1.43-3.83l-.06-.08c-.92-1.07-1.43-2.43-1.43-3.83v-1.51c0-.85.35-1.62.91-2.18.56-.55 1.34-.9 2.19-.9.39 0 .77.07 1.13.21-.41.16-.77.39-1.07.69-.56.56-.91 1.33-.91 2.18v1.51c0 1.4.51 2.76 1.43 3.83l.06.08c.92 1.06 1.43 2.42 1.43 3.83 0 .86.36 1.65.93 2.22z" fill="#d5dbe1"/><path d="m18 8.25v7.75h-2.25v-9.25c0 .83 1.01 1.5 2.25 1.5z" fill="#00b871"/><path d="m21.166 30c-.014 0-.028 0-.042 0-1.287-.014-2.429-.652-3.134-1.622-.713.963-1.861 1.59-3.154 1.59-2.159 0-3.915-1.746-3.915-3.892 0-1.225-.442-2.411-1.245-3.339l-.067-.078c-1.037-1.201-1.609-2.736-1.609-4.319v-1.514c0-2.11 1.727-3.826 3.849-3.826 1.026 0 1.992.397 2.719 1.119l.637.632c1.494 1.482 4.098 1.482 5.592 0l.637-.632c.725-.722 1.691-1.119 2.717-1.119 2.122 0 3.849 1.716 3.849 3.826v1.474c0 1.615-.584 3.179-1.644 4.404-.828.957-1.277 2.161-1.277 3.405 0 1.043-.409 2.022-1.152 2.758-.74.732-1.719 1.133-2.761 1.133zm-2.416-3.924v.032c0 1.305 1.072 2.378 2.39 2.392h.025c.645 0 1.25-.248 1.706-.7.457-.452.708-1.053.708-1.692 0-1.604.58-3.158 1.632-4.373.835-.965 1.289-2.181 1.289-3.435v-1.474c0-1.283-1.054-2.326-2.349-2.326-.619 0-1.225.249-1.662.683l-.637.632c-1.03 1.022-2.398 1.585-3.852 1.585s-2.822-.563-3.853-1.585l-.637-.632c-.438-.434-1.043-.683-1.662-.683-1.295 0-2.349 1.043-2.349 2.326v1.514c0 1.224.442 2.41 1.245 3.34l.067.078c1.036 1.2 1.608 2.734 1.608 4.318 0 1.319 1.083 2.392 2.415 2.392 1.331 0 2.414-1.073 2.414-2.392v-1.109c0-.29-.173-.556-.439-.678l-1.653-.756c-.8-.366-1.315-1.167-1.315-2.042 0-.842.466-1.606 1.217-1.994.756-.39 1.657-.328 2.351.164l.147.104c.266.188.62.188.886 0l.149-.105c.692-.491 1.593-.554 2.35-.164.751.388 1.217 1.152 1.217 1.994 0 .875-.516 1.675-1.314 2.042h-.001l-1.654.756c-.266.122-.438.388-.438.678v1.11zm-2.648-5.333c-.12 0-.24.029-.354.088-.122.063-.405.254-.405.662 0 .29.173.555.439.677l1.653.756c.209.096.399.221.565.371.166-.149.355-.275.564-.371l1.654-.756c.268-.122.439-.388.439-.677 0-.408-.283-.599-.405-.662-.261-.134-.557-.113-.795.055l-.149.105c-.781.555-1.835.555-2.618 0l-.147-.104c-.135-.096-.287-.144-.441-.144z"/><path d="m21 16h-1.5v-7.292c-.877.373-2.123.373-3 0v7.292h-1.5v-9.25c0-.414.336-.75.75-.75s.75.336.75.75c0 .306.584.75 1.5.75s1.5-.444 1.5-.75c0-.414.336-.75.75-.75s.75.336.75.75z"/><path d="m18 13c-1.683 0-3-.988-3-2.25h1.5c0 .306.584.75 1.5.75s1.5-.444 1.5-.75h1.5c0 1.262-1.317 2.25-3 2.25z"/></svg>