<svg id="Line" height="512" viewBox="0 0 36 36" width="512" xmlns="http://www.w3.org/2000/svg"><path d="m4.627 27.728c0-6.917-3.583-11.667-3.583-15s1.916-10.334 17.249-10.334 17.583 9.417 17.583 13.083c.001 17.167-31.249 24.501-31.249 12.251z" fill="#f3efef"/><g fill="#a4afc1"><path d="m31.513 6.14h1v2h-1z" transform="matrix(.707 -.707 .707 .707 4.324 24.723)"/><path d="m27.447 2.074h1v2h-1z" transform="matrix(.707 -.707 .707 .707 6.009 20.658)"/><path d="m31.189 2.575h2v1h-2z" transform="matrix(.707 -.707 .707 .707 7.254 23.662)"/></g><path d="m7.75 16.25c5.5.5 11-3 11-3l-1 .75v1.25c0 1.105.895 2 2 2h2.5c1.105 0 2-.895 2-2v-3.842c0-1.517-1.133-2.796-2.639-2.978l-13.861-1.68z" fill="#f3f3f1"/><path d="m22.75 24.5v-7h-3.5v7.25z" fill="#f3f3f1"/><path d="m28.25 28.199c0-.464-.317-.873-.78-1.007l-2.902-.836c-.689-.198-1.246-.688-1.513-1.329-.321-.771-1.099-1.277-1.964-1.277s-1.642.506-1.964 1.277l-.257.616c-.11.263-.274.502-.482.703-.409.392-.638.925-.638 1.48v.004c0 .785.662 1.421 1.48 1.421h7.926c.604-.001 1.094-.472 1.094-1.052z" fill="#2fdf84"/><path d="m7.75 6.75 2.25.27v9.23c-.74.06-1.5.07-2.25 0z" fill="#d5dbe1"/><path d="m21.5 24.59-2.25.16v-7.25h2.25z" fill="#d5dbe1"/><path d="m20.64 26.35c-.41.39-.64.92-.64 1.48 0 .78.66 1.42 1.48 1.42h-2.25c-.82 0-1.48-.64-1.48-1.42 0-.56.23-1.09.64-1.48.21-.21.37-.44.48-.71l.26-.61c.32-.77 1.1-1.28 1.96-1.28.41 0 .8.11 1.13.32-.37.22-.67.55-.84.96l-.26.61c-.11.27-.27.5-.48.71z" fill="#00b871"/><path d="m22.25 18h-2.5c-1.517 0-2.75-1.233-2.75-2.75v-1.25h1.5v1.25c0 .689.561 1.25 1.25 1.25h2.5c.689 0 1.25-.561 1.25-1.25v-3.842c0-1.136-.851-2.097-1.979-2.233l-13.861-1.68.18-1.489 13.861 1.68c1.881.228 3.299 1.828 3.299 3.722v3.842c0 1.517-1.233 2.75-2.75 2.75z"/><path d="m8.166 12.874-.832-1.248.369-.246c1.867-1.244 4.157-1.55 6.284-.841l-.475 1.423c-1.687-.561-3.5-.318-4.978.667z"/><path d="m8.856 17.049c-.39 0-.781-.017-1.175-.052l.137-1.494c5.174.474 10.477-2.852 10.529-2.886l.805 1.266c-.216.138-5.041 3.166-10.296 3.166z"/><path d="m18.5 17.5h1.5v7.25h-1.5z"/><path d="m22 17.5h1.5v7h-1.5z"/><path d="m27.155 30h-7.926c-1.229 0-2.229-.974-2.229-2.171 0-.758.317-1.495.869-2.025.135-.129.239-.281.311-.452l.255-.613c.439-1.056 1.482-1.739 2.656-1.739s2.217.683 2.656 1.738c.181.434.555.76 1.028.897l2.902.836c.779.224 1.323.935 1.323 1.728 0 .993-.827 1.801-1.845 1.801zm-6.064-5.5c-.558 0-1.068.328-1.271.815l-.256.615c-.152.362-.372.683-.654.955-.265.253-.409.586-.409.939 0 .374.327.675.729.675h7.926c.19 0 .345-.135.345-.301 0-.13-.096-.245-.238-.286l-2.902-.836c-.913-.264-1.642-.906-1.997-1.762-.208-.494-.707-.814-1.273-.814z"/></svg>