<svg id="Line" height="512" viewBox="0 0 36 36" width="512" xmlns="http://www.w3.org/2000/svg"><path d="m27.878 4.018c-6.915.129-11.732-3.365-15.064-3.302s-10.297 2.11-10.01 17.44 9.744 17.404 13.41 17.336c17.164-.321 23.911-31.703 11.664-31.474z" fill="#f3efef"/><path d="m6.199 5.026c-.827 0-1.5-.673-1.5-1.5s.673-1.5 1.5-1.5 1.5.673 1.5 1.5-.673 1.5-1.5 1.5zm0-2c-.276 0-.5.224-.5.5s.224.5.5.5.5-.224.5-.5-.224-.5-.5-.5z" fill="#a4afc1"/><path d="m18 27.25-1.984-16.11c-.239-1.24.715-2.39 1.984-2.39s2.223 1.15 1.984 2.39z" fill="#f3f3f1"/><path d="m17.77 11.14 1.11 8.99-.88 7.12-1.98-16.11c-.24-1.24.71-2.39 1.98-2.39.32 0 .62.07.88.2-.8.37-1.29 1.26-1.11 2.19z" fill="#d5dbe1"/><path d="m12.032 11.588c-1.91 0-3.814-.396-5.585-1.179l.606-1.372c2.675 1.184 5.694 1.374 8.499.537l.276-.083.431 1.437-.277.083c-1.291.386-2.622.577-3.95.577z"/><path d="m13.016 15.504c-1.902 0-3.805-.395-5.569-1.174l.605-1.372c2.542 1.122 5.406 1.35 8.064.643l.386 1.449c-1.139.304-2.313.454-3.486.454z"/><path d="m14.038 19.43c-1.92 0-3.839-.399-5.592-1.179l.609-1.37c2.331 1.036 4.993 1.317 7.493.789l.311 1.468c-.928.195-1.875.292-2.821.292z"/><path d="m14.98 23.345c-1.899 0-3.78-.395-5.534-1.172l.607-1.371c2.175.963 4.569 1.269 6.921.88l.244 1.48c-.744.122-1.492.183-2.238.183z"/><path d="m15.978 27.27c-1.897 0-3.784-.399-5.533-1.177l.61-1.37c1.994.887 4.19 1.219 6.346.963l.178 1.489c-.533.063-1.067.095-1.601.095z"/><path d="m23.968 11.588c-1.328 0-2.658-.191-3.949-.576l-.278-.083.431-1.437.277.083c2.806.837 5.823.646 8.498-.538l.606 1.372c-1.77.784-3.675 1.179-5.585 1.179z"/><path d="m22.984 15.504c-1.173 0-2.346-.15-3.486-.454l.386-1.449c2.659.707 5.523.479 8.064-.643l.605 1.372c-1.764.779-3.667 1.174-5.569 1.174z"/><path d="m21.962 19.43c-.947 0-1.894-.097-2.821-.293l.311-1.468c2.5.53 5.162.248 7.493-.789l.609 1.37c-1.752.781-3.672 1.18-5.592 1.18z"/><path d="m21.02 23.345c-.746 0-1.494-.061-2.238-.183l.244-1.48c2.353.387 4.745.083 6.921-.88l.607 1.371c-1.755.777-3.636 1.172-5.534 1.172z"/><path d="m20.022 27.27c-.534 0-1.068-.032-1.601-.095l.178-1.489c2.159.255 4.353-.076 6.346-.963l.61 1.37c-1.749.778-3.636 1.177-5.533 1.177z"/><path d="m18 28c-.379 0-.698-.282-.744-.658l-1.984-16.109c-.149-.759.063-1.588.588-2.225.529-.641 1.308-1.008 2.14-1.008s1.611.367 2.14 1.007c.525.637.737 1.466.581 2.276l-1.976 16.059c-.047.376-.366.658-.745.658zm0-18.5c-.382 0-.74.168-.983.462-.239.291-.336.668-.265 1.036l1.248 10.119 1.24-10.068c.079-.419-.018-.796-.257-1.087-.243-.294-.601-.462-.983-.462z"/></svg>