<svg id="Line" height="512" viewBox="0 0 36 36" width="512" xmlns="http://www.w3.org/2000/svg"><path d="m35.114 19.902c-3.782-5.791-3.38-11.727-5.203-14.518s-7.256-7.603-20.093.782-9.572 17.5-7.566 20.569c9.388 14.373 39.561 3.423 32.862-6.833z" fill="#f3efef"/><g fill="#a4afc1"><path d="m5.678 1.794h2v1h-2z" transform="matrix(.707 -.707 .707 .707 .334 5.394)"/><path d="m1.612 5.859h2v1h-2z" transform="matrix(.707 -.707 .707 .707 -3.732 3.71)"/><path d="m2.112 1.117h1v2h-1z" transform="matrix(.707 -.707 .707 .707 -.732 2.467)"/></g><ellipse cx="26" cy="15.5" fill="#f3f3f1" rx="3.25" ry="1.75"/><ellipse cx="22" cy="27" fill="#2fdf84" rx="2.25" ry="1.25"/><ellipse cx="16" cy="21" fill="#2fdf84" rx="2.25" ry="1.25"/><ellipse cx="19" cy="9" fill="#f3f3f1" rx="2.25" ry="1.25"/><path d="m27.13 17.14c-.35.07-.73.11-1.13.11-1.79 0-3.25-.78-3.25-1.75s1.46-1.75 3.25-1.75c.4 0 .78.04 1.13.11-1.24.24-2.13.88-2.13 1.64s.89 1.4 2.13 1.64z" fill="#d5dbe1"/><path d="m26 18c-2.28 0-4-1.075-4-2.5s1.72-2.5 4-2.5 4 1.075 4 2.5-1.72 2.5-4 2.5zm0-3.5c-1.551 0-2.5.647-2.5 1s.949 1 2.5 1 2.5-.647 2.5-1-.949-1-2.5-1z"/><path d="m22 29c-1.71 0-3-.86-3-2s1.29-2 3-2 3 .86 3 2-1.29 2-3 2zm0-2.5c-.939 0-1.461.369-1.501.508.04.123.562.492 1.501.492.921 0 1.44-.354 1.498-.5-.058-.146-.577-.5-1.498-.5z"/><path d="m20.239 17.494c-.142 0-.284-.008-.427-.025-.988-.115-1.86-.617-2.457-1.413-.53-.707-1.455-1.005-2.298-.741l-2.083.651-.447-1.432 2.083-.651c1.45-.454 3.034.059 3.946 1.273.348.464.855.756 1.431.823.577.067 1.137-.101 1.582-.471l.702-.584.96 1.152-.702.584c-.654.546-1.454.834-2.29.834z"/><path d="m18.035 28.715c-.085 0-.17-.004-.255-.013-.769-.076-1.456-.488-1.884-1.131-.267-.4-.773-.573-1.226-.421l-1.683.561-.475-1.423 1.683-.561c1.095-.367 2.309.051 2.948 1.012.178.267.463.438.783.47.319.028.633-.081.86-.308l.432-.432 1.061 1.061-.432.432c-.484.486-1.134.753-1.812.753z"/><path d="m16 23c-1.71 0-3-.86-3-2s1.29-2 3-2 3 .86 3 2-1.29 2-3 2zm0-2.5c-.939 0-1.461.369-1.501.508.04.123.562.492 1.501.492.921 0 1.44-.354 1.498-.5-.058-.146-.577-.5-1.498-.5z"/><path d="m12.035 22.715c-.085 0-.17-.004-.255-.013-.769-.076-1.456-.488-1.884-1.131-.267-.4-.772-.571-1.226-.421l-1.683.561-.475-1.423 1.683-.561c1.097-.365 2.309.051 2.948 1.012.178.267.463.438.783.47.319.029.633-.081.86-.308l.432-.432 1.061 1.061-.432.432c-.484.486-1.134.753-1.812.753z"/><path d="m19 11c-1.71 0-3-.86-3-2s1.29-2 3-2 3 .86 3 2-1.29 2-3 2zm0-2.5c-.939 0-1.461.369-1.501.508.04.123.562.492 1.501.492.921 0 1.44-.354 1.498-.5-.058-.146-.577-.5-1.498-.5z"/><path d="m15.035 10.715c-.085 0-.17-.004-.255-.013-.769-.076-1.456-.488-1.884-1.131-.267-.4-.772-.573-1.226-.421l-1.683.561-.474-1.422 1.683-.561c1.096-.366 2.308.051 2.948 1.012.178.267.463.438.783.47.321.03.633-.081.86-.308l.433-.432 1.06 1.06-.432.432c-.485.486-1.135.753-1.813.753z"/></svg>