<svg id="Line" height="512" viewBox="0 0 36 36" width="512" xmlns="http://www.w3.org/2000/svg"><path d="m14.121 34.547c6.298-2.859 12.105-1.559 15.14-2.936 3.035-1.378 8.617-6.016 2.28-19.978s-15.841-12.121-19.18-10.605c-15.632 7.094-9.395 38.581 1.76 33.519z" fill="#f3efef"/><g fill="#a4afc1"><path d="m6.299 5.642h1v2h-1z" transform="matrix(.707 -.707 .707 .707 -2.705 6.753)"/><path d="m2.233 1.576h1v2h-1z" transform="matrix(.707 -.707 .707 .707 -1.021 2.687)"/><path d="m5.976 2.076h2v1h-2z" transform="matrix(.707 -.707 .707 .707 .222 5.687)"/><path d="m1.91 6.142h2v1h-2z" transform="matrix(.707 -.707 .707 .707 -3.844 4.003)"/></g><path d="m21.25 11.75-.701 1.603c-.637 1.456-2.075 2.397-3.665 2.397h-10.884v3.5h11.135c1.459 0 2.802.794 3.505 2.072l1.61 2.928z" fill="#2fdf84"/><path d="m16.77 19.467c-.203 1.692-.764 3.336-1.605 4.882-1.228 2.221.464 4.901 3.074 4.901h.029c5.674 0 10.556-4.177 10.924-9.665.077-1.057.077-2.113 0-3.17-.367-5.488-5.249-9.665-10.924-9.665h-.019c-2.61 0-4.321 2.68-3.093 4.891.725 1.301 1.208 2.612 1.469 3.913z" fill="#f3f3f1"/><path d="m19.68 29.16c-.46.06-.93.09-1.41.09h-.03c-2.61 0-4.3-2.68-3.07-4.9.84-1.55 1.4-3.19 1.6-4.88l-.14-3.92c-.27-1.3-.75-2.61-1.47-3.91-1.23-2.21.48-4.89 3.09-4.89h.02c.48 0 .95.03 1.42.09-2.14.48-3.38 2.83-2.28 4.8.72 1.3 1.2 2.61 1.47 3.91l.14 3.92c-.2 1.69-.76 3.33-1.6 4.88-1.1 1.98.13 4.33 2.26 4.81z" fill="#d5dbe1"/><path d="m18.269 30c-1.564 0-2.938-.773-3.701-2.069-.724-1.228-.746-2.702-.059-3.945.819-1.506 1.331-3.058 1.517-4.608l1.49.179c-.209 1.741-.778 3.474-1.692 5.151-.436.789-.422 1.685.036 2.461.491.833 1.381 1.331 2.38 1.331 5.398 0 9.868-3.938 10.205-8.965.074-1.02.074-2.049 0-3.065-.337-5.032-4.807-8.97-10.176-8.97-1.026 0-1.923.502-2.418 1.345-.455.772-.469 1.659-.039 2.432.747 1.342 1.269 2.731 1.549 4.13l-1.471.295c-.25-1.246-.717-2.489-1.389-3.696-.685-1.232-.664-2.698.057-3.922.767-1.305 2.147-2.084 3.691-2.084 6.176 0 11.303 4.553 11.691 10.365.079 1.083.079 2.187 0 3.275-.388 5.807-5.515 10.36-11.671 10.36z"/><path d="m16.884 16.5h-10.884v-1.5h10.884c1.291 0 2.46-.765 2.979-1.947l1.001-2.291 1.374.601-1.001 2.291c-.758 1.729-2.466 2.846-4.353 2.846z"/><path d="m21.954 25.269-1.972-3.585c-.571-1.039-1.662-1.684-2.847-1.684h-11.135v-1.5h11.135c1.732 0 3.327.943 4.162 2.461l1.972 3.585z"/><path d="m24.558 17.539c-.643-1.542-2.137-2.539-3.808-2.539h-.5v-1.5h.5c2.278 0 4.316 1.359 5.192 3.461z"/><path d="m17.75 26v-1.5c1.022 0 1.927-.652 2.251-1.623l.287-.864 1.424.474-.288.865c-.529 1.584-2.006 2.648-3.674 2.648z"/><path d="m24.579 22.585-.149-.299c-.715-1.429-2.412-2.026-3.865-1.355l-.629-1.362c2.195-1.012 4.757-.112 5.836 2.047l.149.299z"/></svg>