<svg id="Line" height="512" viewBox="0 0 36 36" width="512" xmlns="http://www.w3.org/2000/svg"><path d="m35.261 20.256c-3.782-5.791-3.38-11.727-5.203-14.518s-7.256-7.603-20.093.782-9.572 17.5-7.566 20.569c9.387 14.372 39.561 3.423 32.862-6.833z" fill="#f3efef"/><g fill="#a4afc1"><path d="m31.435 6.823h1v2h-1z" transform="matrix(.707 -.707 .707 .707 3.822 24.873)"/><path d="m27.369 2.757h1v2h-1z" transform="matrix(.707 -.707 .707 .707 5.512 20.814)"/><path d="m31.111 3.257h2v1h-2z" transform="matrix(.707 -.707 .707 .707 6.748 23.807)"/></g><path d="m15.566 12.62s1.105 6.293-4.056 10.506c-1.778 1.451-2.76 3.671-2.76 5.972v.152h3.895l.332-1.667c.29-1.455 2.022-2.069 3.156-1.119l.177.148c1.88 1.574 4.553 1.757 6.628.454 2.682-1.684 4.312-4.638 4.312-7.816 0-3.719-2.225-7.074-5.642-8.506l-2.098-.879c-1.193-.399-1.997-1.521-1.997-2.784v-.331h-3.763v2.278c0 1.515.856 2.9 2.211 3.578l1.289.644z" fill="#f3f3f1"/><path d="m24.209 19.252-.347 1.714c-.215 1.062-.848 1.997-1.761 2.598-1.133.746-2.565.894-3.829.394l-.912-.36c-.839-.332-.804-1.517.054-1.8 1.426-.47 2.447-1.715 2.616-3.191.144-1.254 1.37-2.097 2.61-1.795 1.099.268 1.791 1.343 1.569 2.44z" fill="#2fdf84"/><path d="m13.76 23.13c-1.78 1.45-2.76 3.67-2.76 5.97v.15h-2.25v-.15c0-2.3.98-4.52 2.76-5.97 5.16-4.22 4.06-10.51 4.06-10.51l1.68.63-1.29-.64c-1.35-.68-2.21-2.07-2.21-3.58v-2.28h2.25v2.28c0 1.51.47 2.91 1.82 3.59h.18-.18s1.1 6.29-4.06 10.51z" fill="#d5dbe1"/><path d="m23.3 17.07c-.53.32-.91.87-.98 1.54-.17 1.47-1.19 2.72-2.62 3.19-.86.28-.89 1.47-.05 1.8l.91.36c.13.05.27.1.4.14-.37.1-.74.15-1.12.15-.52 0-1.04-.09-1.53-.29l-.91-.36c-.84-.33-.81-1.52.05-1.8 1.43-.47 2.45-1.72 2.62-3.19.12-1.09 1.05-1.86 2.1-1.86.17 0 .34.02.51.06.22.06.43.15.62.26z" fill="#00b871"/><path d="m19.807 25c-.612 0-1.227-.114-1.811-.344l-.911-.361c-.681-.269-1.105-.912-1.084-1.638.021-.727.484-1.343 1.179-1.572 1.144-.377 1.971-1.384 2.105-2.564.093-.806.529-1.536 1.199-2.003.678-.472 1.528-.632 2.334-.435 1.494.364 2.428 1.822 2.126 3.317l-.348 1.714c-.257 1.267-.996 2.359-2.083 3.076-.813.536-1.756.81-2.706.81zm2.327-7.5c-.281 0-.559.085-.792.248-.321.224-.522.559-.566.943-.201 1.76-1.429 3.258-3.127 3.818-.096.032-.146.096-.148.192-.003.095.043.162.136.199l.911.36c1.042.41 2.213.288 3.142-.323.751-.495 1.262-1.248 1.438-2.12l.348-1.714c.143-.704-.302-1.39-1.011-1.563-.111-.026-.222-.04-.331-.04z"/><path d="m16.915 13.921-1.289-.645c-1.62-.81-2.626-2.437-2.626-4.248v-2.278h1.5v2.278c0 1.239.688 2.353 1.796 2.907l1.289.645z"/><path d="m9.5 29.25h-1.5v-.152c0-2.589 1.106-4.978 3.035-6.553 4.766-3.891 3.802-9.736 3.792-9.795l1.477-.26c.049.275 1.119 6.776-4.319 11.217-1.58 1.289-2.485 3.253-2.485 5.391z"/><path d="m13.38 29.396-1.471-.293.332-1.667c.188-.947.843-1.703 1.75-2.023.908-.319 1.886-.142 2.623.476l.178.149c1.632 1.366 3.942 1.525 5.748.393 2.479-1.558 3.96-4.242 3.96-7.181 0-3.428-2.034-6.496-5.182-7.814l-2.098-.879c-1.449-.483-2.458-1.888-2.458-3.476v-.331h1.5v.331c0 .942.598 1.775 1.486 2.073l2.149.899c3.707 1.553 6.103 5.163 6.103 9.197 0 3.458-1.743 6.618-4.662 8.452-2.357 1.478-5.376 1.272-7.51-.514l-.178-.149c-.329-.276-.751-.352-1.16-.21-.403.142-.694.479-.778.901z"/></svg>