<svg id="Line" height="512" viewBox="0 0 36 36" width="512" xmlns="http://www.w3.org/2000/svg"><path d="m8.574 5.111c-1.805 6.677-6.504 10.327-7.374 13.545s-.847 10.476 13.955 14.477 19.432-4.501 20.388-8.041c4.481-16.571-23.772-31.806-26.969-19.981z" fill="#f3efef"/><path d="m3.49 5.397c-.827 0-1.5-.673-1.5-1.5s.673-1.5 1.5-1.5 1.5.673 1.5 1.5-.673 1.5-1.5 1.5zm0-2c-.276 0-.5.224-.5.5s.224.5.5.5.5-.224.5-.5-.224-.5-.5-.5z" fill="#a4afc1"/><path d="m15.566 12.62s1.105 6.293-4.056 10.506c-1.778 1.451-2.76 3.671-2.76 5.972v.152h3.895l.332-1.667c.29-1.455 2.022-2.069 3.156-1.119l.177.148c1.88 1.574 4.553 1.757 6.628.454 2.682-1.684 4.312-4.638 4.312-7.816 0-3.719-2.225-7.074-5.642-8.506l-2.098-.879c-1.193-.399-1.997-1.521-1.997-2.784v-.331h-3.763v2.278c0 1.515.856 2.9 2.211 3.578l1.289.644z" fill="#f3f3f1"/><path d="m13.76 23.13c-1.78 1.45-2.76 3.67-2.76 5.97v.15h-2.25v-.15c0-2.3.98-4.52 2.76-5.97 5.16-4.22 4.06-10.51 4.06-10.51l1.68.63-1.29-.64c-1.35-.68-2.21-2.07-2.21-3.58v-2.28h2.25v2.28c0 1.51.47 2.91 1.82 3.59h.18-.18s1.1 6.29-4.06 10.51z" fill="#d5dbe1"/><path d="m16.915 13.921-1.289-.645c-1.62-.809-2.626-2.437-2.626-4.248v-2.278h1.5v2.278c0 1.239.688 2.353 1.796 2.907l1.289.645z"/><path d="m9.5 29.25h-1.5v-.152c0-2.59 1.106-4.979 3.036-6.553 4.762-3.888 3.802-9.484 3.792-9.54l1.476-.27c.048.264 1.122 6.529-4.319 10.972-1.579 1.288-2.485 3.253-2.485 5.391z"/><path d="m13.38 29.396-1.471-.293.332-1.667c.188-.947.843-1.704 1.751-2.023.903-.32 1.884-.142 2.622.476l.177.148c1.635 1.368 3.944 1.527 5.748.394 2.48-1.558 3.96-4.242 3.96-7.181 0-3.428-2.034-6.495-5.182-7.814l-2.098-.879c-1.449-.483-2.457-1.888-2.457-3.476v-.331h1.5v.331c0 .942.597 1.775 1.485 2.073l2.15.898c3.708 1.554 6.103 5.164 6.103 9.198 0 3.458-1.743 6.618-4.663 8.452-2.356 1.48-5.373 1.272-7.509-.514l-.177-.148c-.331-.277-.754-.353-1.16-.211-.404.143-.695.479-.779.902z"/><path d="m14.724 19.999-.088-1.497c.343-.02.665-.173.904-.432l.18-.18c1.04-1.117 3.002-1.136 4.079.019.5.535 1.403.535 1.903 0 1.089-1.17 3.006-1.168 4.097 0l.142.142c.33.355.76.506 1.163.425l.294 1.471c-.923.186-1.87-.135-2.537-.855l-.14-.14c-.553-.591-1.405-.572-1.921-.019-1.064 1.142-3.032 1.142-4.097 0-.512-.548-1.392-.548-1.903 0l-.18.177c-.484.523-1.165.846-1.896.889z"/></svg>