<svg id="Line" height="512" viewBox="0 0 36 36" width="512" xmlns="http://www.w3.org/2000/svg"><path d="m9.087 4.214c6.917 0 11.667-3.583 15-3.583s10.333 1.916 10.333 17.25-9.417 17.583-13.083 17.583c-17.167 0-24.5-31.25-12.25-31.25z" fill="#f3efef"/><path d="m29.029 6.653c-.827 0-1.5-.673-1.5-1.5s.673-1.5 1.5-1.5 1.5.673 1.5 1.5-.673 1.5-1.5 1.5zm0-2c-.275 0-.5.224-.5.5s.225.5.5.5.5-.224.5-.5-.224-.5-.5-.5z" fill="#a4afc1"/><path d="m15.566 12.62s1.105 6.293-4.056 10.506c-1.778 1.451-2.76 3.671-2.76 5.972v.152h3.895l.332-1.667c.29-1.455 2.022-2.069 3.156-1.119l.177.148c1.88 1.574 4.553 1.757 6.628.454 2.682-1.684 4.312-4.638 4.312-7.816 0-3.719-2.225-7.074-5.642-8.506l-2.098-.879c-1.193-.399-1.997-1.521-1.997-2.784v-.331h-3.763v2.278c0 1.515.856 2.9 2.211 3.578l1.289.644z" fill="#f3f3f1"/><path d="m13.76 23.13c-1.78 1.45-2.76 3.67-2.76 5.97v.15h-2.25v-.15c0-2.3.98-4.52 2.76-5.97 5.16-4.22 4.06-10.51 4.06-10.51l1.68.63-1.29-.64c-1.35-.68-2.21-2.07-2.21-3.58v-2.28h2.25v2.28c0 1.51.47 2.91 1.82 3.59h.18-.18s1.1 6.29-4.06 10.51z" fill="#d5dbe1"/><path d="m16.915 13.921-1.289-.645c-1.62-.81-2.626-2.437-2.626-4.248v-2.278h1.5v2.278c0 1.239.688 2.353 1.796 2.907l1.289.645z"/><path d="m9.5 29.25h-1.5v-.152c0-2.589 1.106-4.978 3.035-6.553 4.766-3.891 3.802-9.736 3.792-9.795l1.477-.26c.049.275 1.119 6.776-4.319 11.217-1.58 1.289-2.485 3.253-2.485 5.391z"/><path d="m13.38 29.396-1.471-.293.332-1.667c.188-.947.843-1.703 1.75-2.023.908-.319 1.886-.142 2.623.476l.178.149c1.632 1.366 3.942 1.525 5.748.393 2.479-1.558 3.96-4.242 3.96-7.181 0-3.428-2.034-6.496-5.182-7.814l-2.098-.879c-1.449-.483-2.458-1.888-2.458-3.476v-.331h1.5v.331c0 .942.598 1.775 1.486 2.073l2.149.899c3.707 1.553 6.103 5.163 6.103 9.197 0 3.458-1.743 6.618-4.662 8.452-2.356 1.478-5.375 1.272-7.51-.514l-.178-.149c-.329-.276-.75-.352-1.16-.21-.403.142-.694.479-.778.901z"/></svg>