<svg id="Line" height="512" viewBox="0 0 36 36" width="512" xmlns="http://www.w3.org/2000/svg"><path d="m34.864 19.902c-3.782-5.791-3.38-11.727-5.203-14.518s-7.256-7.603-20.093.782-9.572 17.5-7.566 20.569c9.388 14.373 39.561 3.423 32.862-6.833z" fill="#f3efef"/><path d="m30.49 7.109c-.827 0-1.5-.673-1.5-1.5s.673-1.5 1.5-1.5 1.5.673 1.5 1.5-.673 1.5-1.5 1.5zm0-2c-.275 0-.5.224-.5.5s.225.5.5.5.5-.224.5-.5-.224-.5-.5-.5z" fill="#a4afc1"/><ellipse cx="12.5" cy="22.5" fill="#f3f3f1" rx="3.75" ry="4.75"/><ellipse cx="23.5" cy="22.5" fill="#f3f3f1" rx="3.75" ry="4.75"/><path d="m8.75 22.5c0-1.378.471-2.609 1.211-3.477l-.003-.01-.667-.552c-.408-.337-1.021-.266-1.32.176-.764 1.131-1.221 2.572-1.221 4.14 0 3.164 1.863 5.808 4.346 6.443.584.149 1.154-.297 1.154-.915v-.822l-.074-.275c-1.917-.211-3.426-2.225-3.426-4.708z" fill="#2fdf84"/><path d="m28.029 18.638c-.299-.442-.911-.514-1.32-.176l-.667.552-.003.01c.74.868 1.211 2.098 1.211 3.477 0 2.483-1.509 4.497-3.426 4.709l-.074.275v.822c0 .618.57 1.065 1.154.915 2.484-.635 4.346-3.279 4.346-6.443 0-1.569-.458-3.01-1.221-4.141z" fill="#2fdf84"/><path d="m27.25 22.5c0 2.62-1.68 4.75-3.75 4.75-.39 0-.77-.08-1.13-.21 1.53-.61 2.63-2.42 2.63-4.54s-1.1-3.93-2.63-4.54c.36-.13.74-.21 1.13-.21 2.07 0 3.75 2.13 3.75 4.75z" fill="#d5dbe1"/><path d="m13.63 27.04c-.36.13-.74.21-1.13.21-2.07 0-3.75-2.13-3.75-4.75s1.68-4.75 3.75-4.75c.39 0 .77.08 1.13.21-1.53.61-2.63 2.42-2.63 4.54s1.1 3.93 2.63 4.54z" fill="#d5dbe1"/><path d="m23.5 28c-2.481 0-4.5-2.467-4.5-5.5s2.019-5.5 4.5-5.5 4.5 2.467 4.5 5.5-2.019 5.5-4.5 5.5zm0-9.5c-1.654 0-3 1.794-3 4s1.346 4 3 4 3-1.794 3-4-1.346-4-3-4z"/><path d="m24.674 30c-.365 0-.723-.121-1.02-.352-.416-.322-.654-.812-.654-1.342v-.822h1.5v.822c0 .087.047.137.074.158.029.023.078.046.145.031 2.19-.561 3.781-2.965 3.781-5.717 0-1.356-.388-2.677-1.093-3.72-.009-.013-.033-.048-.091-.057-.025-.004-.079-.004-.13.038l-.666.552-.957-1.156.667-.552c.364-.3.842-.43 1.301-.366.455.066.863.322 1.119.702.883 1.305 1.35 2.882 1.35 4.559 0 3.427-2.064 6.442-4.91 7.17-.138.035-.277.052-.416.052z"/><path d="m30 22.5h-1.5v-2.25c0-2.113-1.01-4.132-2.7-5.4-2.066-1.55-3.3-4.017-3.3-6.6v-1.5h1.5v1.5c0 2.113 1.01 4.132 2.7 5.4 2.066 1.55 3.3 4.017 3.3 6.6z"/><path d="m12.5 28c-2.481 0-4.5-2.467-4.5-5.5s2.019-5.5 4.5-5.5 4.5 2.467 4.5 5.5-2.019 5.5-4.5 5.5zm0-9.5c-1.654 0-3 1.794-3 4s1.346 4 3 4 3-1.794 3-4-1.346-4-3-4z"/><path d="m11.326 30c-.139 0-.278-.018-.416-.053-2.846-.727-4.91-3.742-4.91-7.169 0-1.676.467-3.253 1.351-4.56.255-.379.663-.635 1.118-.701.459-.064.938.066 1.3.366l.668.552-.957 1.156-.667-.551c-.05-.042-.104-.042-.129-.038-.058.008-.082.044-.09.056-.706 1.043-1.094 2.363-1.094 3.72 0 2.752 1.591 5.156 3.781 5.717.064.015.114-.008.145-.031.027-.021.074-.071.074-.158v-.822h1.5v.822c0 .531-.238 1.02-.654 1.343-.297.23-.655.351-1.02.351z"/><path d="m7.5 22.5h-1.5v-2.25c0-2.583 1.233-5.05 3.3-6.6 1.69-1.268 2.7-3.287 2.7-5.4v-1.5h1.5v1.5c0 2.583-1.233 5.05-3.3 6.6-1.69 1.268-2.7 3.287-2.7 5.4z"/></svg>