<svg id="Line" height="512" viewBox="0 0 36 36" width="512" xmlns="http://www.w3.org/2000/svg"><path d="m9.087 31.381c6.917 0 11.667 3.583 15 3.583s10.333-1.917 10.333-17.25-9.416-17.583-13.083-17.583c-17.167 0-24.5 31.25-12.25 31.25z" fill="#f3efef"/><g fill="#a4afc1"><path d="m31.51 6.368h1v2.168h-1z" transform="matrix(.707 -.707 .707 .707 4.106 24.817)"/><path d="m27.101 1.959h1v2.169h-1z" transform="matrix(.707 -.707 .707 .707 5.935 20.412)"/><path d="m31.118 2.543h2.168v1h-2.168z" transform="matrix(.707 -.707 .707 .707 7.28 23.661)"/></g><path d="m17.962 6.75c4.573 0 8.288 3.727 8.288 8.315 0 1.774-.559 3.423-1.507 4.776-.921 1.315-1.418 2.885-1.418 4.492v4.916h-8.775v-3.913l-2.983.91c-.137.049-.283.068-.429.068-.809 0-1.462-.655-1.462-1.467v-3.424h-2.438c-.273 0-.488-.215-.488-.489 0-.098.029-.186.078-.264l2.277-3.627c.371-.591.57-1.277.57-1.976 0-.001 0-.002 0-.003 0-4.587 3.715-8.314 8.287-8.314z" fill="#f3f3f1"/><g fill="#d5dbe1"><path d="m11.92 24.85c0 .46.21.86.54 1.13l-.89.27c-.14.05-.29.07-.43.07-.81 0-1.47-.66-1.47-1.47v-3.43h1.576c.372 0 .674.302.674.674z"/><path d="m14.55 26.03 1.509-.463c.368-.113.741.162.741.547v3.135h-2.25z"/><path d="m19.09 6.83c-4.04.55-7.17 4.03-7.17 8.24h.01c0 .7-.2 1.38-.57 1.97l-2.28 3.63c-.05.08-.08.17-.08.26 0 .28.21.49.49.49h-2.25c-.28 0-.49-.21-.49-.49 0-.09.03-.18.08-.26l2.28-3.63c.37-.59.57-1.27.57-1.97h-.01c0-4.59 3.72-8.32 8.29-8.32.38 0 .76.03 1.13.08z"/></g><path d="m19.765 29.397-1.471-.294 1.14-5.71c.252-1.264-.243-2.519-1.292-3.272-1.047-.753-2.392-.822-3.51-.18l-4.591 2.621-.743-1.303 4.59-2.62c1.633-.937 3.6-.836 5.13.264 1.533 1.102 2.255 2.935 1.887 4.784z"/><path d="m23.325 30h-8.775c-.414 0-.75-.336-.75-.75v-2.9l-2.015.614c-.175.063-.404.102-.647.102-1.22 0-2.213-.995-2.213-2.218v-2.674h-1.688c-.682 0-1.237-.556-1.237-1.239 0-.23.066-.458.191-.66l2.279-3.63c.298-.474.455-1.02.455-1.576 0-5.002 4.054-9.069 9.037-9.069s9.038 4.067 9.038 9.065c0 1.872-.568 3.672-1.643 5.206-.839 1.198-1.282 2.603-1.282 4.062v4.917c0 .414-.336.75-.75.75zm-8.025-1.5h7.275v-4.167c0-1.769.537-3.471 1.554-4.922.897-1.281 1.371-2.783 1.371-4.346 0-4.171-3.381-7.565-7.538-7.565s-7.538 3.394-7.538 7.565c0 .842-.236 1.663-.684 2.377l-2.029 3.231h1.963c.414 0 .75.336.75.75v3.424c0 .396.32.718.713.718.069 0 .13-.009.176-.025l3.018-.921c.228-.069.474-.027.665.115.191.141.304.365.304.603z"/></svg>