<svg id="Line" height="512" viewBox="0 0 36 36" width="512" xmlns="http://www.w3.org/2000/svg"><path d="m8.574 5.668c-1.805 6.677-6.504 10.327-7.374 13.545s-.847 10.476 13.955 14.477 19.432-4.501 20.388-8.041c4.481-16.571-23.772-31.806-26.969-19.981z" fill="#f3efef"/><path d="m4.583 9.25c-.827 0-1.5-.673-1.5-1.5s.673-1.5 1.5-1.5 1.5.673 1.5 1.5-.673 1.5-1.5 1.5zm0-2c-.276 0-.5.224-.5.5s.224.5.5.5.5-.224.5-.5-.225-.5-.5-.5z" fill="#a4afc1"/><path d="m20.25 23.867v3.8c0 .874-1.007 1.583-2.25 1.583s-2.25-.709-2.25-1.583v-3.8z" fill="#f3f3f1"/><path d="m18.722 24.063c.254.699.945 1.173 1.729 1.185l.074.001c.964.015 1.797-.63 1.968-1.524l.251-1.313c.141-.74.491-1.431 1.012-2.001l.826-.904c.431-.471.668-1.072.668-1.694v-1.784c0-1.259-1.083-2.28-2.42-2.28-.654 0-1.269.24-1.725.668l-.498.468c-.692.65-1.629 1.016-2.607 1.016-.977 0-1.915-.365-2.606-1.016l-.499-.47c-.454-.427-1.069-.667-1.711-.667-1.346 0-2.435 1.024-2.434 2.288v1.121c0 1.042.397 2.048 1.118 2.838l.381.418c.517.567.865 1.254 1.007 1.99l.252 1.303c.17.881.985 1.52 1.935 1.52h.157c.75 0 1.418-.45 1.661-1.119l.017-.046c.235-.646 1.209-.646 1.444.002z" fill="#f3f3f1"/><path d="m20.25 15v-8.25c0 .69-1.007 1.25-2.25 1.25s-2.25-.56-2.25-1.25v8.25s2.421 2.184 4.5 0z" fill="#2fdf84"/><path d="m16.62 24.92c-.29.2-.64.31-1.02.31h-.16c-.95 0-1.76-.64-1.93-1.52l-.25-1.31c-.15-.73-.49-1.42-1.01-1.99l-.38-.41c-.72-.79-1.12-1.8-1.12-2.84v-1.12c0-.64.27-1.21.71-1.62.44-.42 1.05-.67 1.72-.67.4 0 .78.09 1.12.26-.22.11-.42.25-.59.41-.44.41-.71.98-.71 1.62v1.12c0 1.04.4 2.05 1.12 2.84l.38.41c.52.57.86 1.26 1.01 1.99l.25 1.31c.1.52.42.95.86 1.21z" fill="#d5dbe1"/><path d="m18 15s.5.45 1.24.74c-1.78.8-3.49-.74-3.49-.74v-8.25c0 .69 1.01 1.25 2.25 1.25z" fill="#00b871"/><path d="m19.13 29.044c-.33.137-.72.206-1.13.206-1.24 0-2.25-.642-2.25-1.432v-3.438l2.25-.162v3.599c0 .528.45.998 1.13 1.227z" fill="#d5dbe1"/><path d="m20.561 26c-.016 0-.032 0-.047 0-1.165-.018-2.138-.693-2.496-1.681l.705-.255-.706.255c-.401 1.012-1.352 1.66-2.416 1.66h-.157c-1.309 0-2.432-.895-2.671-2.128l-.252-1.303c-.116-.6-.401-1.163-.825-1.626l-.382-.418c-.847-.93-1.314-2.117-1.314-3.345v-1.121c0-.82.336-1.589.948-2.164 1.195-1.124 3.264-1.129 4.46-.004l.5.47c1.098 1.033 3.088 1.033 4.185 0l.498-.468c.598-.562 1.393-.872 2.239-.872 1.748 0 3.17 1.359 3.17 3.03v1.783c0 .81-.307 1.591-.864 2.2l-.826.904c-.427.467-.713 1.033-.829 1.637l-.251 1.313c-.237 1.242-1.355 2.133-2.669 2.133zm-2.561-3.173c.001 0 .001 0 0 0 .651 0 1.21.385 1.427.98.147.406.563.684 1.036.691.644-.004 1.192-.382 1.293-.913l.251-1.313c.168-.876.581-1.695 1.195-2.367l.826-.904c.304-.333.471-.754.471-1.188v-1.783c0-.844-.749-1.53-1.67-1.53-.462 0-.893.165-1.212.465l-.498.468c-.836.786-1.944 1.219-3.12 1.219s-2.284-.433-3.12-1.22l-.5-.47c-.635-.597-1.773-.591-2.405.003-.307.289-.476.669-.476 1.071v1.12c0 .854.327 1.682.922 2.334l.381.418c.61.668 1.021 1.482 1.189 2.353l.252 1.302c.103.529.606.913 1.198.913h.157c.436 0 .82-.251.956-.625.236-.639.797-1.024 1.447-1.024z"/><path d="m21 15h-1.5v-6.501c-.872.321-2.128.321-3 0v6.501h-1.5v-8.25c0-.414.336-.75.75-.75s.75.336.75.75c.039.131.561.5 1.5.5.933 0 1.454-.363 1.5-.505 0-.027.002-.055.005-.082.039-.377.358-.667.746-.667.414 0 .75.34.75.754v8.25z"/><path d="m18 13c-1.71 0-3-.86-3-2h1.5c.039.131.561.5 1.5.5s1.461-.369 1.501-.508l1.499.008c0 1.14-1.29 2-3 2z"/><path d="m18 30c-1.71 0-3-.86-3-2v-3h1.5v3c.039.131.561.5 1.5.5s1.461-.369 1.501-.508l-.001-2.992h1.5v3c0 1.14-1.29 2-3 2z"/></svg>