<svg id="Line" height="512" viewBox="0 0 36 36" width="512" xmlns="http://www.w3.org/2000/svg"><path d="m27.692 3.461c-6.916.13-11.732-3.364-15.065-3.302s-10.295 2.11-10.009 17.44 9.744 17.404 13.41 17.336c17.164-.321 23.911-31.703 11.664-31.474z" fill="#f3efef"/><path d="m29.399 3.123h2v1h-2z" fill="#a4afc1" transform="matrix(.029 -1 1 .029 25.888 33.903)"/><path d="m32.567 5.453h1v2h-1z" fill="#a4afc1" transform="matrix(.029 -1 1 .029 25.648 39.316)"/><path d="m23.38 19.022c1.957-.641 3.913-1.155 5.87-2.505-1.957 2.359-3.913 4.107-5.87 5.233z" fill="#f3f3f1"/><path d="m12.62 19.022c-1.957-.641-3.913-1.155-5.87-2.505 1.957 2.359 3.913 4.107 5.87 5.233z" fill="#f3f3f1"/><path d="m18 21.25v-3.5c0-1.105-.895-2-2-2h-1.25c-1.105 0-2 .895-2 2v4.25c0 2.899 2.351 5.25 5.25 5.25s5.25-2.351 5.25-5.25v-4.25c0-1.105-.895-2-2-2h-1.25c-1.105 0-2 .895-2 2z" fill="#2fdf84"/><path d="m29.25 16.517-2.502-5.042c-1.284-2.587-4.493-3.509-6.938-1.993-1.11.688-2.509.688-3.618 0-2.445-1.516-5.654-.594-6.938 1.993l-2.504 5.042 2-2.184c1.721-1.879 4.471-2.433 6.793-1.369 1.559.714 3.354.714 4.913 0 2.323-1.064 5.073-.51 6.793 1.369z" fill="#f3f3f1"/><path d="m14.76 8.88c-1.36.33-2.58 1.23-3.26 2.6l-.7 1.42c-.76.31-1.46.79-2.05 1.43l-2 2.19 2.5-5.04c.87-1.74 2.6-2.73 4.39-2.73.37 0 .75.04 1.12.13z" fill="#d5dbe1"/><path d="m19.13 27.12c-.36.09-.74.13-1.13.13-2.9 0-5.25-2.35-5.25-5.25v-4.25c0-1.1.9-2 2-2h1.25c.17 0 .34.02.5.07-.86.22-1.5 1-1.5 1.93v4.25c0 2.52 1.77 4.62 4.13 5.12z" fill="#00b871"/><path d="m29.25 17.267c-.204 0-.406-.083-.553-.244l-2-2.184c-1.509-1.646-3.893-2.126-5.929-1.193-1.76.806-3.777.806-5.537 0-2.036-.931-4.42-.454-5.929 1.193l-2 2.184c-.252.276-.67.323-.977.112-.309-.211-.414-.617-.248-.952l2.502-5.042c.708-1.425 1.987-2.492 3.511-2.926 1.517-.431 3.154-.202 4.495.628.871.541 1.957.541 2.828 0 1.342-.831 2.982-1.058 4.495-.628 1.523.434 2.803 1.5 3.511 2.926l2.502 5.042c.166.335.061.741-.248.952-.128.089-.276.132-.423.132zm-15.611-7.769c-.379 0-.76.053-1.138.161-1.134.323-2.05 1.086-2.577 2.15l-.471.948c1.876-1.231 4.284-1.443 6.403-.474 1.361.624 2.926.624 4.287 0 2.119-.972 4.528-.758 6.403.474l-.471-.948c-.527-1.063-1.443-1.827-2.577-2.15-1.126-.322-2.298-.158-3.294.461-1.361.842-3.049.842-4.41 0-.662-.412-1.402-.622-2.155-.622z"/><path d="m23.755 22.4-.748-1.3c.939-.541 1.89-1.242 2.843-2.096-.492.172-.98.328-1.465.482l-.771.248-.467-1.426.781-.251c1.691-.54 3.289-1.05 4.896-2.158.306-.212.725-.167.979.111.252.276.263.697.023.985-2.008 2.424-4.052 4.242-6.071 5.405z"/><path d="m12.245 22.4c-2.02-1.163-4.063-2.981-6.072-5.404-.239-.288-.229-.708.023-.985.255-.278.673-.323.979-.111 1.606 1.108 3.204 1.618 4.896 2.158l.781.251-.467 1.426-.771-.248c-.484-.155-.973-.311-1.465-.482.953.854 1.903 1.555 2.843 2.096z"/><path d="m18 28c-3.309 0-6-2.691-6-6v-4.25c0-1.517 1.233-2.75 2.75-2.75h1.25c.787 0 1.498.333 2 .864.502-.531 1.213-.864 2-.864h1.25c1.517 0 2.75 1.233 2.75 2.75v4.25c0 3.309-2.691 6-6 6zm-3.25-11.5c-.689 0-1.25.561-1.25 1.25v4.25c0 2.481 2.019 4.5 4.5 4.5s4.5-2.019 4.5-4.5v-4.25c0-.689-.561-1.25-1.25-1.25h-1.25c-.689 0-1.25.561-1.25 1.25v3.5c0 .414-.336.75-.75.75s-.75-.336-.75-.75v-3.5c0-.689-.561-1.25-1.25-1.25z"/></svg>