<svg id="Line" height="512" viewBox="0 0 36 36" width="512" xmlns="http://www.w3.org/2000/svg"><path d="m1.023 14.858c3.655 5.872 3.123 11.798 4.885 14.628s7.088 7.76 20.105-.343 9.951-17.286 8.014-20.399c-9.072-14.574-39.477-4.286-33.004 6.114z" fill="#f3efef"/><g fill="#a4afc1"><path d="m31.185 5.338h1v2h-1z" transform="matrix(.707 -.707 .707 .707 4.799 24.261)"/><path d="m27.119 1.272h1v2h-1z" transform="matrix(.707 -.707 .707 .707 6.489 20.202)"/><path d="m30.861 1.772h2v1h-2z" transform="matrix(.707 -.707 .707 .707 7.725 23.195)"/></g><path d="m29.25 18.368-2.502-6.321c-1.284-3.243-4.493-4.399-6.938-2.498-1.11.862-2.509.862-3.618 0-2.445-1.9-5.654-.745-6.938 2.498l-2.504 6.321 2.455-3.91c1.392-2.217 4.224-3.058 6.609-1.962 1.387.637 2.985.637 4.371 0 2.385-1.096 5.217-.255 6.609 1.962z" fill="#f3f3f1"/><path d="m29.25 18.487c-7.5 7.14-15 7.14-22.5 0 7.5 11.684 15 11.684 22.5 0z" fill="#f3f3f1"/><path d="m24.25 22.25c-.078-.473-.127-.861-.207-1.241-.491-2.346-1.642-4.137-3.666-5.159-.215-.109-.594-.149-.737-.015-.135.126-.114.538-.064.801 0 0 .162.362.391 1.067.384 1.185.118 2.238-.727 2.909-.715.568-1.798.56-2.489-.017-.838-.7-1.08-1.731-.681-2.922.116-.347.284-.68.353-1.038.051-.263.071-.674-.064-.801-.143-.134-.522-.094-.737.015-2.024 1.022-3.175 2.812-3.666 5.159-.079.38-.129.768-.207 1.241.001.001 5.992 4.036 12.501.001z" fill="#2fdf84"/><path d="m14.76 8.8c-1.36.4-2.58 1.53-3.26 3.25l-.21.53c-.83.41-1.56 1.05-2.08 1.88l-2.46 3.91 2.5-6.32c.87-2.18 2.6-3.42 4.38-3.42.38 0 .76.06 1.13.17z" fill="#d5dbe1"/><path d="m19.13 27.15c-4.13.66-8.25-2.23-12.38-8.66 1.64 1.56 3.28 2.78 4.92 3.66 2.48 2.96 4.97 4.63 7.46 5z" fill="#d5dbe1"/><path d="m14 22.25s2.14 1.44 5.26 1.73c-4.29.44-7.51-1.73-7.51-1.73.08-.47.13-.86.21-1.24.49-2.35 1.64-4.14 3.66-5.16.22-.11.6-.15.74-.02.13.13.11.54.06.81-.02.09-.04.19-.08.28-1.1 1.03-1.78 2.42-2.13 4.09-.08.38-.13.77-.21 1.24z" fill="#00b871"/><path d="m29.251 19.237c-.251 0-.494-.126-.636-.351l-2.455-3.91c-1.189-1.894-3.625-2.617-5.661-1.68-1.588.729-3.41.729-4.998 0-2.036-.938-4.471-.214-5.661 1.68l-2.455 3.91c-.206.328-.627.447-.974.27-.346-.175-.501-.584-.358-.945l2.502-6.321c.754-1.905 2.155-3.263 3.843-3.723 1.473-.403 2.982-.079 4.253.909.846.656 1.854.656 2.699 0 1.27-.988 2.777-1.312 4.253-.909 1.688.46 3.089 1.818 3.843 3.723l2.502 6.321c.143.36-.013.77-.358.945-.11.055-.225.081-.339.081zm-15.623-9.736c-.278 0-.559.037-.835.113-1.229.335-2.265 1.366-2.844 2.828l-.122.308c1.727-1.417 4.175-1.792 6.301-.817 1.189.547 2.555.547 3.744 0 2.124-.975 4.574-.6 6.301.817l-.122-.308c-.579-1.462-1.615-2.493-2.844-2.828-1.003-.274-2.048-.044-2.938.646-1.379 1.07-3.16 1.071-4.539 0-.644-.501-1.37-.759-2.102-.759z"/><path d="m18 28c-4.005 0-8.002-3.064-11.881-9.108-.205-.319-.14-.742.153-.983.292-.242.72-.227.995.035 7.221 6.876 14.244 6.876 21.465 0 .276-.262.704-.277.995-.035.293.242.358.664.153.983-3.878 6.044-7.875 9.108-11.88 9.108zm-7.31-5.54c4.938 5.368 9.682 5.368 14.619 0-4.865 2.86-9.753 2.86-14.619 0z"/><path d="m23.51 22.372-.071-.454c-.041-.27-.078-.514-.129-.755-.436-2.081-1.381-3.536-2.887-4.434.069.185.158.433.259.742.476 1.47.112 2.863-.974 3.727-.995.79-2.471.777-3.437-.027-1.075-.898-1.407-2.26-.911-3.737.044-.13.094-.26.145-.389.045-.116.092-.231.13-.349-1.538.894-2.504 2.359-2.943 4.466-.052.242-.089.487-.13.756l-.071.454-1.48-.244.069-.438c.046-.299.088-.569.145-.836.561-2.688 1.928-4.597 4.062-5.674.384-.195 1.123-.326 1.587.105.425.399.362 1.106.288 1.492-.059.301-.165.573-.258.813-.042.106-.084.213-.12.321-.301.898-.149 1.607.45 2.108.416.347 1.107.348 1.543.004.76-.604.68-1.47.479-2.09-.205-.634-.353-.97-.362-.991l-.052-.165c-.074-.386-.137-1.093.286-1.49.466-.433 1.206-.303 1.589-.107 2.134 1.077 3.501 2.986 4.063 5.675.056.266.098.536.144.835l.069.438z"/></svg>