<svg id="Line" height="512" viewBox="0 0 36 36" width="512" xmlns="http://www.w3.org/2000/svg"><path d="m8.388 5.111c-1.805 6.677-6.504 10.327-7.374 13.545s-.846 10.476 13.956 14.477 19.432-4.501 20.388-8.041c4.48-16.571-23.773-31.806-26.97-19.981z" fill="#f3efef"/><path d="m31.49 7.901c-.827 0-1.5-.673-1.5-1.5s.673-1.5 1.5-1.5 1.5.673 1.5 1.5-.673 1.5-1.5 1.5zm0-2c-.275 0-.5.224-.5.5s.225.5.5.5.5-.224.5-.5-.224-.5-.5-.5z" fill="#a4afc1"/><path d="m28.25 19.467-.878-1.448c-1.4-2.286-3.2-3.292-5.325-3.678-.485-.088-.821-.537-.775-1.029.23-2.453-.75-4.942-2.772-6.562h-4.875l1.15.959c2.73 2.289 3.491 6.192 1.804 9.333l-1.287 2.397c-.171.323-.318.652-.439.986-.198.543-.628.961-1.172 1.154-1.678.595-3.109 1.751-4.054 3.29l-.877 1.446 1.95 1.957 1.102-2.201c.336-.674.859-1.233 1.494-1.612.538-.321 1.225.003 1.395.607.337 1.199.978 2.322 1.898 3.245l.936.939h4.875l-1.911-1.917c-2.34-2.348-2.867-5.948-1.297-8.873l.614-1.15c.203-.38.63-.582 1.051-.497l1.619.326c1.179.238 2.183 1.006 2.722 2.084l1.102 2.201z" fill="#f3f3f1"/><path d="m15.68 21.58c-1.68.59-3.11 1.75-4.05 3.29l-.88 1.45.62.62-.67 1.33-1.95-1.95.88-1.45c.94-1.54 2.37-2.7 4.05-3.29.54-.2.98-.61 1.17-1.16.12-.33.27-.66.44-.98l1.29-2.4c1.69-3.14.93-7.04-1.8-9.33l-1.16-.96h2l1.16.96c2.73 2.29 3.49 6.19 1.8 9.33l-1.29 2.4c-.17.32-.32.65-.44.98-.19.55-.63.96-1.17 1.16z" fill="#d5dbe1"/><path d="m18.59 28.31.93.94h-2l-.93-.94c-.92-.92-1.56-2.05-1.9-3.24-.01-.04-.02-.08-.04-.11.2-.2.42-.36.65-.5.53-.32 1.22 0 1.39.61.34 1.19.98 2.32 1.9 3.24z" fill="#d5dbe1"/><path d="m21.869 29.779-1.911-1.917c-2.591-2.599-3.164-6.52-1.427-9.757l.612-1.148c.356-.667 1.123-1.03 1.862-.88l1.618.326c1.415.286 2.599 1.191 3.245 2.484l1.102 2.201-1.342.671-1.102-2.201c-.438-.877-1.24-1.491-2.2-1.684l-1.618-.326c-.089-.019-.195.027-.242.116l-.612 1.149c-1.424 2.652-.955 5.862 1.166 7.99l1.911 1.917z"/><path d="m27.608 19.856-.878-1.448c-1.169-1.909-2.654-2.937-4.816-3.329-.86-.156-1.47-.963-1.389-1.837.213-2.277-.719-4.485-2.494-5.907l.938-1.171c2.17 1.739 3.311 4.437 3.051 7.218-.01.106.062.203.162.222 2.583.468 4.436 1.747 5.83 4.024l.88 1.451z"/><path d="m16.994 29.78-.937-.939c-.989-.993-1.711-2.229-2.088-3.573-.022-.078-.08-.144-.153-.173-.074-.028-.12-.004-.136.007-.521.311-.938.761-1.208 1.303l-1.102 2.202-1.342-.671 1.102-2.201c.397-.798 1.014-1.463 1.78-1.921.443-.264.975-.305 1.459-.112.505.2.895.634 1.043 1.16.309 1.1.899 2.109 1.707 2.92l.937.938z"/><path d="m9.392 26.704-1.283-.777.878-1.448c1.029-1.677 2.606-2.957 4.443-3.608.338-.12.6-.375.718-.703.134-.366.296-.729.481-1.081l1.289-2.401c1.511-2.813.828-6.347-1.624-8.403l-1.149-.957.961-1.152 1.15.958c2.995 2.512 3.829 6.828 1.984 10.264l-1.287 2.396c-.152.287-.286.588-.396.888-.271.749-.864 1.333-1.625 1.604-1.515.537-2.816 1.593-3.665 2.975z"/><path d="m12.3 14.013-1.25-.83c1.336-2.01 3.862-2.879 6.148-2.116l.321.107-.477 1.423-.321-.107c-1.637-.549-3.46.077-4.421 1.523z"/><path d="m23.784 25.83c-.941-1.08-2.302-1.699-3.731-1.699h-1.553v-1.5h1.553c1.863 0 3.636.807 4.862 2.214z"/></svg>