<svg id="Line" height="512" viewBox="0 0 36 36" width="512" xmlns="http://www.w3.org/2000/svg"><path d="m34.864 19.902c-3.782-5.791-3.38-11.727-5.203-14.518s-7.256-7.603-20.093.782-9.572 17.5-7.566 20.569c9.388 14.373 39.561 3.423 32.862-6.833z" fill="#f3efef"/><path d="m28.619 6.926c-.827 0-1.5-.673-1.5-1.5s.673-1.5 1.5-1.5 1.5.673 1.5 1.5-.673 1.5-1.5 1.5zm0-2c-.275 0-.5.224-.5.5s.225.5.5.5.5-.224.5-.5-.224-.5-.5-.5z" fill="#a4afc1"/><path d="m11.109 18.127.01.228c.091 2.141 1.853 3.831 3.996 3.831h1.764c2.279 0 4.098-1.902 3.996-4.179l-.012-.273c-.098-2.177-1.919-3.875-4.098-3.82l-1.761.045c-2.235.057-3.989 1.934-3.895 4.168z" fill="#2fdf84"/><path d="m21.303 13.397c.936 1.195 2.405 1.898 3.965 1.898h.991c.547 0 .991-.425.991-.949v-.028c0-.494-.399-.88-.91-.946-.185-.024-.359-.059-.522-.103-.932-.249-1.542-1.109-1.542-2.036 0-.409-.273-.771-.678-.901l-2.296-.733v-1.213c0-.408-.27-.78-.676-.905-3.046-.936-6.102-.974-9.149-.117-.573.161-.872.719-.66 1.254.762 1.922.762 3.842.001 5.76-.213.535.085 1.093.659 1.255 3.047.857 6.102.822 9.148-.113.406-.124.676-.497.676-.905z" fill="#f3f3f1"/><path d="m21.303 26.397c.936 1.195 2.405 1.898 3.965 1.898h.991c.547 0 .991-.425.991-.949v-.028c0-.494-.399-.88-.91-.946-.185-.024-.359-.059-.522-.103-.932-.249-1.542-1.109-1.542-2.036 0-.409-.273-.771-.678-.901l-2.296-.733v-1.213c0-.408-.27-.78-.676-.905-3.046-.936-6.102-.974-9.149-.117-.573.161-.872.719-.66 1.254.762 1.922.762 3.842.001 5.76-.213.535.085 1.093.659 1.255 3.047.857 6.102.822 9.148-.113.406-.124.676-.497.676-.905z" fill="#f3f3f1"/><path d="m16.99 16.21c-1.84.13-3.67-.06-5.51-.58-.58-.16-.87-.72-.66-1.25.76-1.92.76-3.84 0-5.76-.21-.54.08-1.09.66-1.26 1.83-.51 3.66-.7 5.48-.57-1.08.08-2.15.27-3.23.57-.58.17-.87.72-.66 1.26.76 1.92.76 3.84 0 5.76-.21.53.08 1.09.66 1.25 1.09.3 2.17.5 3.26.58z" fill="#d5dbe1"/><path d="m13.73 28.63c1.09.3 2.17.5 3.26.58-1.84.13-3.67-.06-5.51-.58-.58-.16-.87-.72-.66-1.25.76-1.92.76-3.84 0-5.76-.21-.54.08-1.09.66-1.26 1.83-.51 3.66-.7 5.48-.57-1.08.08-2.15.27-3.23.57-.58.17-.87.72-.66 1.26.76 1.92.76 3.84 0 5.76-.21.53.08 1.09.66 1.25z" fill="#d5dbe1"/><path d="m11.813 15.709c-.47.688-.741 1.52-.703 2.418l.01.228c.03.717.261 1.375.618 1.945.676-.177 1.352-.307 2.027-.397-.227-.472-.372-.992-.395-1.548l-.01-.228c-.031-.733.153-1.419.472-2.023-.673-.089-1.346-.219-2.019-.395z" fill="#00b871"/><path d="m11.3 20.85c-.814-.611-1.3-1.676-1.3-2.85s.486-2.239 1.3-2.85l.9 1.2c-.432.324-.7.956-.7 1.65s.269 1.326.7 1.65z"/><path d="m20.7 20.85-.9-1.2c.432-.324.7-.956.7-1.65s-.269-1.326-.7-1.65l.9-1.2c.814.611 1.3 1.676 1.3 2.85s-.486 2.239-1.3 2.85z"/><path d="m15.863 16.998c-1.531 0-3.064-.214-4.588-.643-.487-.137-.891-.465-1.104-.898-.21-.425-.228-.906-.049-1.355.695-1.75.695-3.453-.001-5.206-.178-.451-.16-.932.05-1.356.214-.433.616-.76 1.104-.897 3.178-.894 6.398-.853 9.572.123.71.218 1.206.885 1.206 1.622v.666l1.774.566c.717.229 1.199.877 1.199 1.615 0 .617.405 1.156.985 1.311.134.036.275.064.425.083.907.117 1.564.828 1.564 1.689 0 .965-.781 1.728-1.741 1.728h-.991c-1.179 0-2.323-.358-3.272-.997-.15.554-.581 1.014-1.147 1.188-1.654.508-3.319.761-4.986.761zm-.011-9.495c-1.394 0-2.786.195-4.171.584-.079.022-.14.065-.166.119-.02.04-.02.085.001.137.832 2.096.832 4.22.001 6.313-.021.052-.021.096-.001.136.026.054.087.097.166.119 2.9.816 5.835.781 8.726-.107.084-.026.146-.105.146-.188v-1.218c0-.32.203-.604.506-.709.3-.105.636-.006.835.247.789 1.009 2.051 1.611 3.374 1.611h.991c.133 0 .241-.089.241-.199 0-.138-.132-.215-.257-.231-.22-.028-.426-.07-.62-.122-1.233-.33-2.097-1.464-2.097-2.76 0-.082-.063-.156-.155-.186l-2.297-.733c-.311-.099-.521-.388-.521-.714v-1.215c0-.084-.06-.162-.146-.188-1.512-.464-3.034-.696-4.556-.696z"/><path d="m15.863 29.998c-1.531 0-3.064-.214-4.588-.643-.487-.137-.891-.465-1.104-.898-.21-.425-.228-.906-.049-1.355.695-1.75.695-3.453-.001-5.206-.178-.451-.16-.932.05-1.356.214-.433.616-.76 1.104-.897 3.178-.894 6.398-.853 9.572.123.71.218 1.206.885 1.206 1.622v.666l1.774.566c.717.229 1.199.877 1.199 1.615 0 .617.405 1.156.985 1.311.134.036.275.064.425.083.907.117 1.564.828 1.564 1.689 0 .965-.781 1.728-1.741 1.728h-.991c-1.179 0-2.323-.358-3.272-.997-.15.554-.581 1.014-1.147 1.188-1.654.508-3.319.761-4.986.761zm-.011-9.495c-1.394 0-2.786.195-4.171.584-.079.022-.14.065-.166.119-.02.04-.02.085.001.137.832 2.096.832 4.22.001 6.313-.021.052-.021.096-.001.136.026.054.087.097.166.119 2.9.816 5.835.781 8.726-.107.084-.026.146-.105.146-.188v-1.218c0-.32.203-.604.506-.709.3-.105.636-.006.835.247.789 1.009 2.051 1.611 3.374 1.611h.991c.133 0 .241-.089.241-.199 0-.138-.132-.215-.257-.231-.22-.028-.426-.07-.62-.122-1.233-.33-2.097-1.464-2.097-2.76 0-.082-.063-.156-.155-.186l-2.297-.733c-.311-.099-.521-.388-.521-.714v-1.213c0-.084-.06-.162-.146-.188-1.512-.466-3.034-.698-4.556-.698z"/><path d="m14.244 26.814-.988-1.129c.494-.431.744-.83.744-1.185s-.25-.754-.744-1.186l.988-1.129c.833.729 1.256 1.508 1.256 2.314s-.423 1.586-1.256 2.315z"/><path d="m14.244 13.814-.988-1.129c.494-.431.744-.83.744-1.185s-.25-.754-.744-1.186l.988-1.129c.833.73 1.256 1.508 1.256 2.315s-.423 1.585-1.256 2.314z"/></svg>