<svg id="Line" height="512" viewBox="0 0 36 36" width="512" xmlns="http://www.w3.org/2000/svg"><path d="m13.871 35.354c6.298-2.859 12.105-1.559 15.14-2.936 3.035-1.378 8.617-6.016 2.28-19.978s-15.841-12.121-19.18-10.605c-15.632 7.094-9.395 38.581 1.76 33.519z" fill="#f3efef"/><g fill="#a4afc1"><path d="m30.657 6.088h1v2h-1z" transform="matrix(.707 -.707 .707 .707 4.114 24.108)"/><path d="m26.592 2.022h1v2h-1z" transform="matrix(.707 -.707 .707 .707 5.798 20.042)"/><path d="m30.334 2.522h2v1h-2z" transform="matrix(.707 -.707 .707 .707 7.041 23.042)"/></g><path d="m8.75 29.25v-14.652c0-1.705 1.081-3.222 2.692-3.78l1.79-.62c1.208-.418 2.019-1.556 2.019-2.835v-.613h5.5v.614c0 1.279.81 2.417 2.019 2.835l1.79.62c1.611.558 2.692 2.075 2.692 3.78v14.651z" fill="#f3f3f1"/><path d="m17.5 6.75v.61c0 1.28-.81 2.42-2.02 2.84l-1.79.62c-1.61.56-2.69 2.07-2.69 3.78v14.65h-2.25v-14.65c0-1.71 1.08-3.22 2.69-3.78l1.79-.62c1.21-.42 2.02-1.56 2.02-2.84v-.61z" fill="#d5dbe1"/><path d="m9.5 29.25h-1.5v-14.652c0-2.023 1.284-3.827 3.196-4.489l1.79-.62c.906-.312 1.514-1.167 1.514-2.125v-.614h1.5v.614c0 1.597-1.014 3.021-2.523 3.544l-1.79.62c-1.308.452-2.187 1.686-2.187 3.07z"/><path d="m28 29.25h-1.5v-14.652c0-1.384-.879-2.618-2.187-3.071l-1.79-.62c-1.509-.522-2.523-1.946-2.523-3.543v-.614h1.5v.614c0 .958.608 1.813 1.514 2.126l1.79.62c1.912.661 3.196 2.465 3.196 4.488z"/><path d="m12.495 29.337-1.49-.175c.093-.789.248-1.57.461-2.32.798-2.834.702-6.14-.258-8.842l1.414-.502c1.059 2.983 1.167 6.629.287 9.752-.191.676-.331 1.377-.414 2.087z"/><path d="m23.505 29.337c-.083-.71-.223-1.411-.414-2.084-.88-3.125-.771-6.771.287-9.754l1.414.502c-.96 2.702-1.056 6.008-.258 8.844.213.748.368 1.529.461 2.318z"/><path d="m14.085 15.921-.67-1.342c.669-.334 1.085-1.008 1.085-1.756l1.5-.073v.073c0 1.32-.733 2.508-1.915 3.098z"/><path d="m21.915 15.921c-1.182-.59-1.915-1.778-1.915-3.098l1.5-.073v.073c0 .749.416 1.422 1.085 1.756z"/><path d="m17.25 15h1.5v13h-1.5z"/></svg>