<svg id="Line" height="512" viewBox="0 0 36 36" width="512" xmlns="http://www.w3.org/2000/svg"><path d="m34.915 19.605c-3.782-5.791-3.38-11.727-5.203-14.518s-7.255-7.603-20.092.782-9.572 17.5-7.566 20.569c9.387 14.372 39.561 3.423 32.861-6.833z" fill="#f3efef"/><path d="m31.912 14.292c-.827 0-1.5-.673-1.5-1.5s.673-1.5 1.5-1.5 1.5.673 1.5 1.5-.673 1.5-1.5 1.5zm0-2c-.276 0-.5.224-.5.5s.224.5.5.5.5-.224.5-.5-.224-.5-.5-.5z" fill="#a4afc1"/><path d="m24.873 6h-13.746c2.416 3.061 2.881 7.979 1.198 11.497l-.575 1.202c-1.372 2.869-1.331 6.214.111 9.049l.766 2.252h10.746l.765-2.253c1.442-2.835 1.484-6.179.111-9.049l-.575-1.202c-1.682-3.517-1.217-8.435 1.199-11.496z" fill="#f3f3f1"/><path d="m14.11 27.75.77 2.25h-2.25l-.77-2.25c-1.44-2.84-1.48-6.18-.11-9.05l.58-1.2c.67-1.4 1-2.91 1-4.41 0-2.26-.75-5.25-2.2-7.09h2.25c1.45 1.84 2.2 4.83 2.2 7.09 0 1.5-.33 3.01-1 4.41l-.58 1.2c-1.37 2.87-1.33 6.21.11 9.05z" fill="#d5dbe1"/><path d="m17.25 22h1.5v8h-1.5z"/><path d="m20.361 25.5h-.439c-.696 0-1.378-.25-1.922-.695-.544.445-1.226.695-1.922.695h-.439c-.982 0-1.917-.492-2.5-1.316l-.434-.612 1.224-.867.433.612c.303.428.781.683 1.277.683h.439c.422 0 .821-.177 1.124-.497l.253-.268c.283-.3.807-.3 1.09 0l.253.268c.303.32.702.497 1.124.497h.439c.496 0 .974-.255 1.277-.684l.433-.612 1.224.867-.434.612c-.583.825-1.518 1.317-2.5 1.317z"/><path d="m12.299 30.259-1.105-2.172c-1.538-3.022-1.583-6.653-.12-9.712l.575-1.202c1.547-3.235 1.112-7.144-1.11-9.958l-.464-.589 1.177-.929.465.588c2.573 3.26 3.078 7.788 1.286 11.535l-.575 1.202c-1.263 2.641-1.225 5.775.103 8.384l1.105 2.172z"/><path d="m23.701 30.259-1.337-.681 1.105-2.172c1.328-2.609 1.366-5.743.103-8.384l-.575-1.202c-1.792-3.747-1.287-8.275 1.286-11.535l.465-.588 1.177.929-.464.589c-2.222 2.814-2.658 6.723-1.11 9.958l.575 1.202c1.463 3.06 1.418 6.69-.12 9.712z"/></svg>