<svg id="effect" height="512" viewBox="0 0 36 36" width="512" xmlns="http://www.w3.org/2000/svg"><path d="m27.417 3.914c-6.915.129-11.732-3.365-15.064-3.302s-10.296 2.109-10.009 17.44 9.744 17.404 13.41 17.336c17.163-.321 23.911-31.703 11.663-31.474z" fill="#efefef"/><path d="m6.5 17.56c0 1.1.9 2 2 2 .08 0 .16 0 .24-.01l-.24-3.99c-1.1 0-2 .9-2 2z" fill="#2fdf84"/><path d="m25.5 17.34c0 4.76-3.35 10.15-8.48 10.16-.01 0-.01 0-.02 0s-.01 0-.02 0c-5.13-.01-8.48-5.4-8.48-10.16 0-3.134.698-5.696 4.01-7.33-.01.07-.01.14-.01.21 0 1.64 1.79 2.54 3.2 2.21 2.13-.49 3.41-1.64 4.11-3.04.82.22 1.62.55 2.35.99.01.01.01.02.02.02 2.719 1.655 3.32 4.036 3.32 6.94z" fill="#f3f3f1"/><g fill="#2fdf84"><circle cx="13" cy="16.917" r="1.5"/><circle cx="20.89" cy="16.917" r="1.5"/><path d="m20.5 6.5c-.03.99-.24 1.99-.69 2.89-.7 1.4-1.98 2.55-4.11 3.04-1.41.33-3.2-.57-3.2-2.21 0-.07 0-.14.01-.21.06-.57.34-1.08.74-1.45.45-.42 1.05-.68 1.67-.68 2.16 0 3.08.12 5.58-1.38z"/></g><path d="m18 27.43c-.32.05-.65.07-.98.07-.01 0-.01 0-.02 0s-.01 0-.02 0c-5.13-.01-8.48-5.4-8.48-10.16 0-3.13.7-5.7 4.01-7.33-.01.07-.01.14-.01.21 0 .36.09.68.24.96-1.81 1.57-2.24 3.69-2.24 6.16 0 4.45 2.93 9.45 7.5 10.09z" fill="#d5dbe1"/><path d="m16.92 7.88c-.62 0-1.22.26-1.67.68-.4.37-.68.88-.74 1.45-.01.07-.01.14-.01.21 0 1.03.72 1.78 1.6 2.1-.13.04-.26.08-.4.11-1.41.33-3.2-.57-3.2-2.21 0-.07 0-.14.01-.21.06-.57.34-1.08.74-1.45.45-.42 1.05-.68 1.67-.68 2.16 0 3.43 0 2 0z" fill="#00b871"/><path d="m29.051 30.101c-1.35-1.009-2.541-1.948-3.553-2.851-1.094.979-2.32 1.927-3.547 2.85l-.902-1.2c1.165-.875 2.327-1.773 3.356-2.683-1.32-1.333-2.212-2.614-2.609-3.964-.577-1.964.361-4.162 2.182-5.112.996-.521 2.051-.52 3.048.003 1.823.955 2.76 3.154 2.179 5.116-.406 1.37-1.367 2.686-2.615 3.952.962.852 2.093 1.742 3.358 2.688zm-3.551-11.851c-.272 0-.545.074-.827.221-1.198.625-1.815 2.069-1.437 3.359.32 1.091 1.109 2.194 2.265 3.357 1.102-1.111 1.935-2.234 2.267-3.354.381-1.288-.236-2.732-1.437-3.361-.284-.147-.557-.222-.831-.222z"/><path d="m8.5 20.31c-1.516 0-2.75-1.233-2.75-2.75s1.234-2.75 2.75-2.75v1.5c-.689 0-1.25.561-1.25 1.25 0 .708.587 1.254 1.307 1.25.029 0 .059-.001.088-.005l.19 1.488c-.111.015-.223.017-.335.017z"/><path d="m13 19.25c-1.241 0-2.25-1.009-2.25-2.25s1.009-2.25 2.25-2.25 2.25 1.009 2.25 2.25-1.009 2.25-2.25 2.25zm0-3c-.414 0-.75.336-.75.75s.336.75.75.75.75-.336.75-.75-.336-.75-.75-.75z"/><path d="m17 24.251c-.999 0-1.998-.388-2.969-1.166l-.585-.468.937-1.171.586.469c1.386 1.108 2.677 1.108 4.063 0l.586-.469.937 1.171-.585.468c-.972.778-1.971 1.166-2.97 1.166z"/><path d="m24.533 14.695c-.771-3.03-3.413-4.171-4.92-4.581l.395-1.447c3.1.844 5.279 2.907 5.979 5.658z"/><path d="m17 28.25c-5.533 0-9.25-5.641-9.25-10.91v-.85c0-3.204 1.573-5.744 4.428-7.153l.664 1.345c-1.639.809-3.592 2.473-3.592 5.808v.85c0 4.451 3.183 9.41 7.75 9.41.96 0 1.895-.214 2.776-.636l.001.001c.111-.055.235-.085.353-.085v.75l.513.527c-.063.066-.137.12-.219.159-1.086.52-2.237.784-3.424.784z"/><path d="m15.107 13.25c-.803 0-1.616-.271-2.243-.77-.716-.57-1.112-1.372-1.114-2.259-.002-.793.317-1.551.899-2.134.608-.61 1.437-.96 2.271-.96h.001l.438.001c1.794.005 2.609.012 4.755-1.273.235-.141.528-.143.765-.003.237.139.378.396.37.67-.108 3.463-2.07 5.884-5.381 6.642-.248.059-.504.086-.761.086zm-.187-4.622c-.433 0-.885.194-1.21.52-.298.298-.461.679-.46 1.07.001.541.299.89.548 1.088.472.375 1.155.532 1.735.397 2.664-.61 3.676-2.343 4.037-3.848-1.659.785-2.694.777-4.217.774z"/><path d="m20.89 19.25c-1.241 0-2.25-1.009-2.25-2.25s1.009-2.25 2.25-2.25 2.25 1.009 2.25 2.25-1.009 2.25-2.25 2.25zm0-3c-.414 0-.75.336-.75.75s.336.75.75.75.75-.336.75-.75-.336-.75-.75-.75z"/><path d="m30.864 5.47c-.827 0-1.5-.673-1.5-1.5s.673-1.5 1.5-1.5 1.5.673 1.5 1.5-.673 1.5-1.5 1.5zm0-2c-.276 0-.5.224-.5.5s.224.5.5.5.5-.224.5-.5-.224-.5-.5-.5z" fill="#a4afc1"/></svg>