<svg id="Line" height="512" viewBox="0 0 36 36" width="512" xmlns="http://www.w3.org/2000/svg"><path d="m28.128 3.461c-6.915.129-11.732-3.365-15.064-3.302s-10.297 2.11-10.01 17.44 9.744 17.404 13.41 17.336c17.164-.321 23.911-31.703 11.664-31.474z" fill="#f3efef"/><g fill="#a4afc1"><path d="m5.523 2.11h2v1h-2z" transform="matrix(.707 -.707 .707 .707 .065 5.377)"/><path d="m1.457 6.176h2v1h-2z" transform="matrix(.707 -.707 .707 .707 -4.001 3.693)"/><path d="m1.957 1.434h1v2h-1z" transform="matrix(.707 -.707 .707 .707 -1.001 2.45)"/></g><path d="m12.292 24.25h.15c1.369 0 2.218-1.526 1.607-2.823-1.233-2.618-1.233-5.235 0-7.853.611-1.297-.238-2.823-1.607-2.823h-.034c-2.763 0-5.063 2.004-5.501 4.769-.205 1.296-.209 2.592-.012 3.889.427 2.793 2.723 4.841 5.397 4.841z" fill="#f3f3f1"/><path d="m23.708 24.25h-.15c-1.369 0-2.218-1.526-1.607-2.823 1.233-2.618 1.233-5.235 0-7.853-.611-1.297.238-2.823 1.607-2.823h.034c2.763 0 5.063 2.004 5.501 4.769.205 1.296.209 2.592.012 3.889-.427 2.793-2.723 4.841-5.397 4.841z" fill="#2fdf84"/><path d="m20.5 16.25-1.167-1.867c-.667-1.067-2-1.067-2.667 0l-1.166 1.867 2.5 1.087z" fill="#2fdf84"/><path d="m13.21 24.07c-.23.12-.49.18-.77.18h-.15c-2.67 0-4.97-2.05-5.39-4.84-.2-1.3-.2-2.6.01-3.89.43-2.77 2.74-4.77 5.5-4.77h.03c.29 0 .55.07.78.19-2.09.55-3.71 2.31-4.06 4.58-.21 1.29-.21 2.59-.01 3.89.35 2.31 1.99 4.12 4.06 4.66z" fill="#d5dbe1"/><path d="m29.1 19.41c-.42 2.79-2.72 4.84-5.39 4.84h-.15c-.28 0-.54-.06-.77-.18 2.07-.54 3.71-2.35 4.06-4.66.2-1.3.2-2.6-.01-3.89-.35-2.27-1.97-4.03-4.06-4.58.23-.12.49-.19.78-.19h.03c2.76 0 5.07 2 5.5 4.77.21 1.29.21 2.59.01 3.89z" fill="#00b871"/><path d="m12.441 25h-.149c-3.072 0-5.654-2.305-6.138-5.479-.208-1.366-.205-2.752.012-4.119.496-3.131 3.121-5.402 6.242-5.402.895 0 1.69.444 2.162 1.187.515.812.574 1.823.158 2.706-1.144 2.428-1.144 4.787 0 7.215.416.882.356 1.894-.158 2.706-.472.742-1.268 1.186-2.129 1.186zm0-13.5c-2.412 0-4.414 1.739-4.794 4.136-.192 1.214-.196 2.445-.011 3.658.372 2.437 2.33 4.206 4.655 4.206h.149c.479 0 .745-.307.861-.491.238-.375.263-.848.067-1.263-1.327-2.818-1.327-5.675 0-8.493.196-.416.17-.888-.067-1.263-.115-.183-.381-.49-.86-.49z"/><path d="m17.25 6h1.5v8.333h-1.5z"/><path d="m13 17h-.479c-1.25 0-2.305-.895-2.51-2.127l1.479-.246c.084.506.518.873 1.031.873h.479z"/><path d="m11.49 20.373-1.479-.246c.204-1.232 1.26-2.127 2.51-2.127h.479v1.5h-.479c-.514 0-.947.367-1.031.873z"/><path d="m18.75 30h-1.5v-11.75c0-.689-.561-1.25-1.25-1.25h-3.5v-1.5h3.5c1.517 0 2.75 1.233 2.75 2.75z"/><path d="m23.708 25h-.149c-.861 0-1.656-.444-2.128-1.187-.515-.812-.574-1.823-.158-2.706 1.144-2.428 1.144-4.787 0-7.215-.416-.882-.356-1.894.158-2.706.471-.742 1.267-1.186 2.128-1.186 3.154 0 5.779 2.271 6.275 5.401.216 1.367.22 2.753.012 4.119-.484 3.175-3.066 5.48-6.138 5.48zm-.116-13.5c-.512 0-.778.307-.895.491-.238.375-.263.848-.067 1.263 1.327 2.818 1.327 5.675 0 8.493-.196.416-.17.888.067 1.263.117.184.383.491.861.491h.149c2.326 0 4.283-1.769 4.655-4.206.185-1.213.181-2.444-.011-3.658-.378-2.398-2.38-4.137-4.759-4.137z"/><path d="m23.479 17h-.479v-1.5h.479c.513 0 .946-.367 1.031-.873l1.479.246c-.204 1.232-1.26 2.127-2.51 2.127z"/><path d="m24.51 20.373c-.084-.506-.518-.873-1.031-.873h-.479v-1.5h.479c1.25 0 2.305.895 2.51 2.127z"/><path d="m18.75 18.25h-1.5c0-1.517 1.233-2.75 2.75-2.75h2.75v1.5h-2.75c-.689 0-1.25.561-1.25 1.25z"/><path d="m19.864 16.647-1.167-1.867c-.355-.568-1.039-.569-1.395 0l-1.166 1.866-1.272-.795 1.167-1.867c.452-.722 1.188-1.152 1.97-1.152s1.518.431 1.969 1.152l1.167 1.867z"/></svg>