<svg id="Line" height="512" viewBox="0 0 36 36" width="512" xmlns="http://www.w3.org/2000/svg"><path d="m35.154 19.902c-3.782-5.791-3.38-11.727-5.203-14.518s-7.256-7.603-20.093.782-9.572 17.5-7.566 20.569c9.388 14.373 39.561 3.423 32.862-6.833z" fill="#f3efef"/><path d="m31.32 8.25c-.827 0-1.5-.673-1.5-1.5s.673-1.5 1.5-1.5 1.5.673 1.5 1.5-.673 1.5-1.5 1.5zm0-2c-.276 0-.5.224-.5.5s.224.5.5.5.5-.224.5-.5-.224-.5-.5-.5z" fill="#a4afc1"/><path d="m12.75 21.25 1.654-1.838c.379-.421.92-.662 1.487-.662 3.606 0 6.62 2.741 6.962 6.331l.397 4.169h4l-.573-5.346c-.527-4.922-4.681-8.654-9.631-8.654-.995 0-1.954-.371-2.691-1.04l-1.606-1.46v8.5z" fill="#f3f3f1"/><path d="m17.11 18.86c.2.79.49 1.57.87 2.36.89 1.83-.33 4.03-2.22 4.03h-.02c-4.11 0-7.64-3.44-7.91-7.95-.06-.86-.06-1.74 0-2.6.27-4.51 3.8-7.95 7.91-7.95h.01c1.89 0 3.13 2.2 2.24 4.02-.72 1.49-1.13 2.98-1.24 4.46z" fill="#2fdf84"/><path d="m16.56 25.11c-.24.09-.51.14-.8.14h-.02c-4.11 0-7.64-3.44-7.91-7.95-.06-.86-.06-1.74 0-2.6.27-4.51 3.8-7.95 7.91-7.95h.01c.29 0 .56.05.81.14-3.47.69-6.24 3.83-6.48 7.81-.06.86-.06 1.74 0 2.6.24 3.98 3.01 7.12 6.48 7.81z" fill="#00b871"/><path d="m15.76 26c-4.584 0-8.388-3.802-8.678-8.655-.063-.89-.063-1.8 0-2.697.29-4.846 4.093-8.648 8.658-8.648 1.108 0 2.128.584 2.739 1.563.672 1.077.741 2.399.185 3.537-.67 1.386-1.063 2.795-1.166 4.186l-1.496-.111c.117-1.58.559-3.171 1.313-4.731.329-.673.288-1.452-.108-2.087-.34-.545-.871-.857-1.457-.857-3.782 0-6.928 3.183-7.171 7.245-.058.835-.058 1.675 0 2.502.244 4.07 3.39 7.252 7.162 7.252.599 0 1.123-.307 1.458-.843.393-.628.434-1.437.107-2.108-.411-.854-.712-1.671-.923-2.504l1.454-.368c.186.734.454 1.46.819 2.219.55 1.13.479 2.494-.186 3.557-.606.969-1.619 1.548-2.71 1.548z"/><path d="m22.574 30.068-.468-4.916c-.306-3.222-2.979-5.652-6.215-5.652-.354 0-.692.151-.929.414l-2.156 2.396-1.115-1.003 2.156-2.396c.521-.578 1.265-.91 2.044-.91 4.014 0 7.329 3.013 7.709 7.009l.468 4.917z"/><path d="m19.528 16.329-.998-1.121.821-.729c1.295-1.147 2.078-1.839 2.943-4.234l.255-.706 1.411.51-.255.706c-.996 2.755-1.987 3.632-3.36 4.847z"/><path d="m22.735 17.75-1.025-1.095.547-.513c1.104-1.033 2.612-2.889 3.526-5.862l.22-.717 1.434.44-.22.717c-1.01 3.289-2.697 5.359-3.934 6.518z"/><path d="m26.584 30.076-.652-6.092c-.488-4.552-4.308-7.984-8.886-7.984-1.184 0-2.319-.438-3.195-1.235l-2.161-1.965 1.009-1.11 2.161 1.964c.6.545 1.376.845 2.186.845 5.346 0 9.807 4.008 10.376 9.324l.653 6.092z"/><path d="m11.085 18.921-.671-1.342 1.188-.594c.103-.051.129-.141.136-.19s.005-.142-.08-.219l-1.41-1.269 1.004-1.115 1.409 1.269c.43.387.641.961.563 1.535s-.433 1.072-.952 1.331z"/></svg>