<svg id="Line" height="512" viewBox="0 0 36 36" width="512" xmlns="http://www.w3.org/2000/svg"><path d="m27.692 3.461c-6.916.13-11.732-3.364-15.065-3.302s-10.295 2.11-10.009 17.44 9.744 17.404 13.41 17.336c17.164-.321 23.911-31.703 11.664-31.474z" fill="#f3efef"/><path d="m10.125 7.291c-.827 0-1.5-.673-1.5-1.5s.673-1.5 1.5-1.5 1.5.673 1.5 1.5-.673 1.5-1.5 1.5zm0-2c-.275 0-.5.224-.5.5s.225.5.5.5.5-.224.5-.5-.225-.5-.5-.5z" fill="#a4afc1"/><path d="m9.185 29.165 3.38-1.057c1.594-.499 2.685-2.019 2.685-3.742v-9.658c0-1.425-1.425-2.371-2.676-1.777-3.549 1.685-5.824 5.354-5.824 9.395v4.969c0 1.31 1.223 2.249 2.435 1.87z" fill="#f3f3f1"/><path d="m26.815 29.165-3.38-1.057c-1.594-.499-2.685-2.019-2.685-3.742v-9.658c0-1.425 1.425-2.371 2.676-1.777 3.549 1.685 5.824 5.354 5.824 9.395v4.969c0 1.31-1.223 2.249-2.435 1.87z" fill="#2fdf84"/><path d="m14.46 13.12c-1.62.84-2.94 2.1-3.88 3.62-1.01 1.64-1.58 3.56-1.58 5.59v4.96c0 .72.36 1.32.89 1.66l-.7.22c-1.22.37-2.44-.56-2.44-1.88v-4.96c0-2.03.57-3.95 1.58-5.59 1.01-1.63 2.47-2.97 4.24-3.81.66-.31 1.37-.2 1.89.19z" fill="#d5dbe1"/><path d="m29.25 22.33v4.96c0 1.32-1.22 2.25-2.44 1.88l-.7-.22c.53-.34.89-.94.89-1.66v-4.96c0-2.03-.57-3.95-1.58-5.59-.94-1.52-2.26-2.78-3.88-3.62.52-.39 1.23-.5 1.89-.19 1.77.84 3.23 2.18 4.24 3.81 1.01 1.64 1.58 3.56 1.58 5.59z" fill="#00b871"/><path d="m17.25 6.793h1.5v8.207h-1.5z"/><path d="m23.025 20.081-5.025-4.112-5.025 4.111-.949-1.161 5.5-4.5c.275-.226.674-.226.949 0l5.5 4.5z"/><path d="m8.633 30c-.543 0-1.075-.173-1.531-.508-.69-.507-1.102-1.328-1.102-2.198v-4.969c0-4.316 2.454-8.27 6.252-10.073.804-.382 1.738-.326 2.494.152.785.497 1.254 1.358 1.254 2.303v9.659c0 2.066-1.29 3.857-3.211 4.458l-3.38 1.057c-.256.08-.517.119-.776.119zm4.73-16.5c-.158 0-.317.036-.469.107-3.277 1.557-5.394 4.978-5.394 8.718v4.969c0 .4.179.761.489.99.284.208.635.27.973.166l3.38-1.057c1.271-.397 2.158-1.642 2.158-3.026v-9.659c0-.428-.208-.814-.556-1.034-.18-.116-.381-.174-.581-.174z"/><path d="m12.491 24.367-1.482-.234.69-4.373-1.479-1.48 1.061-1.061 1.75 1.75c.17.169.248.41.211.647z"/><path d="m9.495 19.625h3.26v1.5h-3.26z" transform="matrix(.844 -.537 .537 .844 -9.195 9.15)"/><path d="m27.367 30c-.259 0-.521-.04-.776-.12l-3.38-1.057c-1.921-.6-3.211-2.391-3.211-4.457v-9.659c0-.945.469-1.806 1.254-2.302.755-.478 1.688-.534 2.494-.152 3.798 1.802 6.252 5.756 6.252 10.072v4.969c0 .87-.412 1.691-1.102 2.198-.456.335-.988.508-1.531.508zm-4.729-16.5c-.201 0-.401.058-.582.172-.348.22-.556.606-.556 1.034v9.659c0 1.384.888 2.629 2.158 3.026l3.38 1.057c.337.105.688.043.973-.166.311-.229.489-.589.489-.99v-4.969c0-3.74-2.117-7.162-5.395-8.717-.151-.07-.31-.106-.467-.106z"/><path d="m23.509 24.367-.75-4.75c-.037-.237.041-.478.211-.647l1.75-1.75 1.061 1.061-1.479 1.48.69 4.373z"/><path d="m24.125 18.745h1.5v3.26h-1.5z" transform="matrix(.537 -.844 .844 .537 -5.669 30.422)"/></svg>