<svg id="effect" height="512" viewBox="0 0 36 36" width="512" xmlns="http://www.w3.org/2000/svg"><path d="m8.377 4.167c6.917 0 11.667-3.583 15-3.583s10.333 1.916 10.333 17.249-9.417 17.583-13.083 17.583c-17.167.001-24.5-31.249-12.25-31.249z" fill="#efefef"/><path d="m18 29.5c-4.142 0-7.5-3.358-7.5-7.5v-8c0-4.142 3.358-7.5 7.5-7.5 4.142 0 7.5 3.358 7.5 7.5v8c0 4.142-3.358 7.5-7.5 7.5z" fill="#f3f3f1"/><circle cx="18" cy="12.5" fill="#2fdf84" r="6"/><path d="m19 18.41c-.32.06-.66.09-1 .09-3.31 0-6-2.69-6-6s2.69-6 6-6c.34 0 .68.03 1 .09-2.84.47-5 2.94-5 5.91s2.16 5.44 5 5.91z" fill="#00b871"/><path d="m12.5 22v-7.667c-.883-1.569-.104-3.539-.215-5.182-1.111 1.308-1.785 2.999-1.785 4.849v8c0 4.14 3.36 7.5 7.5 7.5.34 0 .67-.02 1-.07-3.67-.49-6.5-3.63-6.5-7.43z" fill="#d5dbe1"/><path d="m18 30.25c-4.549 0-8.25-3.701-8.25-8.25v-8c0-4.549 3.701-8.25 8.25-8.25s8.25 3.701 8.25 8.25v8c0 4.549-3.701 8.25-8.25 8.25zm0-23c-3.722 0-6.75 3.028-6.75 6.75v8c0 3.722 3.028 6.75 6.75 6.75s6.75-3.028 6.75-6.75v-8c0-3.722-3.028-6.75-6.75-6.75z"/><path d="m18 19.25c-3.722 0-6.75-3.028-6.75-6.75s3.028-6.75 6.75-6.75 6.75 3.028 6.75 6.75-3.028 6.75-6.75 6.75zm0-12c-2.895 0-5.25 2.355-5.25 5.25s2.355 5.25 5.25 5.25 5.25-2.355 5.25-5.25-2.355-5.25-5.25-5.25z"/><path d="m11.893 26.986-.285-1.473c4.991-.965 9.729-3.637 13.344-7.524l1.098 1.021c-3.829 4.119-8.858 6.951-14.157 7.976z"/><path d="m19.183 24.247c-3.905-.353-7.032-2.14-9.293-5.312l1.221-.871c2.024 2.839 4.709 4.373 8.207 4.688z"/><circle cx="16.25" cy="10.25" r=".75"/><circle cx="19.75" cy="10.25" r=".75"/><path d="m18 16.25c-.746 0-1.453-.438-2.1-1.3l1.199-.9c.678.903 1.123.903 1.801 0l1.199.9c-.646.863-1.353 1.3-2.099 1.3z"/><path d="m29.25 6.556c-.827 0-1.5-.673-1.5-1.5s.673-1.5 1.5-1.5 1.5.673 1.5 1.5-.673 1.5-1.5 1.5zm0-2c-.275 0-.5.224-.5.5s.225.5.5.5.5-.224.5-.5-.225-.5-.5-.5z" fill="#a4afc1"/></svg>