<svg enable-background="new 0 0 36 36" height="512" viewBox="0 0 36 36" width="512" xmlns="http://www.w3.org/2000/svg"><g id="BG"><g><path d="m27.417 3.914c-6.915.129-11.732-3.365-15.064-3.302s-10.296 2.109-10.009 17.44 9.744 17.404 13.41 17.336c17.163-.321 23.911-31.703 11.663-31.474z" fill="#efefef"/></g></g><g id="effect"><g><g><path d="m9.066 3.556h2v1h-2z" fill="#a4afc1" transform="matrix(.707 -.707 .707 .707 .081 8.306)"/></g><g><path d="m5 7.621h2v1h-2z" fill="#a4afc1" transform="matrix(.707 -.707 .707 .707 -3.985 6.621)"/></g><g><path d="m5.5 2.879h1v2h-1z" fill="#a4afc1" transform="matrix(.707 -.707 .707 .707 -.985 5.379)"/></g></g><g><path d="m30 13.25c-.827 0-1.5-.673-1.5-1.5s.673-1.5 1.5-1.5 1.5.673 1.5 1.5-.673 1.5-1.5 1.5zm0-2c-.276 0-.5.225-.5.5s.224.5.5.5.5-.225.5-.5-.224-.5-.5-.5z" fill="#a4afc1"/></g></g><g id="color"><g><path d="m24.25 29.25h-12.5c-1.105 0-2-.895-2-2v-12.5c0-2.209 1.791-4 4-4h8.5c2.209 0 4 1.791 4 4v12.5c0 1.105-.895 2-2 2z" fill="#f3f3f1"/></g><g><path d="m24.25 10.75h-12.5c-.552 0-1-.448-1-1v-2c0-.552.448-1 1-1h12.5c.552 0 1 .448 1 1v2c0 .552-.448 1-1 1z" fill="#2fdf84"/></g><g><path d="m12.75 16.75h10.5v6.5h-10.5z" fill="#2fdf84"/></g></g><g id="shadow"><g><path d="m12 27.25v-12.5c0-2.209 1.791-4 4-4h-2.25c-2.209 0-4 1.791-4 4v12.5c0 1.105.895 2 2 2h2.25c-1.105 0-2-.895-2-2z" fill="#d5dbe1"/></g><g><path d="m13 9.75v-2c0-.552.448-1 1-1h-2.25c-.552 0-1 .448-1 1v2c0 .552.448 1 1 1h2.25c-.552 0-1-.448-1-1z" fill="#00b871"/></g><g><path d="m12.75 16.75h2.25v6.5h-2.25z" fill="#00b871"/></g></g><g id="_x31_.5"><g><path d="m24.25 30h-12.5c-1.517 0-2.75-1.233-2.75-2.75v-12.5c0-2.619 2.131-4.75 4.75-4.75h8.5c2.619 0 4.75 2.131 4.75 4.75v12.5c0 1.517-1.233 2.75-2.75 2.75zm-10.5-18.5c-1.792 0-3.25 1.458-3.25 3.25v12.5c0 .689.561 1.25 1.25 1.25h12.5c.689 0 1.25-.561 1.25-1.25v-12.5c0-1.792-1.458-3.25-3.25-3.25z"/></g><g><path d="m24.25 11.5h-12.5c-.965 0-1.75-.785-1.75-1.75v-2c0-.965.785-1.75 1.75-1.75h12.5c.965 0 1.75.785 1.75 1.75v2c0 .965-.785 1.75-1.75 1.75zm-12.5-4c-.138 0-.25.112-.25.25v2c0 .138.112.25.25.25h12.5c.138 0 .25-.112.25-.25v-2c0-.138-.112-.25-.25-.25z"/></g><g><path d="m23.25 24h-10.5c-.414 0-.75-.336-.75-.75v-6.5c0-.414.336-.75.75-.75h10.5c.414 0 .75.336.75.75v6.5c0 .414-.336.75-.75.75zm-9.75-1.5h9v-5h-9z"/></g></g></svg>