<svg id="Line" height="512" viewBox="0 0 36 36" width="512" xmlns="http://www.w3.org/2000/svg"><path d="m35.138 20.139c-3.693-5.848-3.199-11.778-4.979-14.596s-7.138-7.714-20.103.473-9.84 17.35-7.882 20.45c9.166 14.515 39.504 4.03 32.964-6.327z" fill="#f3efef"/><g fill="#a4afc1"><path d="m32.185 5.721h1v2h-1z" transform="matrix(.707 -.707 .707 .707 4.821 25.08)"/><path d="m28.119 1.655h1v2h-1z" transform="matrix(.707 -.707 .707 .707 6.505 21.014)"/><path d="m31.861 2.155h2v1h-2z" transform="matrix(.707 -.707 .707 .707 7.748 24.014)"/></g><path d="m24.09 15.75h4.16c.55 0 1 .45 1 1v8.5c0 1.1-.9 2-2 2h-18.5c-1.1 0-2-.9-2-2v-8.5c0-.55.45-1 1-1h3.23z" fill="#f3f3f1"/><path d="m22.003 19.25c-.997 0-1.837-.794-1.746-2.303.362-5.99 4.993-8.197 4.993-8.197-1.364 2.438-1.534 5.446-1.522 7.977.135 1.591-.669 2.523-1.725 2.523z" fill="#2fdf84"/><path d="m13.003 19.25c-.997 0-1.837-.794-1.746-2.303.362-5.99 4.993-8.197 4.993-8.197-1.364 2.438-1.534 5.446-1.522 7.977.135 1.591-.669 2.523-1.725 2.523z" fill="#2fdf84"/><path d="m11 27.25h-2.25c-1.1 0-2-.9-2-2v-8.5c0-.55.45-1 1-1h2.25c-.55 0-1 .45-1 1v8.5c0 1.1.9 2 2 2z" fill="#d5dbe1"/><path d="m24.38 10.89c-1.11 1.31-2.2 3.28-2.37 6.06-.06 1.02.3 1.71.85 2.04-.25.18-.54.26-.86.26-.99 0-1.83-.79-1.74-2.3.35-5.8 4.7-8.06 4.98-8.19-.37.67-.65 1.39-.86 2.13z" fill="#00b871"/><path d="m15.38 10.89c-1.11 1.31-2.2 3.28-2.37 6.06-.06 1.02.3 1.71.85 2.04-.25.18-.54.26-.86.26-.99 0-1.83-.79-1.74-2.3.35-5.8 4.7-8.06 4.98-8.19-.37.67-.65 1.39-.86 2.13z" fill="#00b871"/><circle cx="15.5" cy="23.5" r="1.5"/><circle cx="22.5" cy="23.5" r="1.5"/><path d="m7.5 25c-.391 0-.76-.089-1.097-.266l.694-1.329c.123.064.254.095.403.095.551 0 1-.449 1-1s-.449-1-1-1c-.149 0-.28.031-.403.095l-.694-1.329c.337-.177.706-.266 1.097-.266 1.378 0 2.5 1.122 2.5 2.5s-1.122 2.5-2.5 2.5z"/><path d="m28.5 24c-1.378 0-2.5-1.122-2.5-2.5s1.122-2.5 2.5-2.5c.391 0 .76.089 1.097.266l-.694 1.329c-.123-.064-.254-.095-.403-.095-.551 0-1 .449-1 1s.449 1 1 1c.149 0 .28-.031.403-.095l.694 1.329c-.337.177-.706.266-1.097.266z"/><path d="m27.25 28h-18.5c-1.517 0-2.75-1.233-2.75-2.75v-8.5c0-.965.785-1.75 1.75-1.75h3.23v1.5h-3.23c-.136 0-.25.114-.25.25v8.5c0 .689.561 1.25 1.25 1.25h18.5c.689 0 1.25-.561 1.25-1.25v-8.5c0-.136-.114-.25-.25-.25h-4.16v-1.5h4.16c.965 0 1.75.785 1.75 1.75v8.5c0 1.517-1.233 2.75-2.75 2.75z"/><path d="m14.84 15h5.39v1.5h-5.39z"/><path d="m22.003 20c-.682 0-1.308-.266-1.761-.747-.375-.399-.808-1.13-.733-2.351.384-6.358 5.213-8.731 5.419-8.829.293-.14.647-.075.87.165.223.238.267.594.107.879-1.278 2.285-1.438 5.127-1.426 7.607.086.991-.174 1.907-.736 2.52-.45.487-1.068.756-1.74.756zm1.564-9.038c-1.145 1.185-2.386 3.121-2.562 6.03-.032.535.084.973.329 1.232.214.228.482.275.669.275.255 0 .468-.092.634-.272.275-.299.397-.81.344-1.438-.011-1.869.071-3.901.586-5.827z"/><path d="m13.003 20c-.682 0-1.308-.266-1.761-.747-.375-.399-.808-1.13-.733-2.351.384-6.358 5.213-8.731 5.419-8.829.294-.14.646-.075.87.165.223.238.267.594.107.879-1.278 2.285-1.438 5.127-1.426 7.607.086.991-.174 1.907-.736 2.52-.45.487-1.068.756-1.74.756zm1.564-9.038c-1.145 1.185-2.386 3.121-2.562 6.03-.032.535.084.973.329 1.232.214.228.482.275.669.275.255 0 .468-.092.634-.272.275-.299.397-.81.344-1.438-.011-1.869.071-3.901.586-5.827z"/></svg>