<svg id="Line" height="512" viewBox="0 0 36 36" width="512" xmlns="http://www.w3.org/2000/svg"><path d="m8.324 5.111c-1.805 6.677-6.504 10.327-7.374 13.545s-.847 10.476 13.955 14.477 19.432-4.501 20.388-8.041c4.481-16.571-23.772-31.806-26.969-19.981z" fill="#f3efef"/><path d="m3.476 4.812c-.827 0-1.5-.673-1.5-1.5s.673-1.5 1.5-1.5 1.5.673 1.5 1.5-.673 1.5-1.5 1.5zm0-2c-.276 0-.5.224-.5.5s.224.5.5.5.5-.224.5-.5-.225-.5-.5-.5z" fill="#a4afc1"/><path d="m23.25 14.5c1.458 1.134 3.253 1.75 5.1 1.75h.9v11h-22.5v-11h.9c1.847 0 3.642-.616 5.1-1.75z" fill="#f3f3f1"/><path d="m21.957 20.355.239-2.969c.029-.243.413-2.027.709-3.387.23-1.054.345-2.128.345-3.207v-.001c0-1.127-.915-2.041-2.043-2.041-.381 0-.754.103-1.08.299-1.309.785-2.944.785-4.253 0-.326-.196-.7-.299-1.08-.299-1.128 0-2.043.914-2.043 2.041 0 1.079.116 2.153.345 3.207.296 1.361.68 3.145.709 3.388l.239 2.969c.061.509.538.895 1.107.895.536 0 .996-.343 1.095-.817l.615-4.434c.103-.493.582-.851 1.14-.851s1.037.357 1.14.851l.615 4.434c.099.474.559.817 1.095.817.567 0 1.045-.386 1.106-.895z" fill="#2fdf84"/><path d="m15 14.5c-1.46 1.13-3.25 1.75-5.1 1.75h-.9v11h-2.25v-11h.9c1.85 0 3.64-.62 5.1-1.75z" fill="#d5dbe1"/><path d="m16.05 17.39.23 2.83-.03.21c-.1.48-.56.82-1.1.82-.57 0-1.05-.39-1.11-.89l-.24-2.97c-.02-.25-.41-2.03-.7-3.39-.23-1.06-.35-2.13-.35-3.21 0-.57.23-1.07.6-1.44s.87-.6 1.44-.6c.38 0 .76.1 1.08.3l.06.03c-.12.08-.23.17-.33.27-.37.37-.6.87-.6 1.44 0 1.08.12 2.15.35 3.21.29 1.36.68 3.14.7 3.39z" fill="#00b871"/><path d="m20.849 22c-.889 0-1.658-.595-1.829-1.414l-.624-4.484c-.018-.075-.176-.204-.397-.204s-.379.129-.405.253l-.607 4.384c-.178.87-.947 1.465-1.836 1.465-.95 0-1.747-.669-1.852-1.556l-.242-2.998c-.008-.055-.099-.551-.694-3.29-.241-1.103-.363-2.236-.363-3.365 0-1.539 1.253-2.791 2.793-2.791.516 0 1.022.14 1.465.405 1.075.645 2.409.644 3.482 0 .445-.265.951-.405 1.467-.405 1.54 0 2.793 1.252 2.793 2.791 0 1.13-.122 2.263-.362 3.367-.485 2.227-.679 3.175-.697 3.319l-.236 2.938c-.001.01-.001.019-.003.028-.106.888-.903 1.557-1.853 1.557zm-2.849-7.602c.912 0 1.7.609 1.874 1.448l.624 4.484c.014.058.155.17.352.17.195 0 .342-.115.361-.225l.238-2.949c.013-.112.043-.364.724-3.487.218-1 .328-2.024.328-3.047 0-.712-.58-1.292-1.293-1.292-.245 0-.485.066-.696.192-1.548.929-3.474.929-5.023 0-.21-.125-.45-.192-.695-.192-.713 0-1.293.579-1.293 1.291 0 1.022.11 2.047.328 3.047.682 3.136.709 3.362.721 3.458l.242 2.999c.011.084.16.205.36.205.197 0 .337-.112.36-.22l.607-4.384c.181-.889.969-1.498 1.881-1.498z"/><path d="m29.25 17h-.899c-2.004 0-3.979-.678-5.561-1.908l.921-1.184c1.32 1.026 2.968 1.592 4.64 1.592h.899z"/><path d="m7.649 17h-.899v-1.5h.899c1.672 0 3.32-.565 4.64-1.592l.921 1.184c-1.582 1.23-3.557 1.908-5.561 1.908z"/><path d="m15.203 27.611c-.959-1.747-1.277-3.837-.945-6.214l1.485.207c-.29 2.079-.037 3.808.774 5.286z"/><path d="m20.797 27.611-1.314-.722c.811-1.478 1.064-3.207.774-5.286l1.485-.207c.333 2.377.015 4.468-.945 6.215z"/><path d="m9.25 18.897h1.5v2.207h-1.5z" transform="matrix(.707 -.707 .707 .707 -11.213 12.929)"/><path d="m6.897 23.25h2.207v1.5h-2.207z" transform="matrix(.707 -.707 .707 .707 -14.627 12.686)"/><path d="m23.897 23.25h2.207v1.5h-2.207z" transform="matrix(.707 -.707 .707 .707 -9.648 24.707)"/><path d="m27.25 18.897h1.5v2.207h-1.5z" transform="matrix(.707 -.707 .707 .707 -5.941 25.657)"/><path d="m6.75 26.5h22.5v1.5h-22.5z"/></svg>