<svg id="Line" height="512" viewBox="0 0 36 36" width="512" xmlns="http://www.w3.org/2000/svg"><path d="m9.087 3.714c6.917 0 11.667-3.583 15-3.583s10.333 1.916 10.333 17.25-9.417 17.583-13.083 17.583c-17.167 0-24.5-31.25-12.25-31.25z" fill="#f3efef"/><g fill="#a4afc1"><path d="m32.685 5.338h1v2h-1z" transform="matrix(.707 -.707 .707 .707 5.238 25.321)"/><path d="m28.619 1.272h1v2h-1z" transform="matrix(.707 -.707 .707 .707 6.929 21.263)"/><path d="m32.361 1.772h2v1h-2z" transform="matrix(.707 -.707 .707 .707 8.165 24.256)"/></g><path d="m9.685 10.576 1.391.907c.882.575 1.188 1.703.714 2.63-.587 1.147-2.092 1.495-3.142.725-1.195-.876-1.898-2.251-1.898-3.712v-1.638c0-1.512 1.254-2.738 2.8-2.738.411 0 .816.097 1.189.266 4.841 2.196 9.681 2.196 14.522 0 .373-.169.778-.266 1.189-.266 1.547 0 2.8 1.226 2.8 2.738v1.638c0 1.46-.703 2.836-1.898 3.712-1.049.77-2.555.422-3.142-.725-.474-.927-.168-2.055.714-2.63l1.391-.907z" fill="#f3f3f1"/><path d="m9.49 10.41c-.03.75.97 8.71 3.15 11.31 1.22 1.44 2.13 3.12 2.44 4.99l.42 2.54h5l.42-2.54c.31-1.87 1.22-3.55 2.44-4.99 2.18-2.6 3.18-10.56 3.15-11.31z" fill="#f3f3f1"/><path d="m17.75 29.25h-2.25l-.42-2.54c-.31-1.87-1.22-3.55-2.44-4.99-1.2-1.43-2.04-4.49-2.55-7.07h2.25c.51 2.58 1.35 5.64 2.55 7.07 1.22 1.44 2.13 3.12 2.44 4.99z" fill="#d5dbe1"/><path d="m10.9 14.84c.04.03.08.06.13.08-.34.22-.73.33-1.13.33-.43 0-.87-.13-1.25-.41-1.2-.88-1.9-2.25-1.9-3.71v-1.64c0-1.51 1.25-2.74 2.8-2.74.38 0 .76.09 1.11.24-.98.42-1.66 1.38-1.66 2.5v1.64c0 1.46.7 2.83 1.9 3.71z" fill="#d5dbe1"/><path d="m9.906 16c-.607 0-1.204-.191-1.702-.557-1.38-1.013-2.204-2.626-2.204-4.317v-1.638c0-1.923 1.593-3.488 3.55-3.488.507 0 1.011.112 1.499.333 4.613 2.093 9.289 2.093 13.902 0 .488-.221.992-.333 1.499-.333 1.957 0 3.55 1.565 3.55 3.488v1.638c0 1.69-.824 3.304-2.204 4.316-.683.5-1.551.673-2.373.479-.817-.193-1.503-.728-1.881-1.466-.647-1.27-.229-2.817.974-3.601l1.391-.906.818 1.257-1.391.906c-.558.363-.754 1.078-.456 1.661.177.346.502.597.891.689.396.093.813.011 1.141-.229.996-.731 1.591-1.893 1.591-3.107v-1.637c0-1.376-1.511-2.431-2.93-1.789-5.023 2.279-10.117 2.279-15.141 0-1.418-.641-2.93.413-2.93 1.789v1.638c0 1.214.595 2.376 1.591 3.107.327.239.744.323 1.141.228.389-.092.714-.344.891-.69.298-.583.102-1.297-.456-1.66l-1.391-.906.818-1.257 1.391.906c1.203.784 1.621 2.331.974 3.6-.378.739-1.063 1.274-1.881 1.467-.223.053-.448.079-.672.079z"/><path d="m14.76 29.373-.42-2.54c-.267-1.606-1.031-3.163-2.272-4.627-2.313-2.759-2.365-6.113-2.326-7.075l1.498.061c-.033.826.011 3.705 1.976 6.048 1.416 1.671 2.293 3.471 2.605 5.349l.42 2.541z"/><path d="m21.24 29.373-1.48-.245.42-2.54c.313-1.878 1.189-3.678 2.608-5.352 1.962-2.34 2.006-5.219 1.973-6.045l1.498-.061c.039.962-.014 4.316-2.323 7.072-1.244 1.467-2.009 3.024-2.275 4.631z"/></svg>